<svg width="16" height="16" viewBox="0 0 16 16" fill="none" xmlns="http://www.w3.org/2000/svg">
<path d="M10.8289 4.22876L8.00048 7.05719L5.17205 4.22876C5.04703 4.10374 4.87746 4.0335 4.70065 4.0335C4.52384 4.0335 4.35427 4.10374 4.22924 4.22876C4.10422 4.35379 4.03398 4.52336 4.03398 4.70017C4.03398 4.87698 4.10422 5.04655 4.22924 5.17157L7.05767 8L4.22924 10.8284C4.10422 10.9535 4.03398 11.123 4.03398 11.2998C4.03398 11.4766 4.10422 11.6462 4.22924 11.7712C4.35427 11.8963 4.52384 11.9665 4.70065 11.9665C4.87746 11.9665 5.04703 11.8963 5.17205 11.7712L8.00048 8.94281L10.8289 11.7712C10.9539 11.8963 11.1235 11.9665 11.3003 11.9665C11.4771 11.9665 11.6467 11.8963 11.7717 11.7712C11.8967 11.6462 11.967 11.4766 11.967 11.2998C11.967 11.123 11.8967 10.9535 11.7717 10.8284L8.94329 8L11.7717 5.17157C11.8967 5.04655 11.967 4.87698 11.967 4.70017C11.967 4.52336 11.8967 4.35379 11.7717 4.22876C11.6467 4.10374 11.4771 4.0335 11.3003 4.0335C11.1235 4.0335 10.9539 4.10374 10.8289 4.22876Z" fill="#8C8C8C"/>
</svg>
