<svg width="18" height="18" viewBox="0 0 18 18" fill="none" xmlns="http://www.w3.org/2000/svg">
<rect width="18" height="18" rx="2" fill="#D9D9D9"/>
<g clip-path="url(#clip0_219_1121)">
<path d="M11.8279 5.22876L8.9995 8.05719L6.17108 5.22876C6.04605 5.10374 5.87648 5.0335 5.69967 5.0335C5.52286 5.0335 5.35329 5.10374 5.22827 5.22876C5.10324 5.35379 5.03301 5.52336 5.03301 5.70017C5.03301 5.87698 5.10324 6.04655 5.22827 6.17157L8.05669 9L5.22827 11.8284C5.10324 11.9535 5.03301 12.123 5.03301 12.2998C5.03301 12.4766 5.10324 12.6462 5.22827 12.7712C5.35329 12.8963 5.52286 12.9665 5.69967 12.9665C5.87648 12.9665 6.04605 12.8963 6.17108 12.7712L8.9995 9.94281L11.8279 12.7712C11.953 12.8963 12.1225 12.9665 12.2993 12.9665C12.4761 12.9665 12.6457 12.8963 12.7707 12.7712C12.8958 12.6462 12.966 12.4766 12.966 12.2998C12.966 12.123 12.8958 11.9535 12.7707 11.8284L9.94231 9L12.7707 6.17157C12.8958 6.04655 12.966 5.87698 12.966 5.70017C12.966 5.52336 12.8958 5.35379 12.7707 5.22876C12.6457 5.10374 12.4761 5.0335 12.2993 5.0335C12.1225 5.0335 11.953 5.10374 11.8279 5.22876Z" fill="#8C8C8C"/>
</g>
<defs>
<clipPath id="clip0_219_1121">
<rect width="16" height="16" fill="white" transform="translate(1 1)"/>
</clipPath>
</defs>
</svg>
