<svg width="376" height="498" viewBox="0 0 376 498" fill="none" xmlns="http://www.w3.org/2000/svg">
<path d="M214.557 210.317L222.907 249.98L143.786 266.636L135.436 226.974L95.811 235.315L120.833 354.173L160.458 345.832L152.108 306.169L231.229 289.513L239.579 329.175L279.074 320.861L254.053 202.003L214.557 210.317Z" fill="#11CCCC" fill-opacity="0.5"/>
<path d="M39.6433 164.435L47.9929 204.097L8.3677 212.439L25.0397 291.634L64.6649 283.293L56.3153 243.63L95.8109 235.316L87.4886 195.783L127.114 187.441L118.764 147.778L39.6433 164.435Z" fill="#11CCCC" fill-opacity="0.5"/>
<path d="M310.35 272.856L318.7 312.519L279.074 320.861L287.397 360.394L247.901 368.708L256.251 408.371L335.372 391.714L327.022 352.052L366.518 343.737L349.846 264.542L310.35 272.856Z" fill="#11CCCC" fill-opacity="0.5"/>
<path d="M108.127 409.641L111.464 423.964L82.8906 430.621L79.5536 416.298L65.2434 419.631L75.2435 462.556L89.5537 459.222L86.2167 444.898L114.79 438.241L118.127 452.565L132.391 449.242L122.391 406.318L108.127 409.641Z" fill="#11CCCC" fill-opacity="0.1"/>
<path d="M44.3166 394.354L47.6536 408.678L33.3433 412.011L40.0064 440.612L54.3167 437.278L50.9797 422.954L65.2431 419.631L61.917 405.355L76.2272 402.021L72.8902 387.697L44.3166 394.354Z" fill="#11CCCC" fill-opacity="0.1"/>
<path d="M143.364 431.584L146.701 445.908L132.391 449.242L135.717 463.519L121.453 466.842L124.79 481.165L153.364 474.509L150.027 460.185L164.29 456.862L157.627 428.261L143.364 431.584Z" fill="#11CCCC" fill-opacity="0.1"/>
<path d="M230.074 59.7953L223.998 74.5598L194.545 62.439L200.621 47.6745L185.87 41.6042L167.662 85.8493L182.413 91.9196L188.489 77.1552L217.942 89.276L211.866 104.04L226.568 110.091L244.776 65.8458L230.074 59.7953Z" fill="#11CCCC" fill-opacity="0.4"/>
<path d="M183.3 6.07298L177.224 20.8374L162.473 14.7671L150.341 44.2478L165.092 50.3181L171.168 35.5536L185.87 41.6041L191.926 26.8879L206.677 32.9582L212.753 18.1938L183.3 6.07298Z" fill="#11CCCC" fill-opacity="0.4"/>
<path d="M247.395 101.397L241.319 116.161L226.568 110.091L220.512 124.807L205.81 118.757L199.734 133.521L229.187 145.642L235.263 130.877L249.965 136.928L262.097 107.447L247.395 101.397Z" fill="#11CCCC" fill-opacity="0.4"/>
</svg>
