<svg width="361" height="411" viewBox="0 0 361 411" fill="none" xmlns="http://www.w3.org/2000/svg">
<path d="M179.598 107.694L165.461 130.311L120.343 102.109L134.48 79.4922L111.884 65.3683L69.5191 133.146L92.1149 147.269L106.252 124.652L151.37 152.854L137.233 175.471L159.755 189.549L202.12 121.772L179.598 107.694Z" fill="#11CCCC" fill-opacity="0.4"/>
<path d="M117.59 6.13012L103.453 28.7472L80.8572 14.6233L52.629 59.7835L75.2248 73.9074L89.362 51.2903L111.884 65.3681L125.975 42.8249L148.571 56.9488L162.708 34.3317L117.59 6.13012Z" fill="#11CCCC" fill-opacity="0.4"/>
<path d="M196.488 181.056L182.35 203.673L159.755 189.549L145.664 212.092L123.142 198.014L109.005 220.631L154.122 248.833L168.26 226.216L190.782 240.294L219.01 195.133L196.488 181.056Z" fill="#11CCCC" fill-opacity="0.4"/>
<path d="M296.955 85.2702L302.148 97.6144L277.523 107.972L272.331 95.6279L259.998 100.815L275.558 137.807L287.89 132.62L282.698 120.276L307.323 109.918L312.515 122.262L324.807 117.092L309.248 80.0998L296.955 85.2702Z" fill="#11CCCC" fill-opacity="0.1"/>
<path d="M237.338 81.3376L242.53 93.6818L230.198 98.8691L240.565 123.517L252.898 118.33L247.706 105.986L259.998 100.815L254.823 88.5114L267.155 83.3241L261.963 70.9799L237.338 81.3376Z" fill="#11CCCC" fill-opacity="0.1"/>
<path d="M331.948 99.5605L337.14 111.905L324.807 117.092L329.983 129.396L317.69 134.566L322.883 146.91L347.507 136.553L342.315 124.208L354.607 119.038L344.24 94.3901L331.948 99.5605Z" fill="#11CCCC" fill-opacity="0.1"/>
<path d="M135.244 332.392L127.517 343.329L105.698 327.915L113.426 316.977L102.498 309.257L79.3421 342.034L90.2694 349.754L97.9965 338.817L119.815 354.231L112.088 365.169L122.98 372.863L146.136 340.086L135.244 332.392Z" fill="#11CCCC" fill-opacity="0.3"/>
<path d="M107.036 279.723L99.3086 290.661L88.3814 282.941L72.9524 304.78L83.8796 312.5L91.6067 301.563L102.498 309.257L110.2 298.356L121.127 306.075L128.855 295.138L107.036 279.723Z" fill="#11CCCC" fill-opacity="0.3"/>
<path d="M141.634 369.646L133.907 380.583L122.98 372.863L115.278 383.765L104.386 376.07L96.6591 387.008L118.478 402.422L126.205 391.485L137.097 399.179L152.526 377.34L141.634 369.646Z" fill="#11CCCC" fill-opacity="0.3"/>
</svg>
