<svg width="116" height="89" viewBox="0 0 116 89" fill="none" xmlns="http://www.w3.org/2000/svg">
<path d="M64.7518 31.3624L73.1943 34.3477L67.239 51.1892L58.7965 48.2039L55.814 56.6385L81.1138 65.5847L84.0963 57.1502L75.6539 54.1648L81.6092 37.3233L90.0516 40.3086L93.0244 31.9017L67.7246 22.9554L64.7518 31.3624Z" fill="#11CCCC" fill-opacity="0.5"/>
<path d="M35.984 59.0845L44.4265 62.0699L41.4439 70.5044L58.3013 76.4653L61.2838 68.0308L52.8414 65.0454L55.8141 56.6385L47.3993 53.6629L50.3818 45.2283L41.9393 42.243L35.984 59.0845Z" fill="#11CCCC" fill-opacity="0.5"/>
<path d="M87.5644 20.4818L96.0069 23.4671L93.0244 31.9017L101.439 34.8772L98.4665 43.2842L106.909 46.2695L112.864 29.428L104.422 26.4427L107.395 18.0357L90.5372 12.0748L87.5644 20.4818Z" fill="#11CCCC" fill-opacity="0.5"/>
<path d="M22.2879 13.4575L24.8096 16.4943L17.9115 20.912L15.3898 17.8753L11.9351 20.0878L19.492 29.1881L22.9467 26.9756L20.425 23.9389L27.3231 19.5211L29.8449 22.5579L33.2883 20.3526L25.7313 11.2523L22.2879 13.4575Z" fill="#11CCCC" fill-opacity="0.1"/>
<path d="M3.45618 16.2295L5.97792 19.2663L2.5232 21.4788L7.55844 27.5423L11.0131 25.3299L8.49141 22.2931L11.9348 20.0879L9.42134 17.061L12.8761 14.8486L10.3543 11.8118L3.45618 16.2295Z" fill="#11CCCC" fill-opacity="0.1"/>
<path d="M34.2211 15.1034L36.7429 18.1401L33.2882 20.3526L35.8017 23.3794L32.3582 25.5847L34.88 28.6214L41.7781 24.2037L39.2564 21.167L42.6998 18.9617L37.6646 12.8981L34.2211 15.1034Z" fill="#11CCCC" fill-opacity="0.1"/>
</svg>
