<svg width="161" height="94" viewBox="0 0 161 94" fill="none" xmlns="http://www.w3.org/2000/svg">
<path d="M109.159 31.4832L117.944 34.0118L112.9 51.5381L104.114 49.0095L101.588 57.7869L127.917 65.3645L130.443 56.587L121.657 54.0584L126.701 36.5321L135.487 39.0607L138.005 30.3119L111.677 22.7344L109.159 31.4832Z" fill="#11CCCC" fill-opacity="0.5"/>
<path d="M81.5274 61.4866L90.3132 64.0152L87.7869 72.7926L105.33 77.8416L107.856 69.0641L99.0702 66.5355L101.588 57.7867L92.8311 55.2664L95.3574 46.4889L86.5716 43.9603L81.5274 61.4866Z" fill="#11CCCC" fill-opacity="0.5"/>
<path d="M131.745 19.0059L140.531 21.5345L138.005 30.3119L146.762 32.8323L144.244 41.581L153.03 44.1096L158.074 26.5834L149.288 24.0548L151.806 15.306L134.263 10.2571L131.745 19.0059Z" fill="#11CCCC" fill-opacity="0.5"/>
<path d="M35.5538 48.0826L38.6555 53.9674L26.9162 60.1548L23.8145 54.2701L17.9353 57.3689L27.2303 75.0039L33.1095 71.9051L30.0078 66.0204L41.7471 59.8329L44.8488 65.7177L50.7088 62.629L41.4138 44.994L35.5538 48.0826Z" fill="#11CCCC" fill-opacity="0.4"/>
<path d="M5.88168 48.7073L8.98338 54.5921L3.10414 57.6909L9.29741 69.4412L15.1766 66.3424L12.0749 60.4576L17.935 57.3689L14.8434 51.5034L20.7226 48.4046L17.6209 42.5199L5.88168 48.7073Z" fill="#11CCCC" fill-opacity="0.4"/>
<path d="M53.4863 53.6455L56.588 59.5303L50.7088 62.6291L53.8004 68.4946L47.9403 71.5832L51.042 77.468L62.7813 71.2806L59.6796 65.3958L65.5396 62.3071L59.3463 50.5568L53.4863 53.6455Z" fill="#11CCCC" fill-opacity="0.4"/>
</svg>
