<svg width="74" height="62" viewBox="0 0 74 62" fill="none" xmlns="http://www.w3.org/2000/svg">
<path d="M31.9313 12.4833L37.6806 16.5823L29.5035 28.0515L23.7542 23.9524L19.6589 29.6963L36.8882 41.9802L40.9834 36.2363L35.2341 32.1372L43.4112 20.668L49.1605 24.7671L53.2424 19.042L36.0131 6.75808L31.9313 12.4833Z" fill="#11CCCC" fill-opacity="0.4"/>
<path d="M4.09719 27.2365L9.84654 31.3356L5.7513 37.0795L17.2312 45.2643L21.3264 39.5204L15.5771 35.4213L19.659 29.6961L13.9284 25.6104L18.0236 19.8665L12.2743 15.7674L4.09719 27.2365Z" fill="#11CCCC" fill-opacity="0.4"/>
<path d="M51.5882 9.19892L57.3376 13.298L53.2423 19.042L58.9729 23.1276L54.891 28.8528L60.6404 32.9519L68.8175 21.4828L63.0681 17.3837L67.15 11.6585L55.6701 3.47374L51.5882 9.19892Z" fill="#11CCCC" fill-opacity="0.4"/>
</svg>
