<svg width="16" height="16" viewBox="0 0 16 16" fill="none" xmlns="http://www.w3.org/2000/svg">
<g id="ion:ban-sharp" clip-path="url(#clip0_9_1662)">
<path id="Vector" d="M12.9496 3.05026C12.3008 2.395 11.5289 1.8744 10.6782 1.51836C9.82758 1.16233 8.91496 0.977877 7.99281 0.975607C7.07066 0.973338 6.15715 1.15329 5.30476 1.50514C4.45237 1.85698 3.6779 2.37378 3.02584 3.02584C2.37378 3.6779 1.85698 4.45237 1.50514 5.30476C1.15329 6.15715 0.973338 7.07066 0.975607 7.99281C0.977877 8.91496 1.16233 9.82758 1.51836 10.6782C1.8744 11.5289 2.395 12.3008 3.05026 12.9496C3.69911 13.6049 4.47103 14.1255 5.32167 14.4815C6.17232 14.8376 7.08494 15.022 8.00709 15.0243C8.92924 15.0266 9.84275 14.8466 10.6951 14.4948C11.5475 14.1429 12.322 13.6261 12.9741 12.9741C13.6261 12.322 14.1429 11.5475 14.4948 10.6951C14.8466 9.84275 15.0266 8.92924 15.0243 8.00709C15.022 7.08494 14.8376 6.17232 14.4815 5.32167C14.1255 4.47103 13.6049 3.69911 12.9496 3.05026ZM13.5 7.99995C13.5011 9.19954 13.108 10.3663 12.3812 11.3206L4.67933 3.6187C5.63364 2.89186 6.80037 2.49878 7.99995 2.49995C11.0328 2.49995 13.5 4.9687 13.5 7.99995ZM2.49995 7.99995C2.49878 6.80037 2.89186 5.63364 3.6187 4.67933L11.3206 12.3812C10.3663 13.108 9.19954 13.5011 7.99995 13.5C4.9687 13.5 2.49995 11.0328 2.49995 7.99995Z" fill="#FF0000"/>
</g>
<defs>
<clipPath id="clip0_9_1662">
<rect width="16" height="16" fill="white"/>
</clipPath>
</defs>
</svg>
