<svg width="39" height="37" viewBox="0 0 39 37" fill="none" xmlns="http://www.w3.org/2000/svg">
<path fill-rule="evenodd" clip-rule="evenodd" d="M8.14411 7.14537C9.46597 7.14537 10.5376 6.07379 10.5376 4.75193C10.5376 3.43007 9.46597 2.35849 8.14411 2.35849C6.82226 2.35849 5.75068 3.43007 5.75068 4.75193C5.75068 6.07379 6.82226 7.14537 8.14411 7.14537ZM9.28744 9.36568C11.3597 8.85386 12.8963 6.98233 12.8963 4.75193C12.8963 2.12737 10.7687 -0.000257492 8.14411 -0.000257492C5.51955 -0.000257492 3.39193 2.12737 3.39193 4.75193C3.39193 7.00618 4.96152 8.89383 7.06744 9.38163L7.06744 21.3785C3.65014 21.8965 1.03125 24.8468 1.03125 28.4087C1.03125 32.336 4.21493 35.5197 8.14219 35.5197C11.752 35.5197 14.7335 32.8299 15.192 29.3453L27.0833 29.3453C27.5448 31.4867 29.4494 33.0916 31.7288 33.0916C34.3534 33.0916 36.481 30.9639 36.481 28.3394C36.481 25.7148 34.3534 23.5872 31.7288 23.5872C29.5239 23.5872 27.6697 25.0889 27.1331 27.1253H15.1376C14.942 26.052 14.5054 25.0629 13.886 24.2158L26.1555 12.0942C26.8406 12.4771 27.6302 12.6953 28.4708 12.6953C31.0954 12.6953 33.223 10.5677 33.223 7.94316C33.223 5.3186 31.0954 3.19097 28.4708 3.19097C25.8463 3.19097 23.7186 5.3186 23.7186 7.94316C23.7186 8.92192 24.0145 9.83158 24.5218 10.5875L12.3133 22.649C11.4347 22.0116 10.4047 21.5704 9.28744 21.3895L9.28744 9.36568ZM30.8643 7.94316C30.8643 9.26502 29.7927 10.3366 28.4708 10.3366C27.149 10.3366 26.0774 9.26502 26.0774 7.94316C26.0774 6.6213 27.149 5.54972 28.4708 5.54972C29.7927 5.54972 30.8643 6.6213 30.8643 7.94316ZM8.14219 33.0915C10.7284 33.0915 12.825 30.995 12.825 28.4087C12.825 25.8225 10.7284 23.7259 8.14219 23.7259C5.55594 23.7259 3.45937 25.8225 3.45937 28.4087C3.45937 30.995 5.55594 33.0915 8.14219 33.0915ZM31.7288 30.7328C33.0507 30.7328 34.1222 29.6612 34.1222 28.3394C34.1222 27.0175 33.0507 25.9459 31.7288 25.9459C30.4069 25.9459 29.3354 27.0175 29.3354 28.3394C29.3354 29.6612 30.4069 30.7328 31.7288 30.7328Z" fill="black"/>
</svg>
