<svg width="32" height="32" viewBox="0 0 32 32" fill="none" xmlns="http://www.w3.org/2000/svg">
<g id="teenyicons:doc-outline">
<path id="Vector" d="M5.33281 13.8667V12.8H4.26615V13.8667H5.33281ZM5.33281 22.4H4.26615V23.4667H5.33281V22.4ZM26.6661 13.8667H27.7328V12.8H26.6661V13.8667ZM26.6661 22.4V23.4667H27.7328V22.4H26.6661ZM28.7995 7.46667H29.8661V7.02507L29.5547 6.71147L28.7995 7.46667ZM22.3995 1.06667L23.1547 0.311467L22.8411 0H22.3995V1.06667ZM4.26615 13.8667V22.4H6.39948V13.8667H4.26615ZM5.33281 23.4667H7.46615V21.3333H5.33281V23.4667ZM10.6661 20.2667V16H8.53281V20.2667H10.6661ZM7.46615 12.8H5.33281V14.9333H7.46615V12.8ZM10.6661 16C10.6661 15.1513 10.329 14.3374 9.72889 13.7373C9.12877 13.1371 8.31484 12.8 7.46615 12.8V14.9333C7.74904 14.9333 8.02035 15.0457 8.22039 15.2458C8.42043 15.4458 8.53281 15.7171 8.53281 16H10.6661ZM7.46615 23.4667C8.31484 23.4667 9.12877 23.1295 9.72889 22.5294C10.329 21.9293 10.6661 21.1154 10.6661 20.2667H8.53281C8.53281 20.5496 8.42043 20.8209 8.22039 21.0209C8.02035 21.221 7.74904 21.3333 7.46615 21.3333V23.4667ZM12.7995 16V20.2667H14.9328V16H12.7995ZM19.1995 20.2667V16H17.0661V20.2667H19.1995ZM19.1995 16C19.1995 15.1513 18.8623 14.3374 18.2622 13.7373C17.6621 13.1371 16.8482 12.8 15.9995 12.8V14.9333C16.2824 14.9333 16.5537 15.0457 16.7537 15.2458C16.9538 15.4458 17.0661 15.7171 17.0661 16H19.1995ZM15.9995 23.4667C16.8482 23.4667 17.6621 23.1295 18.2622 22.5294C18.8623 21.9293 19.1995 21.1154 19.1995 20.2667H17.0661C17.0661 20.5496 16.9538 20.8209 16.7537 21.0209C16.5537 21.221 16.2824 21.3333 15.9995 21.3333V23.4667ZM12.7995 20.2667C12.7995 21.1154 13.1366 21.9293 13.7367 22.5294C14.3369 23.1295 15.1508 23.4667 15.9995 23.4667V21.3333C15.7166 21.3333 15.4453 21.221 15.2452 21.0209C15.0452 20.8209 14.9328 20.5496 14.9328 20.2667H12.7995ZM14.9328 16C14.9328 15.7171 15.0452 15.4458 15.2452 15.2458C15.4453 15.0457 15.7166 14.9333 15.9995 14.9333V12.8C15.1508 12.8 14.3369 13.1371 13.7367 13.7373C13.1366 14.3374 12.7995 15.1513 12.7995 16H14.9328ZM21.3328 12.8V23.4667H23.4661V12.8H21.3328ZM22.3995 14.9333H26.6661V12.8H22.3995V14.9333ZM25.5995 13.8667V17.0667H27.7328V13.8667H25.5995ZM22.3995 23.4667H26.6661V21.3333H22.3995V23.4667ZM27.7328 22.4V19.2H25.5995V22.4H27.7328ZM4.26615 10.6667V3.2H2.13281V10.6667H4.26615ZM27.7328 7.46667V10.6667H29.8661V7.46667H27.7328ZM5.33281 2.13333H22.3995V0H5.33281V2.13333ZM21.6443 1.82187L28.0443 8.22187L29.5547 6.71147L23.1547 0.311467L21.6443 1.82187ZM4.26615 3.2C4.26615 2.9171 4.37853 2.64579 4.57857 2.44575C4.7786 2.24571 5.04992 2.13333 5.33281 2.13333V0C4.48412 0 3.67019 0.337142 3.07007 0.937258C2.46995 1.53737 2.13281 2.35131 2.13281 3.2H4.26615ZM2.13281 25.6V28.8H4.26615V25.6H2.13281ZM5.33281 32H26.6661V29.8667H5.33281V32ZM29.8661 28.8V25.6H27.7328V28.8H29.8661ZM26.6661 32C27.5148 32 28.3288 31.6629 28.9289 31.0627C29.529 30.4626 29.8661 29.6487 29.8661 28.8H27.7328C27.7328 29.0829 27.6204 29.3542 27.4204 29.5542C27.2204 29.7543 26.949 29.8667 26.6661 29.8667V32ZM2.13281 28.8C2.13281 29.6487 2.46995 30.4626 3.07007 31.0627C3.67019 31.6629 4.48412 32 5.33281 32V29.8667C5.04992 29.8667 4.7786 29.7543 4.57857 29.5542C4.37853 29.3542 4.26615 29.0829 4.26615 28.8H2.13281Z" fill="black"/>
</g>
</svg>
