<svg width="16" height="16" viewBox="0 0 16 16" fill="none" xmlns="http://www.w3.org/2000/svg">
<g id="uil:smile">
<path id="Vector" d="M9.57301 9.48658C9.12736 9.8459 8.57214 10.0418 7.99968 10.0418C7.42722 10.0418 6.872 9.8459 6.42634 9.48658C6.2902 9.37343 6.11468 9.31898 5.9384 9.33524C5.76211 9.35149 5.5995 9.43711 5.48634 9.57325C5.37319 9.7094 5.31874 9.88492 5.335 10.0612C5.35125 10.2375 5.43687 10.4001 5.57301 10.5133C6.2539 11.0817 7.11272 11.393 7.99968 11.393C8.88664 11.393 9.74545 11.0817 10.4263 10.5133C10.5625 10.4001 10.6481 10.2375 10.6644 10.0612C10.6806 9.88492 10.6262 9.7094 10.513 9.57325C10.457 9.50584 10.3882 9.45012 10.3107 9.40929C10.2331 9.36845 10.1482 9.34329 10.061 9.33524C9.88468 9.31898 9.70916 9.37343 9.57301 9.48658ZM5.99968 7.33325C6.13153 7.33325 6.26043 7.29415 6.37006 7.2209C6.47969 7.14764 6.56514 7.04352 6.6156 6.92171C6.66606 6.79989 6.67926 6.66585 6.65353 6.53652C6.62781 6.4072 6.56432 6.28842 6.47108 6.19518C6.37785 6.10195 6.25906 6.03845 6.12974 6.01273C6.00042 5.987 5.86637 6.00021 5.74455 6.05067C5.62274 6.10112 5.51862 6.18657 5.44536 6.2962C5.37211 6.40584 5.33301 6.53473 5.33301 6.66658C5.33301 6.8434 5.40325 7.01297 5.52827 7.13799C5.6533 7.26301 5.82287 7.33325 5.99968 7.33325ZM9.99968 5.99992C9.86782 5.99992 9.73893 6.03902 9.6293 6.11227C9.51966 6.18553 9.43422 6.28965 9.38376 6.41146C9.3333 6.53328 9.3201 6.66732 9.34582 6.79665C9.37154 6.92597 9.43504 7.04475 9.52827 7.13799C9.62151 7.23122 9.7403 7.29472 9.86962 7.32044C9.99894 7.34617 10.133 7.33296 10.2548 7.2825C10.3766 7.23205 10.4807 7.1466 10.554 7.03697C10.6272 6.92733 10.6663 6.79844 10.6663 6.66658C10.6663 6.48977 10.5961 6.3202 10.4711 6.19518C10.3461 6.07016 10.1765 5.99992 9.99968 5.99992ZM7.99968 1.33325C6.68114 1.33325 5.3922 1.72425 4.29588 2.45679C3.19955 3.18933 2.34506 4.23052 1.84048 5.4487C1.3359 6.66687 1.20387 8.00731 1.46111 9.30052C1.71834 10.5937 2.35328 11.7816 3.28563 12.714C4.21798 13.6463 5.40587 14.2813 6.69908 14.5385C7.99228 14.7957 9.33273 14.6637 10.5509 14.1591C11.7691 13.6545 12.8103 12.8 13.5428 11.7037C14.2754 10.6074 14.6663 9.31846 14.6663 7.99992C14.6663 7.12444 14.4939 6.25753 14.1589 5.4487C13.8238 4.63986 13.3328 3.90493 12.7137 3.28587C12.0947 2.66682 11.3597 2.17575 10.5509 1.84072C9.74206 1.50569 8.87516 1.33325 7.99968 1.33325ZM7.99968 13.3333C6.94484 13.3333 5.9137 13.0205 5.03664 12.4344C4.15957 11.8484 3.47599 11.0154 3.07232 10.0409C2.66865 9.06636 2.56304 7.994 2.76882 6.95944C2.97461 5.92487 3.48256 4.97456 4.22844 4.22868C4.97432 3.4828 5.92463 2.97485 6.9592 2.76906C7.99376 2.56328 9.06612 2.66889 10.0407 3.07256C11.0152 3.47623 11.8481 4.15982 12.4342 5.03688C13.0202 5.91394 13.333 6.94508 13.333 7.99992C13.333 9.41441 12.7711 10.771 11.7709 11.7712C10.7707 12.7713 9.41417 13.3333 7.99968 13.3333Z" fill="#8C8C8C"/>
</g>
</svg>
