<svg width="38" height="37" viewBox="0 0 38 37" fill="none" xmlns="http://www.w3.org/2000/svg">
<g id="Frame 1321315122">
<g id="Mask group">
<mask id="mask0_291_28619" style="mask-type:alpha" maskUnits="userSpaceOnUse" x="1" y="1" width="37" height="36">
<circle id="Ellipse 1" cx="19.5" cy="19" r="18" fill="#D9D9D9"/>
</mask>
<g mask="url(#mask0_291_28619)">
<g id="browser 1_layerstyle">
<g id="Vector">
<mask id="path-2-inside-1_291_28619" fill="white">
<path fill-rule="evenodd" clip-rule="evenodd" d="M-0.406063 -6.99572C15.777 -7.00861 16.1714 -7.00861 16.9475 -6.75076C17.3927 -6.60895 18.0289 -6.29953 18.3851 -6.05458C18.7286 -5.80963 19.1993 -5.38418 19.4156 -5.11344C19.6192 -4.8427 19.9118 -4.41726 20.0645 -4.1723C20.2171 -3.92735 20.4207 -3.39876 20.5352 -3.012C20.6751 -2.52209 20.7388 -1.80012 20.7388 1.04908L21.9092 1.28114C22.5581 1.41007 23.6904 1.71948 24.4283 1.96444C25.1662 2.20939 26.3112 2.71219 26.9728 3.06028C27.6344 3.42127 28.6395 4.0401 29.1865 4.43976C29.7336 4.83942 30.6878 5.67742 31.2857 6.28336C31.8837 6.90219 32.7107 7.85622 33.1051 8.41059C33.4995 8.97785 34.1101 9.98345 34.4664 10.6539C34.8099 11.3243 35.2552 12.2912 35.4333 12.7811C35.6241 13.271 35.9167 14.2895 36.0948 15.0372C36.3238 16.0299 36.4256 16.9195 36.4765 18.3892C36.5274 19.9234 36.502 20.7227 36.3366 21.8057C36.2093 22.5921 35.8913 23.8943 35.6368 24.7065C35.3697 25.5187 34.9498 26.5887 34.6954 27.0915C34.4536 27.5943 33.8938 28.5484 33.4486 29.2188C33.0033 29.8892 32.1763 30.9206 31.6165 31.5265C31.0567 32.1195 30.0516 33.022 29.3901 33.5248C28.7285 34.0405 27.5199 34.7883 26.7183 35.2008C25.9168 35.6005 24.7082 36.1033 24.0466 36.3095C23.385 36.5287 22.38 36.7737 20.8024 37.0315L20.7388 45.9272C20.6879 53.6497 20.6497 54.8745 20.4716 55.3257C20.3571 55.6093 20.1662 56.0219 20.0263 56.2282C19.8991 56.4344 19.6192 56.8341 19.4029 57.1048C19.1993 57.3756 18.7286 57.801 18.3851 58.046C18.0289 58.2909 17.3927 58.6003 16.9475 58.7422C16.1714 59 15.777 59 -0.380619 59C-16.0293 59 -16.9581 58.9871 -17.6578 58.7679C-18.0522 58.639 -18.6247 58.3683 -18.9301 58.1878C-19.2227 57.9944 -19.668 57.6334 -19.9097 57.3885C-20.1514 57.1435 -20.4949 56.7052 -20.673 56.4215C-20.8512 56.1379 -21.1056 55.5578 -21.2455 55.1323C-21.5 54.3717 -21.5 54.0107 -21.5 25.9957C-21.5 -2.01929 -21.5 -2.38027 -21.2455 -3.14092C-21.1056 -3.56636 -20.8512 -4.14652 -20.673 -4.43015C-20.4949 -4.71378 -20.1514 -5.15212 -19.9097 -5.39707C-19.668 -5.64203 -19.2481 -5.99012 -18.9937 -6.17061C-18.7265 -6.3511 -18.1667 -6.60895 -17.7469 -6.73787C-17.009 -6.98283 -16.4619 -6.99572 -0.406063 -6.99572ZM-17.009 -2.35449L-17.3652 -1.96772L-17.4288 41.0797H16.6676L20.8024 37.0315C20.1021 37.146 18.381 37.1329 16.852 37.0315C15.3771 36.9337 14.0798 36.5144 13.805 36.4385C13.2452 36.2838 12.2656 35.9228 11.6422 35.6391C11.006 35.3684 10.0646 34.8656 9.54295 34.5433C9.02132 34.221 8.24525 33.6924 7.82541 33.3701C7.40556 33.0478 6.5786 32.2742 5.98064 31.6683C5.38268 31.0624 4.49211 29.9536 3.99593 29.2188C3.49975 28.471 2.88907 27.401 2.6219 26.8337C2.35472 26.2664 1.97305 25.3124 1.76949 24.7065C1.57865 24.1005 1.31148 23.1207 1.18425 22.5148C1.00614 21.6768 0.955246 20.8517 0.955246 19.0339C0.955246 17.2031 1.01886 16.3909 1.19697 15.5529C1.3242 14.947 1.62954 13.8769 1.87127 13.1679C2.113 12.4588 2.50739 11.5047 2.7364 11.0406C2.9654 10.5765 3.51247 9.64825 3.95776 8.97785C4.45394 8.21721 5.29362 7.2116 6.15875 6.32203C7.03661 5.44536 8.02897 4.59447 8.7796 4.09167C9.44117 3.64044 10.4717 3.04739 11.0696 2.76376C11.6676 2.48013 12.66 2.06757 13.2961 1.8613C13.9195 1.65502 14.95 1.39717 15.5734 1.26825L15.7417 1.22871C17.3798 0.843865 19.0773 0.782844 20.7388 1.04908C20.6497 -1.96772 16.6039 -1.98061 16.1841 -2.39316L15.777 -2.81861C-8.91743 -2.8444 -16.2202 -2.8315 -16.3728 -2.79283C-16.5255 -2.76704 -16.8181 -2.56076 -17.009 -2.35449ZM15.1409 8.07539C14.9118 8.46216 14.5302 9.24859 14.2884 9.81585C14.0467 10.3831 13.6905 11.479 13.4869 12.2654C13.2834 13.0518 13.0289 14.2895 12.9271 15.0372C12.8126 15.785 12.7236 16.5198 12.7236 16.6875C12.7236 16.9711 12.7363 16.9711 14.6956 16.9711H16.6676C16.6676 8.57819 16.6421 6.14154 16.6167 6.14154C16.5912 6.14154 16.3368 6.41228 16.0569 6.76037C15.777 7.09557 15.3699 7.68862 15.1409 8.07539ZM20.7388 16.9711C23.8939 16.9711 24.81 16.9453 24.81 16.9066C24.81 16.8679 24.7209 16.1847 24.6064 15.3982C24.5046 14.5989 24.2629 13.3612 24.0848 12.6522C23.9194 11.9431 23.6395 11.0148 23.4741 10.5894C23.3214 10.1639 23.0034 9.44197 22.7744 8.97785C22.5454 8.51373 22.1128 7.79176 21.8202 7.36631C21.5276 6.94087 21.1586 6.47674 21.0059 6.33493L20.726 6.07708L20.7388 16.9711ZM7.95263 10.5249C7.66001 10.9117 7.16383 11.6981 6.83305 12.2654C6.51499 12.8327 6.05697 13.9027 5.81525 14.6505C5.57352 15.3982 5.34451 16.2233 5.29362 16.4941L5.21729 16.9711H8.52514C8.63965 15.8237 8.77959 14.7407 8.93226 13.8125C9.07221 12.8842 9.35211 11.5821 9.54295 10.9117C9.73378 10.2413 10.0391 9.30016 10.2172 8.81025C10.3826 8.33323 10.5099 7.94647 10.4971 7.94647C10.4844 7.94647 10.0264 8.37191 9.47933 8.8876C8.93226 9.3904 8.25797 10.1382 7.95263 10.5249ZM27.558 9.62247C27.787 10.2929 28.1178 11.5434 28.3087 12.3943C28.4995 13.2452 28.7031 14.5473 28.7794 15.2951C28.8557 16.0428 28.9321 16.7261 28.9702 16.8164C28.9957 16.9324 29.441 16.9711 30.6369 16.9711H32.2526C32.1 16.0171 31.9346 15.3338 31.7946 14.8438C31.642 14.3539 31.2476 13.387 30.9041 12.7166C30.5733 12.0462 29.899 11.0019 29.4282 10.4089C28.9575 9.81585 28.1942 9.00364 27.7489 8.60398C27.2654 8.17853 26.9728 7.98514 27.0364 8.13985C27.0873 8.28167 27.329 8.95207 27.558 9.62247ZM5.29362 21.5865C5.33179 21.8444 5.57352 22.6695 5.81525 23.4172C6.05697 24.165 6.51499 25.2351 6.83305 25.8023C7.15111 26.3696 7.5964 27.0658 7.79996 27.3494C8.01624 27.633 8.51242 28.2003 8.90682 28.6128C9.2885 29.0254 9.82284 29.5411 10.09 29.7474L10.5607 30.1212C10.0518 28.7675 9.73378 27.8264 9.54295 27.156C9.35211 26.4856 9.07221 25.1835 8.93226 24.2552C8.77959 23.327 8.63965 22.244 8.60148 21.8444L8.52514 21.0966H5.20457L5.29362 21.5865ZM12.9271 23.0434C13.0289 23.7782 13.2706 24.9772 13.4488 25.6863C13.6269 26.3954 13.9958 27.517 14.263 28.2003C14.5429 28.8707 14.95 29.7345 15.179 30.1083C15.408 30.4951 15.8406 31.0753 16.1332 31.3976L16.6676 32.0035L16.6803 21.1095C12.749 21.1095 12.7363 21.1095 12.7363 21.3931C12.7363 21.5478 12.8254 22.2956 12.9271 23.0434ZM20.7642 32.0035C21.7947 30.8819 22.3418 30.0826 22.6726 29.4122C23.0034 28.7804 23.4105 27.8522 23.5886 27.3623C23.754 26.8595 24.0466 25.7894 24.2247 24.9772C24.4028 24.1521 24.581 23.1723 24.6191 22.7855C24.67 22.3858 24.7336 21.8573 24.7591 21.5865L24.8227 21.1095H20.7515L20.7642 32.0035ZM28.8685 21.8057C28.8812 22.0893 28.8048 22.9015 28.7031 23.6106C28.6013 24.3197 28.3341 25.6347 28.1178 26.5114C27.9015 27.401 27.558 28.5484 27.3545 29.0641C27.1509 29.5798 27.0491 29.9923 27.1128 29.9923C27.1891 29.9923 27.7489 29.4895 28.3596 28.8707C28.9702 28.2519 29.7336 27.3365 30.0516 26.8337C30.3824 26.3438 30.815 25.596 31.0313 25.1577C31.2348 24.7323 31.5275 24.0232 31.6801 23.5848C31.8328 23.1465 32.0364 22.3987 32.1381 21.9346L32.329 21.0966C29.7972 21.0966 29.0211 21.1482 28.9575 21.1869C28.8939 21.2384 28.8557 21.5092 28.8685 21.8057ZM-17.3525 53.972L-16.5255 54.81C15.5861 54.81 15.7643 54.81 16.0442 54.5522C16.2095 54.4103 16.4131 54.1138 16.5022 53.8818C16.6421 53.5595 16.6803 52.5281 16.6803 49.3308V45.2052H-17.4288L-17.3525 53.972ZM-0.380619 0.868589C2.87635 0.881481 3.01629 0.881482 3.48703 1.16511C3.74148 1.31982 4.07226 1.65502 4.21221 1.89997C4.35216 2.15782 4.45394 2.59616 4.45394 2.93136C4.45394 3.26656 4.35216 3.69201 4.21221 3.96274C4.07226 4.2077 3.74148 4.5429 3.48703 4.6976C3.01629 4.96834 2.87635 4.98124 -0.367893 4.99413C-3.66303 4.99413 -3.75209 4.99413 -4.17193 4.7105C-4.41366 4.5429 -4.74444 4.2077 -4.90984 3.96274C-5.1134 3.65333 -5.21518 3.31813 -5.21518 2.93136C-5.21518 2.49302 -5.12612 2.23517 -4.87167 1.89997C-4.68083 1.65502 -4.35005 1.31982 -4.14649 1.16511C-3.76481 0.868589 -3.7012 0.868589 -0.380619 0.868589ZM-0.380619 47.9255C2.87635 47.9384 3.01629 47.9384 3.48703 48.222C3.74148 48.3767 4.07226 48.7119 4.21221 48.9569C4.35216 49.2147 4.45394 49.6531 4.45394 49.9883C4.45394 50.3235 4.35216 50.7489 4.21221 51.0197C4.07226 51.2646 3.74148 51.5998 3.48703 51.7545C3.01629 52.0253 2.87635 52.0382 -0.367893 52.0511C-3.66303 52.0511 -3.75209 52.0511 -4.17193 51.7674C-4.41366 51.5998 -4.74444 51.2646 -4.90984 51.0197C-5.1134 50.7103 -5.21518 50.375 -5.21518 49.9883C-5.21518 49.5499 -5.12612 49.2921 -4.87167 48.9569C-4.68083 48.7119 -4.35005 48.3767 -4.14649 48.222C-3.76481 47.9255 -3.7012 47.9255 -0.380619 47.9255Z"/>
</mask>
<path fill-rule="evenodd" clip-rule="evenodd" d="M-0.406063 -6.99572C15.777 -7.00861 16.1714 -7.00861 16.9475 -6.75076C17.3927 -6.60895 18.0289 -6.29953 18.3851 -6.05458C18.7286 -5.80963 19.1993 -5.38418 19.4156 -5.11344C19.6192 -4.8427 19.9118 -4.41726 20.0645 -4.1723C20.2171 -3.92735 20.4207 -3.39876 20.5352 -3.012C20.6751 -2.52209 20.7388 -1.80012 20.7388 1.04908L21.9092 1.28114C22.5581 1.41007 23.6904 1.71948 24.4283 1.96444C25.1662 2.20939 26.3112 2.71219 26.9728 3.06028C27.6344 3.42127 28.6395 4.0401 29.1865 4.43976C29.7336 4.83942 30.6878 5.67742 31.2857 6.28336C31.8837 6.90219 32.7107 7.85622 33.1051 8.41059C33.4995 8.97785 34.1101 9.98345 34.4664 10.6539C34.8099 11.3243 35.2552 12.2912 35.4333 12.7811C35.6241 13.271 35.9167 14.2895 36.0948 15.0372C36.3238 16.0299 36.4256 16.9195 36.4765 18.3892C36.5274 19.9234 36.502 20.7227 36.3366 21.8057C36.2093 22.5921 35.8913 23.8943 35.6368 24.7065C35.3697 25.5187 34.9498 26.5887 34.6954 27.0915C34.4536 27.5943 33.8938 28.5484 33.4486 29.2188C33.0033 29.8892 32.1763 30.9206 31.6165 31.5265C31.0567 32.1195 30.0516 33.022 29.3901 33.5248C28.7285 34.0405 27.5199 34.7883 26.7183 35.2008C25.9168 35.6005 24.7082 36.1033 24.0466 36.3095C23.385 36.5287 22.38 36.7737 20.8024 37.0315L20.7388 45.9272C20.6879 53.6497 20.6497 54.8745 20.4716 55.3257C20.3571 55.6093 20.1662 56.0219 20.0263 56.2282C19.8991 56.4344 19.6192 56.8341 19.4029 57.1048C19.1993 57.3756 18.7286 57.801 18.3851 58.046C18.0289 58.2909 17.3927 58.6003 16.9475 58.7422C16.1714 59 15.777 59 -0.380619 59C-16.0293 59 -16.9581 58.9871 -17.6578 58.7679C-18.0522 58.639 -18.6247 58.3683 -18.9301 58.1878C-19.2227 57.9944 -19.668 57.6334 -19.9097 57.3885C-20.1514 57.1435 -20.4949 56.7052 -20.673 56.4215C-20.8512 56.1379 -21.1056 55.5578 -21.2455 55.1323C-21.5 54.3717 -21.5 54.0107 -21.5 25.9957C-21.5 -2.01929 -21.5 -2.38027 -21.2455 -3.14092C-21.1056 -3.56636 -20.8512 -4.14652 -20.673 -4.43015C-20.4949 -4.71378 -20.1514 -5.15212 -19.9097 -5.39707C-19.668 -5.64203 -19.2481 -5.99012 -18.9937 -6.17061C-18.7265 -6.3511 -18.1667 -6.60895 -17.7469 -6.73787C-17.009 -6.98283 -16.4619 -6.99572 -0.406063 -6.99572ZM-17.009 -2.35449L-17.3652 -1.96772L-17.4288 41.0797H16.6676L20.8024 37.0315C20.1021 37.146 18.381 37.1329 16.852 37.0315C15.3771 36.9337 14.0798 36.5144 13.805 36.4385C13.2452 36.2838 12.2656 35.9228 11.6422 35.6391C11.006 35.3684 10.0646 34.8656 9.54295 34.5433C9.02132 34.221 8.24525 33.6924 7.82541 33.3701C7.40556 33.0478 6.5786 32.2742 5.98064 31.6683C5.38268 31.0624 4.49211 29.9536 3.99593 29.2188C3.49975 28.471 2.88907 27.401 2.6219 26.8337C2.35472 26.2664 1.97305 25.3124 1.76949 24.7065C1.57865 24.1005 1.31148 23.1207 1.18425 22.5148C1.00614 21.6768 0.955246 20.8517 0.955246 19.0339C0.955246 17.2031 1.01886 16.3909 1.19697 15.5529C1.3242 14.947 1.62954 13.8769 1.87127 13.1679C2.113 12.4588 2.50739 11.5047 2.7364 11.0406C2.9654 10.5765 3.51247 9.64825 3.95776 8.97785C4.45394 8.21721 5.29362 7.2116 6.15875 6.32203C7.03661 5.44536 8.02897 4.59447 8.7796 4.09167C9.44117 3.64044 10.4717 3.04739 11.0696 2.76376C11.6676 2.48013 12.66 2.06757 13.2961 1.8613C13.9195 1.65502 14.95 1.39717 15.5734 1.26825L15.7417 1.22871C17.3798 0.843865 19.0773 0.782844 20.7388 1.04908C20.6497 -1.96772 16.6039 -1.98061 16.1841 -2.39316L15.777 -2.81861C-8.91743 -2.8444 -16.2202 -2.8315 -16.3728 -2.79283C-16.5255 -2.76704 -16.8181 -2.56076 -17.009 -2.35449ZM15.1409 8.07539C14.9118 8.46216 14.5302 9.24859 14.2884 9.81585C14.0467 10.3831 13.6905 11.479 13.4869 12.2654C13.2834 13.0518 13.0289 14.2895 12.9271 15.0372C12.8126 15.785 12.7236 16.5198 12.7236 16.6875C12.7236 16.9711 12.7363 16.9711 14.6956 16.9711H16.6676C16.6676 8.57819 16.6421 6.14154 16.6167 6.14154C16.5912 6.14154 16.3368 6.41228 16.0569 6.76037C15.777 7.09557 15.3699 7.68862 15.1409 8.07539ZM20.7388 16.9711C23.8939 16.9711 24.81 16.9453 24.81 16.9066C24.81 16.8679 24.7209 16.1847 24.6064 15.3982C24.5046 14.5989 24.2629 13.3612 24.0848 12.6522C23.9194 11.9431 23.6395 11.0148 23.4741 10.5894C23.3214 10.1639 23.0034 9.44197 22.7744 8.97785C22.5454 8.51373 22.1128 7.79176 21.8202 7.36631C21.5276 6.94087 21.1586 6.47674 21.0059 6.33493L20.726 6.07708L20.7388 16.9711ZM7.95263 10.5249C7.66001 10.9117 7.16383 11.6981 6.83305 12.2654C6.51499 12.8327 6.05697 13.9027 5.81525 14.6505C5.57352 15.3982 5.34451 16.2233 5.29362 16.4941L5.21729 16.9711H8.52514C8.63965 15.8237 8.77959 14.7407 8.93226 13.8125C9.07221 12.8842 9.35211 11.5821 9.54295 10.9117C9.73378 10.2413 10.0391 9.30016 10.2172 8.81025C10.3826 8.33323 10.5099 7.94647 10.4971 7.94647C10.4844 7.94647 10.0264 8.37191 9.47933 8.8876C8.93226 9.3904 8.25797 10.1382 7.95263 10.5249ZM27.558 9.62247C27.787 10.2929 28.1178 11.5434 28.3087 12.3943C28.4995 13.2452 28.7031 14.5473 28.7794 15.2951C28.8557 16.0428 28.9321 16.7261 28.9702 16.8164C28.9957 16.9324 29.441 16.9711 30.6369 16.9711H32.2526C32.1 16.0171 31.9346 15.3338 31.7946 14.8438C31.642 14.3539 31.2476 13.387 30.9041 12.7166C30.5733 12.0462 29.899 11.0019 29.4282 10.4089C28.9575 9.81585 28.1942 9.00364 27.7489 8.60398C27.2654 8.17853 26.9728 7.98514 27.0364 8.13985C27.0873 8.28167 27.329 8.95207 27.558 9.62247ZM5.29362 21.5865C5.33179 21.8444 5.57352 22.6695 5.81525 23.4172C6.05697 24.165 6.51499 25.2351 6.83305 25.8023C7.15111 26.3696 7.5964 27.0658 7.79996 27.3494C8.01624 27.633 8.51242 28.2003 8.90682 28.6128C9.2885 29.0254 9.82284 29.5411 10.09 29.7474L10.5607 30.1212C10.0518 28.7675 9.73378 27.8264 9.54295 27.156C9.35211 26.4856 9.07221 25.1835 8.93226 24.2552C8.77959 23.327 8.63965 22.244 8.60148 21.8444L8.52514 21.0966H5.20457L5.29362 21.5865ZM12.9271 23.0434C13.0289 23.7782 13.2706 24.9772 13.4488 25.6863C13.6269 26.3954 13.9958 27.517 14.263 28.2003C14.5429 28.8707 14.95 29.7345 15.179 30.1083C15.408 30.4951 15.8406 31.0753 16.1332 31.3976L16.6676 32.0035L16.6803 21.1095C12.749 21.1095 12.7363 21.1095 12.7363 21.3931C12.7363 21.5478 12.8254 22.2956 12.9271 23.0434ZM20.7642 32.0035C21.7947 30.8819 22.3418 30.0826 22.6726 29.4122C23.0034 28.7804 23.4105 27.8522 23.5886 27.3623C23.754 26.8595 24.0466 25.7894 24.2247 24.9772C24.4028 24.1521 24.581 23.1723 24.6191 22.7855C24.67 22.3858 24.7336 21.8573 24.7591 21.5865L24.8227 21.1095H20.7515L20.7642 32.0035ZM28.8685 21.8057C28.8812 22.0893 28.8048 22.9015 28.7031 23.6106C28.6013 24.3197 28.3341 25.6347 28.1178 26.5114C27.9015 27.401 27.558 28.5484 27.3545 29.0641C27.1509 29.5798 27.0491 29.9923 27.1128 29.9923C27.1891 29.9923 27.7489 29.4895 28.3596 28.8707C28.9702 28.2519 29.7336 27.3365 30.0516 26.8337C30.3824 26.3438 30.815 25.596 31.0313 25.1577C31.2348 24.7323 31.5275 24.0232 31.6801 23.5848C31.8328 23.1465 32.0364 22.3987 32.1381 21.9346L32.329 21.0966C29.7972 21.0966 29.0211 21.1482 28.9575 21.1869C28.8939 21.2384 28.8557 21.5092 28.8685 21.8057ZM-17.3525 53.972L-16.5255 54.81C15.5861 54.81 15.7643 54.81 16.0442 54.5522C16.2095 54.4103 16.4131 54.1138 16.5022 53.8818C16.6421 53.5595 16.6803 52.5281 16.6803 49.3308V45.2052H-17.4288L-17.3525 53.972ZM-0.380619 0.868589C2.87635 0.881481 3.01629 0.881482 3.48703 1.16511C3.74148 1.31982 4.07226 1.65502 4.21221 1.89997C4.35216 2.15782 4.45394 2.59616 4.45394 2.93136C4.45394 3.26656 4.35216 3.69201 4.21221 3.96274C4.07226 4.2077 3.74148 4.5429 3.48703 4.6976C3.01629 4.96834 2.87635 4.98124 -0.367893 4.99413C-3.66303 4.99413 -3.75209 4.99413 -4.17193 4.7105C-4.41366 4.5429 -4.74444 4.2077 -4.90984 3.96274C-5.1134 3.65333 -5.21518 3.31813 -5.21518 2.93136C-5.21518 2.49302 -5.12612 2.23517 -4.87167 1.89997C-4.68083 1.65502 -4.35005 1.31982 -4.14649 1.16511C-3.76481 0.868589 -3.7012 0.868589 -0.380619 0.868589ZM-0.380619 47.9255C2.87635 47.9384 3.01629 47.9384 3.48703 48.222C3.74148 48.3767 4.07226 48.7119 4.21221 48.9569C4.35216 49.2147 4.45394 49.6531 4.45394 49.9883C4.45394 50.3235 4.35216 50.7489 4.21221 51.0197C4.07226 51.2646 3.74148 51.5998 3.48703 51.7545C3.01629 52.0253 2.87635 52.0382 -0.367893 52.0511C-3.66303 52.0511 -3.75209 52.0511 -4.17193 51.7674C-4.41366 51.5998 -4.74444 51.2646 -4.90984 51.0197C-5.1134 50.7103 -5.21518 50.375 -5.21518 49.9883C-5.21518 49.5499 -5.12612 49.2921 -4.87167 48.9569C-4.68083 48.7119 -4.35005 48.3767 -4.14649 48.222C-3.76481 47.9255 -3.7012 47.9255 -0.380619 47.9255Z" fill="black"/>
<path d="M-0.406063 -6.99572V-6.12853L-0.405373 -6.12853L-0.406063 -6.99572ZM16.9475 -6.75076L16.674 -5.92775L16.6843 -5.92447L16.9475 -6.75076ZM18.3851 -6.05458L18.8886 -6.76064L18.8826 -6.76494L18.8764 -6.76914L18.3851 -6.05458ZM19.4156 -5.11344L20.1088 -5.63458L20.1011 -5.64476L20.0932 -5.6547L19.4156 -5.11344ZM20.5352 -3.012L21.3691 -3.2502L21.3667 -3.25816L20.5352 -3.012ZM21.9092 1.28114L22.0782 0.430583L22.0779 0.430512L21.9092 1.28114ZM26.9728 3.06028L27.3882 2.29896L27.3766 2.29284L26.9728 3.06028ZM31.2857 6.28336L31.9094 5.68074L31.903 5.67424L31.2857 6.28336ZM33.1051 8.41059L33.8171 7.91553L33.8117 7.90788L33.1051 8.41059ZM34.4664 10.6539L35.2382 10.2584L35.2321 10.2469L34.4664 10.6539ZM35.4333 12.7811L34.6183 13.0774L34.6217 13.0867L34.6252 13.0958L35.4333 12.7811ZM36.0948 15.0372L36.9399 14.8423L36.9384 14.8363L36.0948 15.0372ZM36.4765 18.3892L37.3432 18.3605L37.3432 18.3592L36.4765 18.3892ZM36.3366 21.8057L37.1927 21.9442L37.1938 21.9366L36.3366 21.8057ZM35.6368 24.7065L36.4607 24.9775L36.4644 24.9657L35.6368 24.7065ZM34.6954 27.0915L33.9216 26.7L33.9176 26.7078L33.9138 26.7158L34.6954 27.0915ZM31.6165 31.5265L32.2472 32.1218L32.2535 32.115L31.6165 31.5265ZM29.3901 33.5248L28.8653 32.8343L28.8569 32.8409L29.3901 33.5248ZM26.7183 35.2008L27.1053 35.9769L27.1152 35.9719L26.7183 35.2008ZM24.0466 36.3095L23.7885 35.4817L23.7812 35.4839L23.7739 35.4864L24.0466 36.3095ZM20.7388 45.9272L19.8716 45.921L19.8716 45.9215L20.7388 45.9272ZM20.4716 55.3257L21.2757 55.6503L21.2782 55.6441L20.4716 55.3257ZM20.0263 56.2282L19.3087 55.7413L19.2981 55.7569L19.2882 55.7729L20.0263 56.2282ZM19.4029 57.1048L18.7254 56.5636L18.7174 56.5735L18.7098 56.5837L19.4029 57.1048ZM18.3851 58.046L18.8764 58.7605L18.8826 58.7563L18.8886 58.752L18.3851 58.046ZM16.9475 58.7422L16.6843 57.9158L16.674 57.9192L16.9475 58.7422ZM-17.6578 58.7679L-17.9273 59.5923L-17.917 59.5955L-17.6578 58.7679ZM-18.9301 58.1878L-19.4082 58.9113L-19.39 58.9232L-19.3713 58.9343L-18.9301 58.1878ZM-21.2455 55.1323L-20.4218 54.8613L-20.4232 54.8572L-21.2455 55.1323ZM-21.2455 -3.14092L-20.4231 -2.86581L-20.4218 -2.86995L-21.2455 -3.14092ZM-18.9937 -6.17061L-19.4791 -6.88919L-19.4873 -6.88365L-19.4954 -6.87792L-18.9937 -6.17061ZM-17.7469 -6.73787L-17.4923 -5.90889L-17.4829 -5.91176L-17.4736 -5.91485L-17.7469 -6.73787ZM-17.009 -2.35449L-17.6455 -2.9434L-17.6468 -2.94198L-17.009 -2.35449ZM-17.3652 -1.96772L-18.003 -2.55521L-18.2319 -2.30677L-18.2324 -1.969L-17.3652 -1.96772ZM-17.4288 41.0797L-18.296 41.0784L-18.2973 41.9469H-17.4288V41.0797ZM16.6676 41.0797V41.9469H17.0214L17.2742 41.6993L16.6676 41.0797ZM13.805 36.4385L13.574 37.2743L13.805 36.4385ZM11.6422 35.6391L12.0013 34.8498L11.9916 34.8454L11.9818 34.8412L11.6422 35.6391ZM3.99593 29.2188L3.27332 29.6983L3.27723 29.704L3.99593 29.2188ZM1.76949 24.7065L0.94235 24.967L0.944824 24.9748L0.947445 24.9826L1.76949 24.7065ZM1.18425 22.5148L2.03294 22.3366L2.03249 22.3345L1.18425 22.5148ZM1.19697 15.5529L2.04521 15.7332L2.04565 15.7311L1.19697 15.5529ZM3.95776 8.97785L4.68015 9.45767L4.68408 9.45164L3.95776 8.97785ZM6.15875 6.32203L5.54591 5.70836L5.53708 5.71744L6.15875 6.32203ZM8.7796 4.09167L9.26222 4.81218L9.26823 4.80808L8.7796 4.09167ZM13.2961 1.8613L13.5636 2.68621L13.5685 2.68458L13.2961 1.8613ZM15.5734 1.26825L15.749 2.11747L15.7604 2.11511L15.7718 2.11245L15.5734 1.26825ZM16.1841 -2.39316L15.5576 -1.79361L15.5668 -1.78397L15.5763 -1.77462L16.1841 -2.39316ZM15.777 -2.81861L16.4035 -3.41816L16.1478 -3.68541L15.7779 -3.6858L15.777 -2.81861ZM-16.3728 -2.79283L-16.2284 -1.93775L-16.1938 -1.94359L-16.1599 -1.95219L-16.3728 -2.79283ZM12.9271 15.0372L13.7843 15.1685L13.7854 15.1614L13.7864 15.1542L12.9271 15.0372ZM16.6676 16.9711V17.8383H17.5347V16.9711H16.6676ZM16.0569 6.76037L16.7225 7.31619L16.7277 7.31003L16.7327 7.30378L16.0569 6.76037ZM20.7388 16.9711L19.8716 16.9721L19.8726 17.8383H20.7388V16.9711ZM24.6064 15.3982L23.7462 15.5078L23.7472 15.5155L23.7483 15.5232L24.6064 15.3982ZM24.0848 12.6522L23.2403 12.8491L23.2419 12.8563L23.2437 12.8634L24.0848 12.6522ZM23.4741 10.5894L22.6579 10.8823L22.6617 10.893L22.6658 10.9036L23.4741 10.5894ZM21.0059 6.33493L21.5961 5.69956L21.5935 5.69713L21.0059 6.33493ZM20.726 6.07708L21.3136 5.43928L19.8565 4.097L19.8589 6.07809L20.726 6.07708ZM7.95263 10.5249L7.27199 9.98759L7.26645 9.99459L7.26107 10.0017L7.95263 10.5249ZM6.83305 12.2654L6.08392 11.8286L6.08023 11.8349L6.07665 11.8413L6.83305 12.2654ZM5.29362 16.4941L4.44136 16.3339L4.43919 16.3454L4.43733 16.357L5.29362 16.4941ZM5.21729 16.9711L4.361 16.8341L4.20029 17.8383H5.21729V16.9711ZM8.52514 16.9711V17.8383H9.3101L9.38805 17.0572L8.52514 16.9711ZM8.93226 13.8125L9.78803 13.9532L9.78976 13.9417L8.93226 13.8125ZM10.2172 8.81025L11.0323 9.10659L11.0366 9.09433L10.2172 8.81025ZM9.47933 8.8876L10.0662 9.52614L10.0742 9.51863L9.47933 8.8876ZM28.9702 16.8164L29.8173 16.6306L29.8001 16.5524L29.7689 16.4786L28.9702 16.8164ZM32.2526 16.9711V17.8383H33.2696L33.1089 16.8341L32.2526 16.9711ZM31.7946 14.8438L32.6285 14.6057L32.6256 14.5957L32.6225 14.5858L31.7946 14.8438ZM30.9041 12.7166L30.1263 13.1004L30.1323 13.1121L30.9041 12.7166ZM27.7489 8.60398L28.3281 7.95858L28.3218 7.95297L27.7489 8.60398ZM27.0364 8.13985L27.8526 7.84695L27.846 7.82835L27.8384 7.81007L27.0364 8.13985ZM5.29362 21.5865L6.15146 21.4595L6.14938 21.4455L6.14683 21.4314L5.29362 21.5865ZM7.79996 27.3494L7.09544 27.855L7.10277 27.8652L7.11039 27.8752L7.79996 27.3494ZM8.90682 28.6128L9.54337 28.0239L9.53856 28.0187L9.53365 28.0136L8.90682 28.6128ZM10.09 29.7474L10.6294 29.0682L10.62 29.0609L10.09 29.7474ZM10.5607 30.1212L10.0214 30.8003L12.4751 32.7491L11.3725 29.8161L10.5607 30.1212ZM8.93226 24.2552L9.78984 24.1259L9.78796 24.1145L8.93226 24.2552ZM8.60148 21.8444L9.46476 21.7619L9.46418 21.7563L8.60148 21.8444ZM8.52514 21.0966L9.38785 21.0086L9.30831 20.2294H8.52514V21.0966ZM5.20457 21.0966V20.2294H4.16553L4.35136 21.2517L5.20457 21.0966ZM12.9271 23.0434L12.0679 23.1603L12.0681 23.1623L12.9271 23.0434ZM14.263 28.2003L13.4554 28.5161L13.459 28.5253L13.4628 28.5344L14.263 28.2003ZM15.179 30.1083L15.9253 29.6665L15.9185 29.6554L15.179 30.1083ZM16.1332 31.3976L16.7837 30.8239L16.7753 30.8147L16.1332 31.3976ZM16.6676 32.0035L16.0171 32.5771L17.5321 34.295L17.5347 32.0045L16.6676 32.0035ZM16.6803 21.1095L17.5475 21.1105L17.5485 20.2423H16.6803V21.1095ZM20.7642 32.0035L19.897 32.0045L19.8996 34.2263L21.4028 32.5902L20.7642 32.0035ZM22.6726 29.4122L21.9044 29.0099L21.8995 29.0191L21.8949 29.0284L22.6726 29.4122ZM23.5886 27.3623L24.4036 27.6586L24.4082 27.646L24.4124 27.6333L23.5886 27.3623ZM24.2247 24.9772L25.0718 25.163L25.0724 25.1602L24.2247 24.9772ZM24.6191 22.7855L23.7589 22.676L23.7573 22.6881L23.7561 22.7003L24.6191 22.7855ZM24.7591 21.5865L23.8995 21.4719L23.8973 21.4886L23.8957 21.5054L24.7591 21.5865ZM24.8227 21.1095L25.6823 21.2241L25.8132 20.2423H24.8227V21.1095ZM20.7515 21.1095V20.2423H19.8833L19.8843 21.1105L20.7515 21.1095ZM28.8685 21.8057L28.0021 21.8429L28.0021 21.8446L28.8685 21.8057ZM28.1178 26.5114L27.2759 26.3037L27.2752 26.3065L28.1178 26.5114ZM30.0516 26.8337L29.3329 26.3484L29.3257 26.3592L29.3188 26.3701L30.0516 26.8337ZM31.0313 25.1577L31.809 25.5414L31.8135 25.532L31.0313 25.1577ZM32.1381 21.9346L31.2926 21.7421L31.2911 21.7489L32.1381 21.9346ZM32.329 21.0966L33.1745 21.2892L33.4159 20.2294H32.329V21.0966ZM28.9575 21.1869L28.507 20.4459L28.4569 20.4763L28.4114 20.5132L28.9575 21.1869ZM-17.3525 53.972L-18.2196 53.9796L-18.2166 54.331L-17.9697 54.5811L-17.3525 53.972ZM-16.5255 54.81L-17.1427 55.4191L-16.8881 55.6772H-16.5255V54.81ZM16.0442 54.5522L15.4797 53.8938L15.468 53.9039L15.4566 53.9144L16.0442 54.5522ZM16.5022 53.8818L15.7067 53.5364L15.6993 53.5536L15.6925 53.5711L16.5022 53.8818ZM16.6803 45.2052H17.5475V44.3381H16.6803V45.2052ZM-17.4288 45.2052V44.3381H-18.3036L-18.2959 45.2128L-17.4288 45.2052ZM-0.380619 0.868589L-0.377186 0.00140142H-0.380619V0.868589ZM3.48703 1.16511L3.93755 0.42413L3.93457 0.422336L3.48703 1.16511ZM4.21221 1.89997L4.97437 1.4863L4.96987 1.478L4.96518 1.46979L4.21221 1.89997ZM4.21221 3.96274L4.96518 4.39293L4.97421 4.37712L4.98257 4.36095L4.21221 3.96274ZM3.48703 4.6976L3.91937 5.44933L3.92853 5.44407L3.93755 5.43858L3.48703 4.6976ZM-0.367893 4.99413V5.86132L-0.364449 5.86131L-0.367893 4.99413ZM-4.17193 4.7105L-4.66608 5.4232L-4.65738 5.42908L-4.17193 4.7105ZM-4.90984 3.96274L-5.63435 4.43939L-5.62854 4.44801L-4.90984 3.96274ZM-4.87167 1.89997L-5.55581 1.36698L-5.56239 1.37565L-4.87167 1.89997ZM-4.14649 1.16511L-3.62173 1.85557L-3.61446 1.84992L-4.14649 1.16511ZM-0.380619 47.9255L-0.377186 47.0583H-0.380619V47.9255ZM3.48703 48.222L3.93755 47.4811L3.93457 47.4793L3.48703 48.222ZM4.21221 48.9569L4.97437 48.5432L4.96987 48.5349L4.96518 48.5267L4.21221 48.9569ZM4.21221 51.0197L4.96518 51.4499L4.97421 51.434L4.98257 51.4179L4.21221 51.0197ZM3.48703 51.7545L3.91937 52.5063L3.92853 52.501L3.93755 52.4955L3.48703 51.7545ZM-0.367893 52.0511V52.9182L-0.364449 52.9182L-0.367893 52.0511ZM-4.17193 51.7674L-4.66608 52.4801L-4.65738 52.486L-4.17193 51.7674ZM-4.90984 51.0197L-5.63435 51.4963L-5.62854 51.5049L-4.90984 51.0197ZM-4.87167 48.9569L-5.55581 48.4239L-5.56239 48.4326L-4.87167 48.9569ZM-4.14649 48.222L-3.62173 48.9125L-3.61446 48.9068L-4.14649 48.222ZM16.852 37.0315L16.7946 37.8968L16.852 37.0315ZM-0.405373 -6.12853C7.69078 -6.13498 11.826 -6.13817 14.0363 -6.10766C16.2786 -6.07672 16.4346 -6.00736 16.674 -5.92781L17.2209 -7.57372C16.6842 -7.75201 16.255 -7.81158 14.0603 -7.84187C11.8336 -7.87261 7.68013 -7.86935 -0.406754 -7.86291L-0.405373 -6.12853ZM16.6843 -5.92447C17.0528 -5.80712 17.6113 -5.53422 17.8937 -5.34002L18.8764 -6.76914C18.4464 -7.06485 17.7327 -7.41078 17.2106 -7.57706L16.6843 -5.92447ZM17.8816 -5.34852C18.1797 -5.13594 18.5852 -4.76355 18.7381 -4.57218L20.0932 -5.6547C19.8135 -6.00481 19.2775 -6.48331 18.8886 -6.76064L17.8816 -5.34852ZM18.7225 -4.5923C18.9125 -4.33963 19.1905 -3.935 19.3285 -3.71362L20.8004 -4.63099C20.6331 -4.89951 20.3259 -5.34577 20.1088 -5.63458L18.7225 -4.5923ZM19.3285 -3.71362C19.4177 -3.57052 19.595 -3.13311 19.7037 -2.76583L21.3667 -3.25816C21.2464 -3.66442 21.0166 -4.28418 20.8004 -4.63099L19.3285 -3.71362ZM19.7014 -2.7738C19.8004 -2.42698 19.8716 -1.84565 19.8716 1.04908H21.6059C21.6059 -1.75458 21.5499 -2.6172 21.369 -3.25019L19.7014 -2.7738ZM20.5701 1.89971L21.7406 2.13177L22.0779 0.430512L20.9074 0.198451L20.5701 1.89971ZM21.7402 2.1317C22.3462 2.2521 23.443 2.55109 24.1551 2.78746L24.7015 1.14141C23.9378 0.887879 22.77 0.568032 22.0782 0.430583L21.7402 2.1317ZM24.1551 2.78746C24.8412 3.01522 25.9425 3.49808 26.569 3.82772L27.3766 2.29284C26.68 1.9263 25.4912 1.40356 24.7015 1.14141L24.1551 2.78746ZM26.5574 3.82152C27.1961 4.17003 28.1669 4.76885 28.675 5.13999L29.6981 3.73953C29.112 3.31134 28.0726 2.6725 27.3882 2.29904L26.5574 3.82152ZM28.675 5.13999C29.1763 5.50625 30.0954 6.31169 30.6685 6.89248L31.903 5.67424C31.2802 5.04315 30.2909 4.17259 29.6981 3.73953L28.675 5.13999ZM30.6621 6.88595C31.2445 7.48867 32.0389 8.40797 32.3984 8.9133L33.8117 7.90788C33.3824 7.30447 32.5229 6.31571 31.9094 5.68077L30.6621 6.88595ZM32.393 8.90562C32.7662 9.44232 33.3591 10.4182 33.7006 11.0608L35.2321 10.2469C34.8611 9.54868 34.2327 8.51338 33.8171 7.91555L32.393 8.90562ZM33.6946 11.0493C34.0319 11.7076 34.4583 12.6374 34.6183 13.0774L36.2483 12.4848C36.052 11.9449 35.5879 10.9409 35.2381 10.2584L33.6946 11.0493ZM34.6252 13.0958C34.7947 13.5309 35.0765 14.5046 35.2513 15.2382L36.9384 14.8363C36.7569 14.0744 36.4535 13.0111 36.2413 12.4663L34.6252 13.0958ZM35.2498 15.2322C35.4623 16.153 35.5601 16.9833 35.6099 18.4192L37.3432 18.3592C37.2911 16.8557 37.1854 15.9069 36.9398 14.8423L35.2498 15.2322ZM35.6098 18.418C35.6598 19.9245 35.6335 20.6651 35.4793 21.6748L37.1938 21.9366C37.3704 20.7804 37.395 19.9224 37.3432 18.3605L35.6098 18.418ZM35.4805 21.6672C35.3609 22.4066 35.0534 23.6681 34.8093 24.4472L36.4644 24.9657C36.7292 24.1204 37.0578 22.7777 37.1926 21.9442L35.4805 21.6672ZM34.8131 24.4355C34.5523 25.2283 34.1482 26.2523 33.9216 26.7L35.4691 27.4831C35.7515 26.9252 36.187 25.8091 36.4606 24.9774L34.8131 24.4355ZM33.9138 26.7158C33.6953 27.1702 33.1586 28.088 32.7262 28.739L34.1709 29.6986C34.6291 29.0087 35.2119 28.0185 35.4769 27.4673L33.9138 26.7158ZM32.7262 28.739C32.3104 29.365 31.5133 30.3603 30.9795 30.938L32.2535 32.115C32.8393 31.4808 33.6961 30.4134 34.1709 29.6986L32.7262 28.739ZM30.9859 30.9312C30.4592 31.4893 29.4896 32.36 28.8654 32.8344L29.9148 34.2152C30.6137 33.684 31.6543 32.7498 32.2471 32.1218L30.9859 30.9312ZM28.8569 32.8409C28.247 33.3163 27.0863 34.0361 26.3215 34.4298L27.1152 35.9719C27.9534 35.5404 29.21 34.7647 29.9232 34.2088L28.8569 32.8409ZM26.3314 34.4247C25.5589 34.8099 24.3942 35.2928 23.7885 35.4817L24.3047 37.1374C25.0221 36.9137 26.2748 36.391 27.1053 35.9769L26.3314 34.4247ZM23.7739 35.4864C23.1726 35.6856 22.2169 35.9216 20.6625 36.1757L20.9423 37.8873C22.5431 37.6257 23.5975 37.3719 24.3193 37.1327L23.7739 35.4864ZM19.9352 37.0253L19.8716 45.921L21.6059 45.9334L21.6695 37.0377L19.9352 37.0253ZM19.8716 45.9215C19.8461 49.786 19.8239 52.012 19.7861 53.3283C19.7671 53.9883 19.7446 54.4003 19.7183 54.6679C19.6913 54.9418 19.6649 55.0076 19.665 55.0073L21.2782 55.6441C21.3674 55.4182 21.4125 55.1616 21.4443 54.8377C21.4768 54.5075 21.5005 54.0459 21.5197 53.3781C21.5582 52.0385 21.5805 49.7909 21.6059 45.9329L19.8716 45.9215ZM19.6675 55.0011C19.5557 55.278 19.3932 55.6167 19.3087 55.7413L20.7439 56.715C20.9393 56.427 21.1585 55.9407 21.2757 55.6503L19.6675 55.0011ZM19.2882 55.7729C19.1809 55.9469 18.9216 56.3179 18.7254 56.5636L20.0804 57.6461C20.3167 57.3503 20.6172 56.922 20.7644 56.6834L19.2882 55.7729ZM18.7098 56.5837C18.5787 56.7581 18.1842 57.1241 17.8816 57.3399L18.8886 58.752C19.273 58.4779 19.82 57.9931 20.096 57.626L18.7098 56.5837ZM17.8937 57.3314C17.6113 57.5256 17.0528 57.7985 16.6843 57.9159L17.2106 59.5685C17.7327 59.4022 18.4464 59.0562 18.8764 58.7605L17.8937 57.3314ZM16.674 57.9192C16.4342 57.9989 16.2778 58.0681 14.0389 58.1007C11.8317 58.1328 7.70282 58.1328 -0.380619 58.1328V59.8672C7.69354 59.8672 11.8406 59.8672 14.0641 59.8349C16.2558 59.803 16.6846 59.7433 17.2209 59.5651L16.674 57.9192ZM-0.380619 58.1328C-8.20843 58.1328 -12.3451 58.1296 -14.6134 58.0991C-16.9316 58.0679 -17.1956 58.004 -17.3986 57.9404L-17.917 59.5955C-17.4203 59.7511 -16.87 59.8032 -14.6367 59.8333C-12.3536 59.864 -8.2015 59.8672 -0.380619 59.8672V58.1328ZM-17.3884 57.9437C-17.7151 57.8369 -18.2302 57.5941 -18.4888 57.4413L-19.3713 58.9343C-19.0192 59.1424 -18.3893 59.4412 -17.9272 59.5922L-17.3884 57.9437ZM-18.4519 57.4643C-18.6989 57.3011 -19.0967 56.9777 -19.2924 56.7794L-20.5269 57.9976C-20.2392 58.2891 -19.7464 58.6877 -19.4082 58.9113L-18.4519 57.4643ZM-19.2924 56.7794C-19.4878 56.5814 -19.7925 56.1931 -19.9386 55.9604L-21.4074 56.8827C-21.1974 57.2172 -20.8151 57.7056 -20.5269 57.9976L-19.2924 56.7794ZM-19.9386 55.9604C-20.0666 55.7566 -20.2947 55.2475 -20.4218 54.8613L-22.0693 55.4033C-21.9165 55.868 -21.6357 56.5192 -21.4074 56.8827L-19.9386 55.9604ZM-20.4232 54.8572C-20.4956 54.6405 -20.5686 54.5345 -20.601 50.7769C-20.6328 47.0946 -20.6328 40.006 -20.6328 25.9957H-22.3672C-22.3672 40.0004 -22.3672 47.0998 -22.3353 50.7919C-22.3041 54.4087 -22.2499 54.8634 -22.0679 55.4074L-20.4232 54.8572ZM-20.6328 25.9957C-20.6328 11.9854 -20.6328 4.89684 -20.601 1.21449C-20.5686 -2.54306 -20.4956 -2.64916 -20.4232 -2.86581L-22.0679 -3.41602C-22.2499 -2.87203 -22.3041 -2.41731 -22.3353 1.19953C-22.3672 4.89159 -22.3672 11.991 -22.3672 25.9957H-20.6328ZM-20.4218 -2.86995C-20.2947 -3.25615 -20.0666 -3.76525 -19.9386 -3.96897L-21.4074 -4.89133C-21.6357 -4.52779 -21.9165 -3.87658 -22.0693 -3.41189L-20.4218 -2.86995ZM-19.9386 -3.96897C-19.7925 -4.20175 -19.4878 -4.59002 -19.2924 -4.78796L-20.5269 -6.00619C-20.8151 -5.71421 -21.1974 -5.22581 -21.4074 -4.89133L-19.9386 -3.96897ZM-19.2924 -4.78796C-19.091 -4.99204 -18.711 -5.3079 -18.4919 -5.4633L-19.4954 -6.87792C-19.7852 -6.67234 -20.2449 -6.29201 -20.5269 -6.00619L-19.2924 -4.78796ZM-18.5082 -5.45203C-18.3282 -5.57366 -17.851 -5.79875 -17.4923 -5.90889L-18.0014 -7.56686C-18.4824 -7.41915 -19.1248 -7.12854 -19.4791 -6.88919L-18.5082 -5.45203ZM-17.4736 -5.91485C-17.2544 -5.98763 -17.0733 -6.05727 -14.8076 -6.09156C-12.58 -6.12528 -8.43806 -6.12853 -0.406063 -6.12853V-7.86291C-8.42988 -7.86291 -12.5894 -7.85971 -14.8338 -7.82574C-17.0401 -7.79235 -17.5014 -7.73307 -18.0201 -7.5609L-17.4736 -5.91485ZM-17.6468 -2.94198L-18.003 -2.55521L-16.7273 -1.38022L-16.3711 -1.76699L-17.6468 -2.94198ZM-18.2324 -1.969L-18.296 41.0784L-16.5616 41.081L-16.498 -1.96644L-18.2324 -1.969ZM-17.4288 41.9469H16.6676V40.2125H-17.4288V41.9469ZM17.2742 41.6993L21.409 37.6512L20.1957 36.4119L16.0609 40.46L17.2742 41.6993ZM14.036 35.6026C13.5259 35.4616 12.5892 35.1173 12.0013 34.8498L11.283 36.4285C11.942 36.7283 12.9645 37.1059 13.574 37.2743L14.036 35.6026ZM11.9818 34.8412C11.3921 34.5903 10.4895 34.1088 9.99878 33.8056L9.08711 35.281C9.63964 35.6224 10.62 36.1466 11.3026 36.4371L11.9818 34.8412ZM9.99878 33.8056C9.49663 33.4953 8.74553 32.9832 8.35347 32.6822L7.29734 34.058C7.74497 34.4016 8.54602 34.9467 9.08711 35.281L9.99878 33.8056ZM8.35347 32.6822C7.98326 32.398 7.19077 31.66 6.59789 31.0592L5.3634 32.2774C5.96642 32.8885 6.82786 33.6976 7.29734 34.058L8.35347 32.6822ZM6.59789 31.0592C6.04276 30.4967 5.18538 29.4307 4.71463 28.7335L3.27723 29.704C3.79883 30.4766 4.72261 31.6281 5.3634 32.2774L6.59789 31.0592ZM4.71851 28.7393C4.23993 28.0181 3.65174 26.9851 3.40643 26.4642L1.83737 27.2032C2.1264 27.8169 2.75957 28.924 3.27335 29.6982L4.71851 28.7393ZM3.40643 26.4642C3.15413 25.9285 2.78484 25.0057 2.59153 24.4303L0.947445 24.9826C1.16125 25.6191 1.55532 26.6044 1.83737 27.2032L3.40643 26.4642ZM2.59662 24.446C2.41189 23.8594 2.15288 22.9078 2.03293 22.3366L0.335569 22.693C0.470076 23.3336 0.745409 24.3417 0.94235 24.967L2.59662 24.446ZM2.03249 22.3345C1.87477 21.5924 1.82243 20.8461 1.82243 19.0339H0.0880585C0.0880585 20.8572 0.137503 21.7611 0.336012 22.6951L2.03249 22.3345ZM1.82243 19.0339C1.82243 17.2183 1.88653 16.4798 2.04521 15.7332L0.348732 15.3726C0.151178 16.3021 0.0880585 17.188 0.0880585 19.0339H1.82243ZM2.04565 15.7311C2.16377 15.1686 2.45828 14.1335 2.69207 13.4477L1.05046 12.888C0.800802 13.6204 0.484627 14.7254 0.348289 15.3747L2.04565 15.7311ZM2.69207 13.4477C2.92379 12.7679 3.30434 11.8494 3.51407 11.4243L1.95872 10.6569C1.71045 11.1601 1.3022 12.1496 1.05046 12.888L2.69207 13.4477ZM3.51407 11.4243C3.72129 11.0044 4.24717 10.1095 4.68012 9.45765L3.2354 8.49805C2.77777 9.18703 2.20952 10.1486 1.95872 10.6569L3.51407 11.4243ZM4.68408 9.45164C5.13916 8.754 5.93809 7.79276 6.78043 6.92663L5.53708 5.71744C4.64915 6.63045 3.76872 7.68041 3.23144 8.50406L4.68408 9.45164ZM6.77154 6.93564C7.62636 6.08196 8.57461 5.27273 9.26221 4.81215L8.29699 3.37118C7.48333 3.9162 6.44686 4.80875 5.54597 5.70843L6.77154 6.93564ZM9.26823 4.80808C9.89626 4.37973 10.8878 3.8098 11.4413 3.54727L10.698 1.98024C10.0556 2.28498 8.98608 2.90114 8.29096 3.37525L9.26823 4.80808ZM11.4413 3.54727C12.0163 3.27454 12.9728 2.87776 13.5636 2.6862L13.0286 1.0364C12.3471 1.25739 11.3189 1.68571 10.698 1.98024L11.4413 3.54727ZM13.5685 2.68458C14.1502 2.49212 15.1461 2.24216 15.749 2.11747L15.3978 0.419033C14.7539 0.552188 13.6888 0.817916 13.0237 1.03801L13.5685 2.68458ZM21.6056 1.02349C21.5459 -0.997265 20.112 -1.96993 18.9087 -2.45331C18.3057 -2.69557 17.701 -2.84273 17.2642 -2.94839C17.0333 -3.00424 16.8697 -3.04367 16.7481 -3.0805C16.6888 -3.09845 16.6623 -3.10917 16.6565 -3.11175C16.6387 -3.11967 16.7088 -3.09337 16.7919 -3.0117L15.5763 -1.77462C15.7119 -1.64139 15.8628 -1.56665 15.9505 -1.52757C16.0501 -1.48318 16.1536 -1.44836 16.2453 -1.42059C16.4257 -1.36596 16.6477 -1.31313 16.8565 -1.26262C17.2991 -1.15556 17.7902 -1.03359 18.2622 -0.843955C19.2091 -0.463551 19.8425 0.0786271 19.872 1.07467L21.6056 1.02349ZM16.8106 -2.99272L16.4035 -3.41816L15.1504 -2.21906L15.5576 -1.79361L16.8106 -2.99272ZM15.7779 -3.6858C3.43066 -3.69869 -4.5694 -3.70191 -9.50192 -3.69708C-11.9679 -3.69466 -13.6685 -3.69023 -14.7626 -3.68397C-15.3093 -3.68084 -15.7069 -3.67725 -15.9736 -3.67318C-16.1064 -3.67116 -16.2107 -3.66896 -16.2862 -3.6665C-16.3232 -3.66529 -16.3589 -3.66385 -16.3899 -3.66197C-16.4049 -3.66105 -16.4251 -3.65967 -16.4467 -3.6575C-16.453 -3.65687 -16.5146 -3.6515 -16.5858 -3.63346L-16.1599 -1.95219C-16.2513 -1.92903 -16.3314 -1.92794 -16.2846 -1.93079C-16.2775 -1.93122 -16.2605 -1.93204 -16.2297 -1.93304C-16.1693 -1.93501 -16.0769 -1.93703 -15.9472 -1.93901C-15.6889 -1.94295 -15.298 -1.94651 -14.7527 -1.94962C-13.6629 -1.95586 -11.9658 -1.96029 -9.50022 -1.9627C-4.56962 -1.96754 3.4289 -1.96432 15.7761 -1.95142L15.7779 -3.6858ZM-16.5172 -3.6479C-16.7963 -3.60078 -17.0424 -3.44302 -17.171 -3.35375C-17.334 -3.24065 -17.5035 -3.09688 -17.6455 -2.9434L-16.3724 -1.76558C-16.3236 -1.81837 -16.2514 -1.88088 -16.1821 -1.92894C-16.1485 -1.95225 -16.1267 -1.96446 -16.119 -1.9683C-16.1157 -1.97001 -16.1213 -1.96693 -16.135 -1.96182C-16.1472 -1.95733 -16.1798 -1.94597 -16.2284 -1.93775L-16.5172 -3.6479ZM14.3947 7.63357C14.1387 8.06591 13.7401 8.89061 13.4907 9.47589L15.0862 10.1558C15.3203 9.60658 15.685 8.85841 15.8871 8.51721L14.3947 7.63357ZM13.4907 9.47589C13.2268 10.0951 12.8579 11.2349 12.6474 12.0481L14.3264 12.4827C14.5231 11.723 14.8666 10.6711 15.0862 10.1558L13.4907 9.47589ZM12.6474 12.0481C12.4371 12.8604 12.1752 14.1321 12.0679 14.9203L13.7864 15.1542C13.8827 14.4469 14.1296 13.2432 14.3264 12.4827L12.6474 12.0481ZM12.0699 14.906C12.0115 15.2878 11.9594 15.667 11.9217 15.9743C11.8874 16.2539 11.8564 16.5389 11.8564 16.6875H13.5908C13.5908 16.6934 13.5919 16.6555 13.6024 16.5481C13.6116 16.4535 13.6254 16.3302 13.6432 16.1855C13.6786 15.8965 13.7283 15.5344 13.7843 15.1685L12.0699 14.906ZM11.8564 16.6875C11.8564 16.7092 11.8548 16.8085 11.8708 16.9129C11.8897 17.0357 11.9389 17.2174 12.0782 17.3921C12.3393 17.7195 12.7194 17.7751 12.8522 17.7941C13.1796 17.8409 13.7632 17.8383 14.6956 17.8383V16.1039C14.2027 16.1039 13.8428 16.1039 13.5748 16.0996C13.296 16.0951 13.161 16.0862 13.0975 16.0772C13.0671 16.0728 13.0948 16.0738 13.1485 16.0949C13.209 16.1187 13.3288 16.1786 13.4342 16.3108C13.5417 16.4455 13.5745 16.5808 13.5851 16.6493C13.5928 16.6994 13.5908 16.7366 13.5908 16.6875H11.8564ZM14.6956 17.8383H16.6676V16.1039H14.6956V17.8383ZM17.5347 16.9711C17.5347 12.7742 17.5284 10.0648 17.5188 8.40399C17.5141 7.57408 17.5085 7.00343 17.5024 6.63903C17.4994 6.45783 17.4962 6.32243 17.4927 6.22995C17.4911 6.1857 17.489 6.14071 17.4859 6.10213C17.4847 6.08663 17.4817 6.05037 17.4749 6.00908C17.4726 5.99475 17.4636 5.93879 17.4413 5.87132C17.4321 5.84356 17.4031 5.75769 17.3395 5.66203C17.3037 5.60816 17.0773 5.27436 16.6167 5.27436V7.00873C16.1565 7.00873 15.9304 6.67523 15.895 6.62196C15.8318 6.52689 15.8032 6.44192 15.7944 6.41536C15.7729 6.3503 15.7647 6.29796 15.7632 6.2885C15.7601 6.26979 15.7586 6.25591 15.758 6.25066C15.7573 6.24432 15.757 6.24036 15.757 6.23979C15.7569 6.23886 15.7572 6.24274 15.7578 6.25347C15.7583 6.26362 15.7589 6.27737 15.7596 6.29532C15.7624 6.36888 15.7653 6.48942 15.7683 6.66779C15.7742 7.02253 15.7797 7.58561 15.7845 8.41397C15.794 10.0697 15.8004 12.7751 15.8004 16.9711H17.5347ZM16.6167 5.27436C16.4456 5.27436 16.319 5.32536 16.2758 5.34365C16.2187 5.3678 16.1755 5.39322 16.1518 5.40799C16.1037 5.43785 16.0672 5.46675 16.0497 5.48105C16.0111 5.51243 15.9772 5.54439 15.9544 5.56652C15.905 5.61432 15.8491 5.67313 15.7925 5.73491C15.6772 5.8609 15.5316 6.02977 15.3811 6.21696L16.7327 7.30378C16.8621 7.14289 16.9836 7.00234 17.0719 6.90594C17.1171 6.85652 17.147 6.82589 17.1613 6.81205C17.1703 6.80336 17.1626 6.81145 17.1439 6.82666C17.1363 6.83288 17.1082 6.85562 17.0668 6.88135C17.0463 6.89405 17.0061 6.91791 16.9514 6.94101C16.9232 6.95294 16.8827 6.96832 16.8323 6.98134C16.7836 6.99393 16.7089 7.00873 16.6167 7.00873V5.27436ZM15.3912 6.20455C15.0753 6.58297 14.6419 7.21601 14.3947 7.63357L15.8871 8.51721C16.0978 8.16123 16.4787 7.60818 16.7225 7.31619L15.3912 6.20455ZM20.7388 17.8383C22.317 17.8383 23.3415 17.8318 23.9733 17.8204C24.2871 17.8147 24.5145 17.8076 24.6679 17.7987C24.7406 17.7945 24.8178 17.7887 24.8857 17.7792C24.9131 17.7753 24.9798 17.7655 25.0552 17.7422C25.0866 17.7325 25.1776 17.7034 25.2781 17.6384C25.3402 17.5983 25.6772 17.3709 25.6772 16.9066H23.9428C23.9428 16.4448 24.278 16.2198 24.3363 16.182C24.4332 16.1194 24.5187 16.0927 24.5427 16.0853C24.5779 16.0743 24.6052 16.0687 24.617 16.0663C24.6307 16.0636 24.6401 16.0623 24.6432 16.0618C24.6487 16.0611 24.6296 16.0637 24.5672 16.0673C24.4502 16.0741 24.2514 16.0807 23.9419 16.0863C23.3268 16.0974 22.3157 16.1039 20.7388 16.1039V17.8383ZM25.6772 16.9066C25.6772 16.8736 25.6752 16.8467 25.6748 16.8404C25.674 16.8291 25.6731 16.819 25.6724 16.8117C25.671 16.797 25.6694 16.7814 25.6678 16.7672C25.6646 16.738 25.6601 16.7009 25.6549 16.6585C25.6443 16.5731 25.6292 16.4565 25.6107 16.3181C25.5737 16.0407 25.5223 15.6699 25.4646 15.2733L23.7483 15.5232C23.805 15.913 23.8554 16.277 23.8916 16.5476C23.9097 16.6831 23.924 16.7938 23.9337 16.8719C23.9385 16.9113 23.942 16.9401 23.944 16.9588C23.9495 17.0082 23.9428 16.9624 23.9428 16.9066H25.6772ZM25.4667 15.2887C25.3601 14.4518 25.1115 13.1801 24.9258 12.4409L23.2437 12.8634C23.4143 13.5424 23.6492 14.746 23.7462 15.5078L25.4667 15.2887ZM24.9293 12.4552C24.7576 11.719 24.4667 10.7494 24.2824 10.2752L22.6658 10.9036C22.8123 11.2803 23.0812 12.1671 23.2403 12.8491L24.9293 12.4552ZM24.2903 10.2965C24.123 9.83027 23.7901 9.07668 23.552 8.59414L21.9967 9.36157C22.2166 9.80727 22.5198 10.4976 22.6579 10.8823L24.2903 10.2965ZM23.552 8.59414C23.3017 8.08687 22.847 7.32893 22.5347 6.87489L21.1057 7.85774C21.3786 8.25459 21.789 8.94059 21.9967 9.36157L23.552 8.59414ZM22.5347 6.87489C22.2399 6.44632 21.8249 5.91207 21.5961 5.69956L20.4157 6.97029C20.4143 6.96898 20.4214 6.9756 20.4386 6.994C20.4547 7.0113 20.4754 7.03433 20.5005 7.06336C20.5509 7.12156 20.6122 7.196 20.6805 7.28231C20.8173 7.45525 20.9711 7.6621 21.1057 7.85774L22.5347 6.87489ZM21.5935 5.69713L21.3136 5.43928L20.1385 6.71488L20.4184 6.97273L21.5935 5.69713ZM19.8589 6.07809L19.8716 16.9721L21.6059 16.9701L21.5932 6.07607L19.8589 6.07809ZM7.26107 10.0017C6.93643 10.4308 6.41939 11.2533 6.08392 11.8286L7.58217 12.7022C7.90828 12.143 8.3836 11.3926 8.64419 11.0481L7.26107 10.0017ZM6.07665 11.8413C5.72607 12.4665 5.24644 13.5908 4.9901 14.3837L6.64039 14.9172C6.8675 14.2147 7.3039 13.1988 7.58945 12.6895L6.07665 11.8413ZM4.9901 14.3837C4.74773 15.1335 4.50332 16.0042 4.44136 16.3339L6.14589 16.6543C6.18571 16.4424 6.39931 15.663 6.64039 14.9172L4.9901 14.3837ZM4.43733 16.357L4.361 16.8341L6.07358 17.1081L6.14992 16.6311L4.43733 16.357ZM5.21729 17.8383H8.52514V16.1039H5.21729V17.8383ZM9.38805 17.0572C9.50108 15.9245 9.6388 14.8601 9.78796 13.9532L8.07657 13.6717C7.92039 14.6213 7.77821 15.7229 7.66224 16.885L9.38805 17.0572ZM9.78976 13.9417C9.92504 13.0445 10.1977 11.779 10.377 11.1491L8.70889 10.6743C8.50652 11.3852 8.21938 12.724 8.07477 13.6832L9.78976 13.9417ZM10.377 11.1491C10.5627 10.4968 10.8618 9.57545 11.0322 9.10656L9.40225 8.51394C9.21649 9.02487 8.90489 9.98576 8.70889 10.6743L10.377 11.1491ZM11.0366 9.09433C11.1201 8.85332 11.1953 8.63162 11.2486 8.46792C11.2747 8.38752 11.298 8.31384 11.3147 8.25669C11.3221 8.23116 11.3329 8.19297 11.3417 8.15403C11.3446 8.1411 11.3557 8.09191 11.3614 8.03095C11.3631 8.01248 11.3727 7.91854 11.3528 7.80173C11.3437 7.74862 11.3152 7.6031 11.2091 7.45087C11.0763 7.26038 10.8289 7.07928 10.4971 7.07928V8.81365C10.3533 8.81365 10.204 8.77769 10.0671 8.69943C9.93466 8.62374 9.84448 8.52623 9.78621 8.44262C9.68037 8.29078 9.65202 8.14582 9.64309 8.09345C9.62341 7.97813 9.63298 7.88642 9.63442 7.8709C9.63952 7.81584 9.64911 7.77543 9.64943 7.774C9.65301 7.75808 9.65468 7.75384 9.64939 7.77202C9.64058 7.80229 9.62411 7.85511 9.59939 7.93103C9.5509 8.07998 9.47973 8.29016 9.39791 8.52617L11.0366 9.09433ZM10.4971 7.07928C10.2735 7.07928 10.1101 7.17028 10.1098 7.17042C10.0664 7.19204 10.0341 7.21272 10.0204 7.22169C9.9903 7.24135 9.96732 7.25903 9.95871 7.2657C9.93797 7.28175 9.91969 7.29721 9.90921 7.30616C9.88556 7.32634 9.85773 7.35107 9.82958 7.3764C9.77165 7.42853 9.69252 7.50115 9.59942 7.58736C9.4123 7.76063 9.15896 7.99786 8.8845 8.25658L10.0742 9.51863C10.3468 9.26166 10.596 9.02831 10.7778 8.85994C10.8692 8.77533 10.9411 8.70936 10.9898 8.66561C11.0149 8.64299 11.0292 8.63045 11.0352 8.62535C11.0395 8.62166 11.0329 8.62747 11.0205 8.63704C11.0161 8.64047 10.9965 8.6557 10.9689 8.67372C10.9564 8.68186 10.9252 8.70193 10.8826 8.72314C10.8612 8.73378 10.8233 8.75161 10.7738 8.76829C10.7338 8.78176 10.632 8.81365 10.4971 8.81365V7.07928ZM8.89252 8.24912C8.30932 8.78512 7.60394 9.5671 7.27199 9.98759L8.63327 11.0623C8.912 10.7092 9.5552 9.99569 10.0661 9.52609L8.89252 8.24912ZM26.7374 9.90279C26.9522 10.5316 27.2751 11.7484 27.4625 12.5841L29.1548 12.2045C28.9606 11.3384 28.6219 10.0542 28.3787 9.34214L26.7374 9.90279ZM27.4625 12.5841C27.6453 13.3991 27.8436 14.6671 27.9167 15.3832L29.6421 15.207C29.5625 14.4275 29.3537 13.0913 29.1548 12.2045L27.4625 12.5841ZM27.9167 15.3832C27.955 15.7581 27.9938 16.1226 28.0282 16.4066C28.0453 16.5478 28.0622 16.6761 28.0781 16.7787C28.086 16.8293 28.0948 16.8816 28.1046 16.9296C28.1098 16.9547 28.1291 17.0539 28.1715 17.1542L29.7689 16.4786C29.8018 16.5563 29.8104 16.6144 29.8038 16.5819C29.8018 16.5724 29.7978 16.5506 29.792 16.5128C29.7805 16.4385 29.7663 16.3323 29.75 16.198C29.7176 15.9309 29.6802 15.5798 29.6421 15.207L27.9167 15.3832ZM28.1232 17.0021C28.1863 17.29 28.3656 17.4684 28.4945 17.5609C28.6171 17.6489 28.739 17.6937 28.8153 17.7174C28.9692 17.7654 29.1387 17.7874 29.2856 17.8008C29.5937 17.829 30.0404 17.8383 30.6369 17.8383V16.1039C30.0374 16.1039 29.6635 16.0938 29.4437 16.0737C29.3266 16.0629 29.3052 16.0535 29.3312 16.0616C29.3434 16.0654 29.417 16.0881 29.5057 16.1518C29.6007 16.22 29.7605 16.3718 29.8173 16.6306L28.1232 17.0021ZM30.6369 17.8383H32.2526V16.1039H30.6369V17.8383ZM33.1089 16.8341C32.9508 15.8461 32.778 15.129 32.6285 14.6057L30.9608 15.082C31.0912 15.5385 31.2491 16.188 31.3964 17.1081L33.1089 16.8341ZM32.6225 14.5858C32.4532 14.0424 32.0388 13.0295 31.6758 12.3212L30.1323 13.1121C30.4564 13.7446 30.8307 14.6655 30.9667 15.1019L32.6225 14.5858ZM31.6817 12.3329C31.3209 11.6016 30.6122 10.5057 30.1075 9.86976L28.749 10.948C29.1857 11.4982 29.8257 12.4909 30.1264 13.1003L31.6817 12.3329ZM30.1075 9.86976C29.6095 9.24246 28.8132 8.39398 28.3281 7.95861L27.1696 9.24934C27.5751 9.6133 28.3055 10.3892 28.749 10.948L30.1075 9.86976ZM28.3218 7.95297C28.0738 7.73479 27.8418 7.54616 27.6622 7.42866C27.6152 7.39788 27.5573 7.36242 27.4939 7.33072C27.4503 7.30899 27.3214 7.24542 27.1529 7.22587C27.0658 7.21577 26.8873 7.20721 26.6876 7.29513C26.4511 7.39929 26.2808 7.59691 26.2052 7.82696C26.1415 8.02038 26.1605 8.1857 26.1747 8.2658C26.1904 8.35476 26.2163 8.42572 26.2344 8.46963L27.8384 7.81007C27.8485 7.83464 27.8693 7.88898 27.8826 7.96399C27.8943 8.03013 27.9135 8.18416 27.8527 8.36889C27.7799 8.59025 27.6151 8.78179 27.3866 8.88242C27.195 8.96681 27.027 8.95727 26.953 8.94868C26.8704 8.93911 26.8097 8.91905 26.7819 8.90903C26.7505 8.89768 26.7286 8.88717 26.719 8.88236C26.7006 8.87317 26.697 8.86973 26.7127 8.88005C26.7844 8.92693 26.9404 9.04771 27.176 9.25498L28.3218 7.95297ZM26.2202 8.43275C26.2715 8.57566 26.5109 9.23976 26.7374 9.90279L28.3787 9.34214C28.1471 8.66437 27.9031 7.98767 27.8526 7.84695L26.2202 8.43275ZM4.43578 21.7135C4.46489 21.9101 4.55285 22.2383 4.64466 22.5577C4.74316 22.9004 4.86689 23.3028 4.9901 23.684L6.64039 23.1505C6.52188 22.7839 6.40388 22.3999 6.31154 22.0786C6.26531 21.9178 6.22659 21.7764 6.19777 21.6628C6.18336 21.6061 6.17214 21.5591 6.16394 21.5219C6.15987 21.5034 6.15684 21.4887 6.15466 21.4774C6.15359 21.4718 6.15281 21.4675 6.15226 21.4643C6.15199 21.4628 6.15179 21.4616 6.15166 21.4608C6.15152 21.4599 6.15146 21.4595 6.15146 21.4595L4.43578 21.7135ZM4.9901 23.684C5.24644 24.4769 5.72607 25.6012 6.07665 26.2264L7.58945 25.3782C7.3039 24.8689 6.8675 23.853 6.64039 23.1505L4.9901 23.684ZM6.07665 26.2264C6.40757 26.8166 6.86992 27.5408 7.09544 27.855L8.50448 26.8438C8.32289 26.5907 7.89465 25.9225 7.58945 25.3782L6.07665 26.2264ZM7.11039 27.8752C7.35372 28.1943 7.87396 28.7874 8.27999 29.2121L9.53365 28.0136C9.15088 27.6132 8.67877 27.0717 8.48953 26.8236L7.11039 27.8752ZM8.27027 29.2017C8.66253 29.6257 9.23548 30.1832 9.56006 30.4338L10.62 29.0609C10.4102 28.899 9.91446 28.425 9.54337 28.0239L8.27027 29.2017ZM9.55068 30.4264L10.0214 30.8003L11.1001 29.4422L10.6294 29.0683L9.55068 30.4264ZM11.3725 29.8161C10.8668 28.4711 10.5583 27.5555 10.377 26.9186L8.70889 27.3934C8.90927 28.0973 9.23686 29.064 9.74903 30.4264L11.3725 29.8161ZM10.377 26.9186C10.1977 26.2887 9.92504 25.0232 9.78976 24.126L8.07477 24.3845C8.21938 25.3437 8.50652 26.6825 8.70889 27.3934L10.377 26.9186ZM9.78796 24.1145C9.6375 23.1997 9.50055 22.1369 9.46474 21.7619L7.73822 21.9268C7.77874 22.3511 7.92169 23.4543 8.07657 24.396L9.78796 24.1145ZM9.46418 21.7563L9.38785 21.0086L7.66244 21.1847L7.73878 21.9324L9.46418 21.7563ZM8.52514 20.2294H5.20457V21.9638H8.52514V20.2294ZM4.35136 21.2517L4.44042 21.7416L6.14683 21.4314L6.05777 20.9415L4.35136 21.2517ZM12.0681 23.1623C12.1749 23.933 12.4232 25.163 12.6077 25.8975L14.2898 25.475C14.1181 24.7914 13.8829 23.6235 13.7861 22.9244L12.0681 23.1623ZM12.6077 25.8975C12.7962 26.6478 13.1771 27.8045 13.4554 28.5161L15.0706 27.8845C14.8145 27.2294 14.4576 26.143 14.2898 25.475L12.6077 25.8975ZM13.4628 28.5344C13.7455 29.2117 14.1737 30.1273 14.4395 30.5613L15.9185 29.6554C15.7263 29.3417 15.3403 28.5297 15.0632 27.8662L13.4628 28.5344ZM14.4328 30.5502C14.6931 30.9897 15.161 31.6169 15.4912 31.9805L16.7753 30.8147C16.5202 30.5337 16.123 30.0005 15.9252 29.6665L14.4328 30.5502ZM15.4828 31.9711L16.0171 32.5771L17.318 31.4299L16.7836 30.824L15.4828 31.9711ZM17.5347 32.0045L17.5475 21.1105L15.8131 21.1085L15.8004 32.0025L17.5347 32.0045ZM16.6803 20.2423C14.7386 20.2423 13.7069 20.2417 13.1721 20.28C13.0333 20.2899 12.8998 20.3042 12.779 20.3281C12.6687 20.35 12.4988 20.3926 12.3338 20.4978C12.1298 20.6277 11.9815 20.8216 11.9129 21.0536C11.8627 21.2235 11.8691 21.3869 11.8691 21.3931H13.6035C13.6035 21.3285 13.6103 21.4299 13.5761 21.5454C13.5236 21.7231 13.4071 21.8705 13.2656 21.9606C13.1632 22.0258 13.0869 22.0352 13.1163 22.0294C13.1352 22.0256 13.1875 22.0177 13.2961 22.0099C13.7504 21.9774 14.6907 21.9767 16.6803 21.9767V20.2423ZM11.8691 21.3931C11.8691 21.5336 11.9 21.8205 11.9322 22.0964C11.968 22.4028 12.0164 22.7823 12.0679 23.1603L13.7864 22.9264C13.7361 22.5566 13.6891 22.1884 13.6549 21.8953C13.6377 21.7485 13.6242 21.6236 13.615 21.5282C13.6044 21.4181 13.6035 21.3835 13.6035 21.3931H11.8691ZM21.4028 32.5902C22.4666 31.4323 23.0708 30.565 23.4503 29.7959L21.8949 29.0284C21.6128 29.6001 21.1228 30.3315 20.1256 31.4168L21.4028 32.5902ZM23.4408 29.8144C23.7881 29.1511 24.2113 28.1875 24.4036 27.6586L22.7736 27.066C22.6097 27.5168 22.2186 28.4097 21.9044 29.0099L23.4408 29.8144ZM24.4124 27.6333C24.5884 27.098 24.8885 25.999 25.0718 25.163L23.3777 24.7914C23.2048 25.5799 22.9196 26.621 22.7648 27.0913L24.4124 27.6333ZM25.0724 25.1602C25.2507 24.3342 25.4386 23.3116 25.4821 22.8707L23.7561 22.7003C23.7233 23.033 23.555 23.97 23.3771 24.7942L25.0724 25.1602ZM25.4794 22.895C25.5302 22.4959 25.5955 21.9543 25.6225 21.6677L23.8957 21.5054C23.8717 21.7602 23.8098 22.2758 23.7589 22.676L25.4794 22.895ZM25.6187 21.7012L25.6823 21.2241L23.9631 20.9949L23.8995 21.4719L25.6187 21.7012ZM24.8227 20.2423H20.7515V21.9767H24.8227V20.2423ZM19.8843 21.1105L19.897 32.0045L21.6314 32.0025L21.6187 21.1085L19.8843 21.1105ZM28.0021 21.8446C28.0107 22.0354 27.9475 22.7709 27.8447 23.4874L29.5614 23.7338C29.6622 23.0322 29.7516 22.1432 29.7348 21.7668L28.0021 21.8446ZM27.8447 23.4874C27.7481 24.1603 27.4875 25.4461 27.2759 26.3037L28.9598 26.7191C29.1808 25.8233 29.4545 24.4791 29.5614 23.7338L27.8447 23.4874ZM27.2752 26.3065C27.0632 27.1784 26.7306 28.2827 26.5479 28.7457L28.1611 29.3825C28.3854 28.8141 28.7399 27.6236 28.9605 26.7163L27.2752 26.3065ZM26.5479 28.7457C26.437 29.0265 26.3477 29.2941 26.2934 29.5064C26.2681 29.6048 26.2405 29.729 26.2307 29.8499C26.2269 29.8973 26.2177 30.0254 26.2526 30.1732C26.27 30.2468 26.3154 30.4016 26.4445 30.5521C26.5995 30.7329 26.8373 30.8595 27.1128 30.8595V29.1251C27.3803 29.1251 27.6114 29.2485 27.761 29.423C27.8847 29.5672 27.9259 29.7127 27.9404 29.7739C27.9696 29.8971 27.9595 29.989 27.9594 29.9896C27.9572 30.0171 27.9558 30.0059 27.9735 29.9368C28.005 29.8139 28.0684 29.6174 28.1611 29.3825L26.5479 28.7457ZM27.1128 30.8595C27.3117 30.8595 27.4597 30.7904 27.4912 30.7761C27.5487 30.75 27.5954 30.7221 27.6245 30.7038C27.6846 30.6661 27.7415 30.6235 27.7876 30.5876C27.8832 30.5129 27.9964 30.4156 28.1156 30.3084C28.3571 30.0913 28.6624 29.7984 28.9768 29.4798L27.7423 28.2616C27.4461 28.5618 27.1661 28.8298 26.9559 29.0187C26.8493 29.1146 26.7701 29.1816 26.7202 29.2206C26.6935 29.2414 26.6894 29.243 26.7018 29.2352C26.7072 29.2319 26.7334 29.2154 26.7741 29.1969C26.7886 29.1903 26.9233 29.1251 27.1128 29.1251V30.8595ZM28.9768 29.4798C29.611 28.8372 30.4208 27.8723 30.7845 27.2973L29.3188 26.3701C29.0464 26.8007 28.3295 27.6665 27.7423 28.2616L28.9768 29.4798ZM30.7703 27.319C31.1221 26.798 31.5746 26.0164 31.809 25.5414L30.2536 24.774C30.0554 25.1757 29.6427 25.8896 29.3329 26.3484L30.7703 27.319ZM31.8135 25.532C32.0307 25.0782 32.3356 24.3394 32.4991 23.8701L30.8612 23.2996C30.7193 23.707 30.439 24.3863 30.249 24.7834L31.8135 25.532ZM32.4991 23.8701C32.6654 23.3926 32.8777 22.6107 32.9852 22.1204L31.2911 21.7489C31.195 22.1868 31.0002 22.9004 30.8612 23.2996L32.4991 23.8701ZM32.9837 22.1272L33.1745 21.2892L31.4834 20.9041L31.2926 21.7421L32.9837 22.1272ZM32.329 20.2294C31.059 20.2294 30.2208 20.2423 29.688 20.2606C29.423 20.2696 29.2243 20.2803 29.0819 20.2924C29.0121 20.2983 28.9431 20.3055 28.8811 20.3154C28.8507 20.3202 28.809 20.3276 28.7634 20.3393C28.7391 20.3455 28.6269 20.373 28.507 20.4459L29.408 21.9278C29.2961 21.9959 29.1974 22.0185 29.1927 22.0197C29.1784 22.0233 29.1677 22.0255 29.1622 22.0266C29.1563 22.0278 29.1529 22.0283 29.1525 22.0284C29.1522 22.0284 29.1581 22.0275 29.172 22.026C29.1856 22.0244 29.204 22.0226 29.2283 22.0205C29.3284 22.0121 29.4939 22.0026 29.7473 21.9939C30.2514 21.9767 31.0672 21.9638 32.329 21.9638V20.2294ZM28.4114 20.5132C28.1882 20.6942 28.1111 20.9325 28.0916 20.9913C28.0576 21.0943 28.038 21.1968 28.0259 21.2816C28.0011 21.4552 27.9939 21.6516 28.0021 21.8429L29.7348 21.7685C29.7303 21.6633 29.7358 21.576 29.7428 21.5272C29.7466 21.5009 29.7477 21.5075 29.7383 21.5359C29.7335 21.5504 29.7207 21.5869 29.6947 21.6341C29.6812 21.6586 29.6611 21.6917 29.6325 21.7287C29.6043 21.7653 29.5623 21.8129 29.5036 21.8605L28.4114 20.5132ZM-17.9697 54.5811L-17.1427 55.4191L-15.9082 54.2009L-16.7352 53.3629L-17.9697 54.5811ZM-16.5255 55.6772C-0.472292 55.6772 7.60515 55.6772 11.7031 55.6449C13.7444 55.6289 14.822 55.6047 15.409 55.5666C15.6926 55.5481 15.9198 55.5236 16.1008 55.4762C16.2019 55.4498 16.3105 55.411 16.4188 55.3484C16.5295 55.2845 16.604 55.2154 16.6317 55.19L15.4566 53.9144C15.4493 53.9211 15.4896 53.8823 15.5513 53.8466C15.6105 53.8124 15.6552 53.8001 15.662 53.7983C15.6653 53.7974 15.6439 53.8031 15.5792 53.8111C15.5164 53.819 15.426 53.8274 15.2965 53.8359C14.7679 53.8702 13.7416 53.8945 11.6894 53.9106C7.60037 53.9428 -0.467064 53.9428 -16.5255 53.9428V55.6772ZM16.6086 55.2105C16.8958 54.9642 17.1774 54.5427 17.3118 54.1925L15.6925 53.5711C15.6786 53.6074 15.6421 53.6792 15.5861 53.7611C15.5601 53.7991 15.5347 53.8322 15.5127 53.858C15.4893 53.8855 15.4775 53.8957 15.4797 53.8938L16.6086 55.2105ZM17.2976 54.2271C17.3844 54.0272 17.4244 53.7996 17.4499 53.5886C17.4774 53.362 17.4964 53.0757 17.5102 52.718C17.538 52.0011 17.5475 50.9279 17.5475 49.3308H15.8131C15.8131 50.9309 15.8035 51.9721 15.7772 52.6508C15.764 52.9908 15.7472 53.2227 15.7281 53.38C15.7072 53.5529 15.6899 53.5752 15.7067 53.5364L17.2976 54.2271ZM17.5475 49.3308V45.2052H15.8131V49.3308H17.5475ZM16.6803 44.3381H-17.4288V46.0724H16.6803V44.3381ZM-18.2959 45.2128L-18.2196 53.9796L-16.4853 53.9645L-16.5616 45.1977L-18.2959 45.2128ZM-0.38405 1.73577C1.2652 1.7423 2.07205 1.74596 2.53405 1.78015C2.75678 1.79663 2.84655 1.81729 2.88696 1.82973C2.9151 1.8384 2.94016 1.84805 3.03948 1.90789L3.93457 0.422336C3.79852 0.340361 3.62956 0.243649 3.39729 0.172139C3.17729 0.104407 2.94025 0.0710859 2.66203 0.0505004C2.12213 0.0105529 1.23053 0.00777197 -0.377186 0.0014081L-0.38405 1.73577ZM3.03651 1.90609C3.08342 1.93461 3.17415 2.0053 3.27531 2.10782C3.37806 2.21194 3.44018 2.29677 3.45925 2.33016L4.96518 1.46979C4.8443 1.25822 4.67105 1.05298 4.5098 0.889582C4.34697 0.724583 4.14508 0.55032 3.93755 0.424136L3.03651 1.90609ZM3.45005 2.31364C3.51065 2.42529 3.58675 2.71709 3.58675 2.93136H5.32113C5.32113 2.47523 5.19367 1.89035 4.97437 1.4863L3.45005 2.31364ZM3.58675 2.93136C3.58675 3.13642 3.51442 3.42417 3.44186 3.56454L4.98257 4.36095C5.18991 3.95984 5.32113 3.39669 5.32113 2.93136H3.58675ZM3.45925 3.53256C3.44018 3.56594 3.37806 3.65078 3.27531 3.7549C3.17415 3.85741 3.08342 3.9281 3.03651 3.95663L3.93755 5.43858C4.14508 5.3124 4.34697 5.13813 4.5098 4.97313C4.67105 4.80974 4.8443 4.6045 4.96518 4.39293L3.45925 3.53256ZM3.05468 3.94588C2.95196 4.00496 2.92373 4.01643 2.89033 4.02658C2.84642 4.03991 2.75397 4.06082 2.53267 4.07796C2.0736 4.11352 1.26919 4.12043 -0.37134 4.12695L-0.364449 5.86131C1.23926 5.85494 2.12694 5.84896 2.6666 5.80716C2.94466 5.78562 3.17822 5.75174 3.39432 5.68611C3.62094 5.61729 3.78672 5.52562 3.91937 5.44933L3.05468 3.94588ZM-0.367893 4.12694C-2.03746 4.12694 -2.83909 4.12628 -3.28513 4.09378C-3.50103 4.07805 -3.57056 4.05816 -3.58796 4.05233C-3.58997 4.05165 -3.59375 4.05457 -3.68648 3.99192L-4.65738 5.42908C-4.54019 5.50824 -4.37539 5.61752 -4.13965 5.69662C-3.9193 5.77055 -3.6819 5.80384 -3.41116 5.82357C-2.88393 5.86198 -1.99346 5.86132 -0.367893 5.86132V4.12694ZM-3.67782 3.99785C-3.83081 3.89177 -4.08558 3.63381 -4.19114 3.47748L-5.62854 4.44801C-5.40331 4.78158 -4.99651 5.19402 -4.66604 5.42315L-3.67782 3.99785ZM-4.18537 3.48613C-4.29489 3.31965 -4.34799 3.15043 -4.34799 2.93136H-6.08236C-6.08236 3.48582 -5.9319 3.987 -5.6343 4.43936L-4.18537 3.48613ZM-4.34799 2.93136C-4.34799 2.77129 -4.33161 2.69728 -4.3167 2.65284C-4.30202 2.60909 -4.27225 2.54458 -4.18095 2.4243L-5.56239 1.37565C-5.72554 1.59057 -5.86752 1.82258 -5.96099 2.10114C-6.05421 2.379 -6.08236 2.65308 -6.08236 2.93136H-4.34799ZM-4.18758 2.43293C-4.03335 2.23497 -3.75447 1.95639 -3.62176 1.85553L-4.67121 0.474694C-4.94562 0.683249 -5.32831 1.07507 -5.55575 1.36702L-4.18758 2.43293ZM-3.61446 1.84992C-3.52711 1.78206 -3.53967 1.79824 -3.56029 1.80595C-3.56247 1.80676 -3.51034 1.78664 -3.29869 1.77025C-2.86317 1.73653 -2.06463 1.73578 -0.380619 1.73578V0.00140142C-2.01718 0.00140142 -2.91074 0.000647068 -3.43259 0.0410552C-3.69962 0.0617323 -3.9425 0.0972104 -4.16772 0.181421C-4.41139 0.272531 -4.57502 0.399904 -4.67851 0.480304L-3.61446 1.84992ZM-0.38405 48.7927C1.2652 48.7992 2.07205 48.8029 2.53405 48.8371C2.75678 48.8536 2.84655 48.8742 2.88696 48.8867C2.9151 48.8953 2.94016 48.905 3.03948 48.9648L3.93457 47.4793C3.79852 47.3973 3.62956 47.3006 3.39729 47.2291C3.17729 47.1613 2.94025 47.128 2.66203 47.1074C2.12213 47.0675 1.23053 47.0647 -0.377186 47.0583L-0.38405 48.7927ZM3.03651 48.963C3.08342 48.9915 3.17415 49.0622 3.27531 49.1647C3.37806 49.2689 3.44018 49.3537 3.45925 49.3871L4.96518 48.5267C4.8443 48.3151 4.67105 48.1099 4.5098 47.9465C4.34697 47.7815 4.14508 47.6072 3.93755 47.4811L3.03651 48.963ZM3.45005 49.3706C3.51065 49.4822 3.58675 49.774 3.58675 49.9883H5.32113C5.32113 49.5322 5.19367 48.9473 4.97437 48.5432L3.45005 49.3706ZM3.58675 49.9883C3.58675 50.1933 3.51442 50.4811 3.44186 50.6215L4.98257 51.4179C5.18991 51.0168 5.32113 50.4536 5.32113 49.9883H3.58675ZM3.45925 50.5895C3.44018 50.6229 3.37806 50.7077 3.27531 50.8118C3.17415 50.9143 3.08342 50.985 3.03651 51.0135L3.93755 52.4955C4.14508 52.3693 4.34697 52.1951 4.5098 52.0301C4.67105 51.8667 4.8443 51.6614 4.96518 51.4499L3.45925 50.5895ZM3.05468 51.0028C2.95196 51.0619 2.92373 51.0734 2.89033 51.0835C2.84642 51.0968 2.75396 51.1177 2.53267 51.1349C2.0736 51.1704 1.26919 51.1774 -0.37134 51.1839L-0.364449 52.9182C1.23926 52.9119 2.12694 52.9059 2.6666 52.8641C2.94466 52.8425 3.17822 52.8087 3.39432 52.743C3.62094 52.6742 3.78672 52.5825 3.91937 52.5063L3.05468 51.0028ZM-0.367893 51.1839C-2.03746 51.1839 -2.83909 51.1832 -3.28513 51.1507C-3.50103 51.135 -3.57056 51.1151 -3.58796 51.1093C-3.58997 51.1086 -3.59375 51.1115 -3.68648 51.0488L-4.65738 52.486C-4.54019 52.5652 -4.37539 52.6744 -4.13965 52.7535C-3.9193 52.8275 -3.6819 52.8608 -3.41116 52.8805C-2.88393 52.9189 -1.99346 52.9182 -0.367893 52.9182V51.1839ZM-3.67782 51.0548C-3.83081 50.9487 -4.08558 50.6907 -4.19114 50.5344L-5.62854 51.5049C-5.40331 51.8385 -4.99651 52.2509 -4.66604 52.4801L-3.67782 51.0548ZM-4.18537 50.543C-4.29489 50.3766 -4.34799 50.2074 -4.34799 49.9883H-6.08236C-6.08236 50.5427 -5.9319 51.0439 -5.6343 51.4963L-4.18537 50.543ZM-4.34799 49.9883C-4.34799 49.8282 -4.33161 49.7542 -4.3167 49.7098C-4.30202 49.666 -4.27225 49.6015 -4.18095 49.4812L-5.56239 48.4326C-5.72553 48.6475 -5.86752 48.8795 -5.96099 49.1581C-6.05421 49.4359 -6.08236 49.71 -6.08236 49.9883H-4.34799ZM-4.18758 49.4899C-4.03335 49.2919 -3.75447 49.0133 -3.62176 48.9125L-4.67121 47.5316C-4.94562 47.7402 -5.32831 48.132 -5.55575 48.4239L-4.18758 49.4899ZM-3.61446 48.9068C-3.52711 48.839 -3.53967 48.8552 -3.56029 48.8629C-3.56247 48.8637 -3.51034 48.8436 -3.29869 48.8272C-2.86317 48.7935 -2.06463 48.7927 -0.380619 48.7927V47.0583C-2.01718 47.0583 -2.91074 47.0576 -3.43259 47.098C-3.69963 47.1187 -3.9425 47.1541 -4.16772 47.2383C-4.41139 47.3295 -4.57502 47.4568 -4.67851 47.5372L-3.61446 48.9068ZM15.7718 2.11245L15.94 2.07292L15.5434 0.384512L15.3751 0.424049L15.7718 2.11245ZM20.6625 36.1757C20.0725 36.2721 18.4435 36.2679 16.9093 36.1662L16.7946 37.8968C18.3185 37.9978 20.1318 38.0198 20.9423 37.8873L20.6625 36.1757ZM16.9093 36.1662C15.5427 36.0756 14.3429 35.6874 14.036 35.6026L13.574 37.2743C13.8168 37.3414 15.2114 37.7919 16.7946 37.8968L16.9093 36.1662ZM15.94 2.07292C17.4681 1.71391 19.0516 1.65699 20.6016 1.90534L20.876 0.192817C19.1029 -0.0912976 17.2914 -0.0261793 15.5434 0.384512L15.94 2.07292Z" fill="#F9F9F9" mask="url(#path-2-inside-1_291_28619)"/>
</g>
</g>
</g>
</g>
</g>
</svg>
