<svg width="28" height="28" viewBox="0 0 28 28" fill="none" xmlns="http://www.w3.org/2000/svg">
<g clip-path="url(#clip0_2533_8925)">
<path fill-rule="evenodd" clip-rule="evenodd" d="M20.125 7C19.159 7 18.375 6.216 18.375 5.25V1.75L23.625 7H20.125ZM23.625 24.5C23.625 25.466 22.841 26.25 21.875 26.25H6.125C5.159 26.25 4.375 25.466 4.375 24.5V3.5C4.375 2.534 5.159 1.75 6.125 1.75H16.6005C16.5848 3.84562 16.625 5.25 16.625 5.25C16.625 7.18287 18.1921 8.75 20.125 8.75H23.625V24.5ZM18.375 2.26291e-07V0.0245001C18.263 0.0245001 17.7958 -0.0183748 16.625 2.26291e-07H6.125C4.19212 2.26291e-07 2.625 1.56713 2.625 3.5V24.5C2.625 26.4329 4.19212 28 6.125 28H21.875C23.8079 28 25.375 26.4329 25.375 24.5V8.75V7L18.375 2.26291e-07Z" fill="black"/>
</g>
<defs>
<clipPath id="clip0_2533_8925">
<rect width="28" height="28" fill="white"/>
</clipPath>
</defs>
</svg>
