<svg width="21" height="19" viewBox="0 0 21 19" fill="none" xmlns="http://www.w3.org/2000/svg">
<path d="M2.82444 8.19134L1.75096 8.59389L2.77635 9.1067L3 8.65951L2.77641 9.10673L2.7765 9.10677L2.77677 9.10691L2.77768 9.10736L2.78097 9.109L2.79345 9.11521L2.84228 9.13934C2.88552 9.16062 2.95023 9.19232 3.03707 9.23444C3.21075 9.31866 3.47293 9.44452 3.82883 9.61201C4.54061 9.947 5.62725 10.4485 7.13033 11.1165L7.35821 11.2178L7.57619 11.0967L7.33339 10.6596C7.57619 11.0967 7.57623 11.0967 7.57628 11.0967L7.57644 11.0966L7.57697 11.0963L7.57884 11.0952L7.58588 11.0913L7.61308 11.0761C7.63703 11.0627 7.67263 11.0426 7.71978 11.0159C7.81409 10.9625 7.95462 10.8824 8.14073 10.7749C8.51294 10.56 9.06744 10.2357 9.79902 9.79675C10.5117 9.36913 11.3925 8.83273 12.4366 8.18273L9.31323 11.3061L8.88196 11.7373L9.38941 12.0756L9.38942 12.0756L9.38945 12.0757L9.38956 12.0757L9.39042 12.0763L9.39432 12.0789L9.41099 12.0901L9.47992 12.1368C9.54179 12.1789 9.63559 12.2431 9.76195 12.3308C10.0147 12.5062 10.3977 12.7753 10.9163 13.1487C11.9534 13.8954 13.5325 15.0588 15.6953 16.7225L16.3231 17.2054L16.489 16.4309L16.0001 16.3262L16.489 16.4309L16.4891 16.4307L16.4892 16.4301L16.4898 16.4275L16.492 16.4172L16.5007 16.3762L16.5359 16.2122L16.6765 15.5559L17.2389 12.9309L19.4889 2.43094L19.6933 1.47708L18.7996 1.8681L19 2.32617L18.7996 1.8681L18.7994 1.86816L18.7988 1.86844L18.7961 1.86964L18.7847 1.87458L18.7386 1.89462C18.6974 1.91247 18.6354 1.93927 18.5526 1.97486C18.3869 2.04604 18.138 2.15239 17.8056 2.29258C17.141 2.57298 16.1431 2.9888 14.8118 3.52963C12.1493 4.61129 8.1535 6.19297 2.82444 8.19134Z" stroke="#9D78FF"/>
</svg>
