<svg width="533" height="581" viewBox="0 0 533 581" fill="none" xmlns="http://www.w3.org/2000/svg">
<path d="M111.969 581H514.486L532.003 0L111.969 16L111.969 581Z" fill="#4419A3"/>
<path d="M75.83 117H363.004V488L31.5039 443.5L75.83 117Z" fill="#5EC9CA"/>
<g clip-path="url(#clip0_402_29351)">
<path d="M14.4114 218.586L15.2432 213.791L19.5951 217.18L14.4114 218.586Z" stroke="#3F1C9D" stroke-width="0.7"/>
</g>
<g clip-path="url(#clip1_402_29351)">
<path d="M11.8489 233.366L12.6807 228.57L17.0326 231.959L11.8489 233.366Z" stroke="#3F1C9D" stroke-width="0.7"/>
</g>
<g clip-path="url(#clip2_402_29351)">
<path d="M9.28448 248.145L10.1163 243.349L14.4681 246.739L9.28448 248.145Z" stroke="#3F1C9D" stroke-width="0.7"/>
</g>
<g clip-path="url(#clip3_402_29351)">
<path d="M6.72198 262.924L7.55375 258.129L11.9056 261.518L6.72198 262.924Z" stroke="#3F1C9D" stroke-width="0.7"/>
</g>
<g clip-path="url(#clip4_402_29351)">
<path d="M4.15753 277.704L4.9893 272.908L9.34119 276.298L4.15753 277.704Z" stroke="#3F1C9D" stroke-width="0.7"/>
</g>
<g clip-path="url(#clip5_402_29351)">
<path d="M1.59503 292.483L2.4268 287.688L6.77869 291.077L1.59503 292.483Z" stroke="#3F1C9D" stroke-width="0.7"/>
</g>
<g clip-path="url(#clip6_402_29351)">
<path d="M29.1907 221.15L30.0225 216.354L34.3744 219.744L29.1907 221.15Z" stroke="#3F1C9D" stroke-width="0.7"/>
</g>
<g clip-path="url(#clip7_402_29351)">
<path d="M26.6282 235.929L27.46 231.134L31.8119 234.523L26.6282 235.929Z" stroke="#3F1C9D" stroke-width="0.7"/>
</g>
<g clip-path="url(#clip8_402_29351)">
<path d="M24.0638 250.708L24.8956 245.913L29.2474 249.302L24.0638 250.708Z" stroke="#3F1C9D" stroke-width="0.7"/>
</g>
<g clip-path="url(#clip9_402_29351)">
<path d="M21.5013 265.488L22.3331 260.692L26.6849 264.082L21.5013 265.488Z" stroke="#3F1C9D" stroke-width="0.7"/>
</g>
<g clip-path="url(#clip10_402_29351)">
<path d="M18.9368 280.267L19.7686 275.472L24.1205 278.861L18.9368 280.267Z" stroke="#3F1C9D" stroke-width="0.7"/>
</g>
<g clip-path="url(#clip11_402_29351)">
<path d="M16.3743 295.047L17.2061 290.251L21.558 293.64L16.3743 295.047Z" stroke="#3F1C9D" stroke-width="0.7"/>
</g>
<g clip-path="url(#clip12_402_29351)">
<path d="M43.97 223.713L44.8018 218.918L49.1537 222.307L43.97 223.713Z" stroke="#3F1C9D" stroke-width="0.7"/>
</g>
<g clip-path="url(#clip13_402_29351)">
<path d="M41.4075 238.493L42.2393 233.697L46.5912 237.086L41.4075 238.493Z" stroke="#3F1C9D" stroke-width="0.7"/>
</g>
<g clip-path="url(#clip14_402_29351)">
<path d="M38.8431 253.272L39.6748 248.476L44.0267 251.866L38.8431 253.272Z" stroke="#3F1C9D" stroke-width="0.7"/>
</g>
<g clip-path="url(#clip15_402_29351)">
<path d="M36.2806 268.051L37.1123 263.256L41.4642 266.645L36.2806 268.051Z" stroke="#3F1C9D" stroke-width="0.7"/>
</g>
<g clip-path="url(#clip16_402_29351)">
<path d="M33.7161 282.831L34.5479 278.035L38.8998 281.425L33.7161 282.831Z" stroke="#3F1C9D" stroke-width="0.7"/>
</g>
<g clip-path="url(#clip17_402_29351)">
<path d="M31.1536 297.61L31.9854 292.814L36.3373 296.204L31.1536 297.61Z" stroke="#3F1C9D" stroke-width="0.7"/>
</g>
<g clip-path="url(#clip18_402_29351)">
<path d="M58.7493 226.277L59.5811 221.481L63.933 224.871L58.7493 226.277Z" stroke="#3F1C9D" stroke-width="0.7"/>
</g>
<g clip-path="url(#clip19_402_29351)">
<path d="M56.1868 241.056L57.0186 236.261L61.3705 239.65L56.1868 241.056Z" stroke="#3F1C9D" stroke-width="0.7"/>
</g>
<g clip-path="url(#clip20_402_29351)">
<path d="M53.6224 255.835L54.4541 251.04L58.806 254.429L53.6224 255.835Z" stroke="#3F1C9D" stroke-width="0.7"/>
</g>
<g clip-path="url(#clip21_402_29351)">
<path d="M51.0599 270.615L51.8916 265.819L56.2435 269.209L51.0599 270.615Z" stroke="#3F1C9D" stroke-width="0.7"/>
</g>
<g clip-path="url(#clip22_402_29351)">
<path d="M48.4954 285.394L49.3272 280.599L53.6791 283.988L48.4954 285.394Z" stroke="#3F1C9D" stroke-width="0.7"/>
</g>
<g clip-path="url(#clip23_402_29351)">
<path d="M45.9329 300.173L46.7647 295.378L51.1166 298.767L45.9329 300.173Z" stroke="#3F1C9D" stroke-width="0.7"/>
</g>
<g clip-path="url(#clip24_402_29351)">
<path d="M73.5286 228.84L74.3604 224.045L78.7123 227.434L73.5286 228.84Z" stroke="#3F1C9D" stroke-width="0.7"/>
</g>
<g clip-path="url(#clip25_402_29351)">
<path d="M70.9661 243.62L71.7979 238.824L76.1498 242.213L70.9661 243.62Z" stroke="#3F1C9D" stroke-width="0.7"/>
</g>
<g clip-path="url(#clip26_402_29351)">
<path d="M68.4017 258.399L69.2334 253.603L73.5853 256.993L68.4017 258.399Z" stroke="#3F1C9D" stroke-width="0.7"/>
</g>
<g clip-path="url(#clip27_402_29351)">
<path d="M65.8392 273.178L66.6709 268.383L71.0228 271.772L65.8392 273.178Z" stroke="#3F1C9D" stroke-width="0.7"/>
</g>
<g clip-path="url(#clip28_402_29351)">
<path d="M63.2747 287.958L64.1065 283.162L68.4584 286.552L63.2747 287.958Z" stroke="#3F1C9D" stroke-width="0.7"/>
</g>
<g clip-path="url(#clip29_402_29351)">
<path d="M60.7122 302.737L61.544 297.941L65.8959 301.331L60.7122 302.737Z" stroke="#3F1C9D" stroke-width="0.7"/>
</g>
<g clip-path="url(#clip30_402_29351)">
<path d="M88.3079 231.404L89.1397 226.608L93.4916 229.998L88.3079 231.404Z" stroke="#3F1C9D" stroke-width="0.7"/>
</g>
<g clip-path="url(#clip31_402_29351)">
<path d="M85.7454 246.183L86.5772 241.387L90.9291 244.777L85.7454 246.183Z" stroke="#3F1C9D" stroke-width="0.7"/>
</g>
<g clip-path="url(#clip32_402_29351)">
<path d="M83.181 260.962L84.0127 256.167L88.3646 259.556L83.181 260.962Z" stroke="#3F1C9D" stroke-width="0.7"/>
</g>
<g clip-path="url(#clip33_402_29351)">
<path d="M80.6185 275.742L81.4502 270.946L85.8021 274.335L80.6185 275.742Z" stroke="#3F1C9D" stroke-width="0.7"/>
</g>
<g clip-path="url(#clip34_402_29351)">
<path d="M78.054 290.521L78.8858 285.726L83.2377 289.115L78.054 290.521Z" stroke="#3F1C9D" stroke-width="0.7"/>
</g>
<g clip-path="url(#clip35_402_29351)">
<path d="M75.4915 305.3L76.3233 300.505L80.6752 303.894L75.4915 305.3Z" stroke="#3F1C9D" stroke-width="0.7"/>
</g>
<defs>
<clipPath id="clip0_402_29351">
<rect width="8" height="8" fill="white" transform="translate(14.1836 212) rotate(9.84)"/>
</clipPath>
<clipPath id="clip1_402_29351">
<rect width="8" height="8" fill="white" transform="translate(11.6211 226.779) rotate(9.84)"/>
</clipPath>
<clipPath id="clip2_402_29351">
<rect width="8" height="8" fill="white" transform="translate(9.05664 241.559) rotate(9.84)"/>
</clipPath>
<clipPath id="clip3_402_29351">
<rect width="8" height="8" fill="white" transform="translate(6.49414 256.338) rotate(9.84)"/>
</clipPath>
<clipPath id="clip4_402_29351">
<rect width="8" height="8" fill="white" transform="translate(3.92969 271.117) rotate(9.84)"/>
</clipPath>
<clipPath id="clip5_402_29351">
<rect width="8" height="8" fill="white" transform="translate(1.36719 285.897) rotate(9.84)"/>
</clipPath>
<clipPath id="clip6_402_29351">
<rect width="8" height="8" fill="white" transform="translate(28.9629 214.563) rotate(9.84)"/>
</clipPath>
<clipPath id="clip7_402_29351">
<rect width="8" height="8" fill="white" transform="translate(26.4004 229.343) rotate(9.84)"/>
</clipPath>
<clipPath id="clip8_402_29351">
<rect width="8" height="8" fill="white" transform="translate(23.8359 244.122) rotate(9.84)"/>
</clipPath>
<clipPath id="clip9_402_29351">
<rect width="8" height="8" fill="white" transform="translate(21.2734 258.901) rotate(9.84)"/>
</clipPath>
<clipPath id="clip10_402_29351">
<rect width="8" height="8" fill="white" transform="translate(18.709 273.681) rotate(9.84)"/>
</clipPath>
<clipPath id="clip11_402_29351">
<rect width="8" height="8" fill="white" transform="translate(16.1465 288.46) rotate(9.84)"/>
</clipPath>
<clipPath id="clip12_402_29351">
<rect width="8" height="8" fill="white" transform="translate(43.7422 217.127) rotate(9.84)"/>
</clipPath>
<clipPath id="clip13_402_29351">
<rect width="8" height="8" fill="white" transform="translate(41.1797 231.906) rotate(9.84)"/>
</clipPath>
<clipPath id="clip14_402_29351">
<rect width="8" height="8" fill="white" transform="translate(38.6152 246.686) rotate(9.84)"/>
</clipPath>
<clipPath id="clip15_402_29351">
<rect width="8" height="8" fill="white" transform="translate(36.0527 261.465) rotate(9.84)"/>
</clipPath>
<clipPath id="clip16_402_29351">
<rect width="8" height="8" fill="white" transform="translate(33.4883 276.244) rotate(9.84)"/>
</clipPath>
<clipPath id="clip17_402_29351">
<rect width="8" height="8" fill="white" transform="translate(30.9258 291.024) rotate(9.84)"/>
</clipPath>
<clipPath id="clip18_402_29351">
<rect width="8" height="8" fill="white" transform="translate(58.5215 219.69) rotate(9.84)"/>
</clipPath>
<clipPath id="clip19_402_29351">
<rect width="8" height="8" fill="white" transform="translate(55.959 234.47) rotate(9.84)"/>
</clipPath>
<clipPath id="clip20_402_29351">
<rect width="8" height="8" fill="white" transform="translate(53.3945 249.249) rotate(9.84)"/>
</clipPath>
<clipPath id="clip21_402_29351">
<rect width="8" height="8" fill="white" transform="translate(50.832 264.028) rotate(9.84)"/>
</clipPath>
<clipPath id="clip22_402_29351">
<rect width="8" height="8" fill="white" transform="translate(48.2676 278.808) rotate(9.84)"/>
</clipPath>
<clipPath id="clip23_402_29351">
<rect width="8" height="8" fill="white" transform="translate(45.7051 293.587) rotate(9.84)"/>
</clipPath>
<clipPath id="clip24_402_29351">
<rect width="8" height="8" fill="white" transform="translate(73.3008 222.254) rotate(9.84)"/>
</clipPath>
<clipPath id="clip25_402_29351">
<rect width="8" height="8" fill="white" transform="translate(70.7383 237.033) rotate(9.84)"/>
</clipPath>
<clipPath id="clip26_402_29351">
<rect width="8" height="8" fill="white" transform="translate(68.1738 251.812) rotate(9.84)"/>
</clipPath>
<clipPath id="clip27_402_29351">
<rect width="8" height="8" fill="white" transform="translate(65.6113 266.592) rotate(9.84)"/>
</clipPath>
<clipPath id="clip28_402_29351">
<rect width="8" height="8" fill="white" transform="translate(63.0469 281.371) rotate(9.84)"/>
</clipPath>
<clipPath id="clip29_402_29351">
<rect width="8" height="8" fill="white" transform="translate(60.4844 296.151) rotate(9.84)"/>
</clipPath>
<clipPath id="clip30_402_29351">
<rect width="8" height="8" fill="white" transform="translate(88.0801 224.817) rotate(9.84)"/>
</clipPath>
<clipPath id="clip31_402_29351">
<rect width="8" height="8" fill="white" transform="translate(85.5176 239.597) rotate(9.84)"/>
</clipPath>
<clipPath id="clip32_402_29351">
<rect width="8" height="8" fill="white" transform="translate(82.9531 254.376) rotate(9.84)"/>
</clipPath>
<clipPath id="clip33_402_29351">
<rect width="8" height="8" fill="white" transform="translate(80.3906 269.155) rotate(9.84)"/>
</clipPath>
<clipPath id="clip34_402_29351">
<rect width="8" height="8" fill="white" transform="translate(77.8262 283.935) rotate(9.84)"/>
</clipPath>
<clipPath id="clip35_402_29351">
<rect width="8" height="8" fill="white" transform="translate(75.2637 298.714) rotate(9.84)"/>
</clipPath>
</defs>
</svg>
