<svg width="64" height="49" viewBox="0 0 64 49" fill="none" xmlns="http://www.w3.org/2000/svg">
<path d="M2.075 3.78196C2.075 2.56417 3.06221 1.57695 4.28 1.57695H59.72C60.9378 1.57695 61.925 2.56417 61.925 3.78195V45.0592C61.925 46.277 60.9378 47.2642 59.72 47.2642H4.28C3.06221 47.2642 2.075 46.277 2.075 45.0592V3.78196Z" stroke="#00BFB3" stroke-width="3.15"/>
<line x1="61.5469" y1="10.856" x2="2.45385" y2="10.856" stroke="#00BFB3" stroke-width="3.15"/>
<line x1="61.0586" y1="20.1351" x2="1.96557" y2="20.1351" stroke="#00BFB3" stroke-width="3.15"/>
<line x1="61.5469" y1="29.4141" x2="2.45385" y2="29.4141" stroke="#00BFB3" stroke-width="3.15"/>
<line x1="62.0352" y1="38.6932" x2="2.94213" y2="38.6932" stroke="#00BFB3" stroke-width="3.15"/>
<path d="M16.8594 48.3508L16.8594 10.2578" stroke="#00BFB3" stroke-width="3.15"/>
<path d="M31.7559 48.3508L31.7559 10.2578" stroke="#00BFB3" stroke-width="3.15"/>
<path d="M46.8965 48.3508L46.8965 10.2578" stroke="#00BFB3" stroke-width="3.15"/>
<rect x="25.4062" y="4.88574" width="25.8837" height="2.44186" rx="1.22093" fill="#00BFB3"/>
<ellipse cx="56.4182" cy="6.10667" rx="1.22093" ry="1.22093" fill="#00BFB3"/>
</svg>
