<svg width="24" height="24" viewBox="0 0 24 24" fill="none" xmlns="http://www.w3.org/2000/svg">
<g clip-path="url(#clip0_72_3472)">
<path fill-rule="evenodd" clip-rule="evenodd" d="M8.29363 12.707C8.10616 12.5194 8.00085 12.2651 8.00085 12C8.00085 11.7348 8.10616 11.4805 8.29363 11.293L13.9506 5.63598C14.0429 5.54047 14.1532 5.46428 14.2752 5.41188C14.3972 5.35947 14.5285 5.33188 14.6612 5.33073C14.794 5.32957 14.9257 5.35487 15.0486 5.40516C15.1715 5.45544 15.2831 5.52969 15.377 5.62358C15.4709 5.71747 15.5452 5.82913 15.5955 5.95202C15.6457 6.07492 15.671 6.2066 15.6699 6.33938C15.6687 6.47216 15.6411 6.60338 15.5887 6.72538C15.5363 6.84739 15.4601 6.95773 15.3646 7.04998L10.4146 12L15.3646 16.95C15.5468 17.1386 15.6476 17.3912 15.6453 17.6534C15.643 17.9156 15.5379 18.1664 15.3525 18.3518C15.167 18.5372 14.9162 18.6424 14.654 18.6447C14.3918 18.6469 14.1392 18.5461 13.9506 18.364L8.29363 12.707Z" fill="black"/>
</g>
<defs>
<clipPath id="clip0_72_3472">
<rect width="24" height="24" fill="white" transform="translate(24) rotate(90)"/>
</clipPath>
</defs>
</svg>
