<svg width="24" height="24" viewBox="0 0 24 24" fill="none" xmlns="http://www.w3.org/2000/svg">
<path fill-rule="evenodd" clip-rule="evenodd" d="M1 12C1 5.92472 5.92472 1 12 1C18.0753 1 23 5.92472 23 12C23 18.0753 18.0753 23 12 23C5.92472 23 1 18.0753 1 12ZM12 3C7.02928 3 3 7.02928 3 12C3 16.9707 7.02928 21 12 21C16.9707 21 21 16.9707 21 12C21 7.02928 16.9707 3 12 3Z" fill="#3F1C9D"/>
<path fill-rule="evenodd" clip-rule="evenodd" d="M6.79289 9.79289C7.18342 9.40237 7.81658 9.40237 8.20711 9.79289L12 13.5858L15.7929 9.79289C16.1834 9.40237 16.8166 9.40237 17.2071 9.79289C17.5976 10.1834 17.5976 10.8166 17.2071 11.2071L12.7071 15.7071C12.3166 16.0976 11.6834 16.0976 11.2929 15.7071L6.79289 11.2071C6.40237 10.8166 6.40237 10.1834 6.79289 9.79289Z" fill="#3F1C9D"/>
</svg>
