<svg width="32" height="32" viewBox="0 0 32 32" fill="none" xmlns="http://www.w3.org/2000/svg">
<g id="teenyicons:pdf-outline">
<path id="Vector" d="M5.33281 13.8667V12.8H4.26615V13.8667H5.33281ZM13.8661 13.8667V12.8H12.7995V13.8667H13.8661ZM13.8661 22.4H12.7995V23.4667H13.8661V22.4ZM28.7995 7.46667H29.8661V7.02507L29.5547 6.71147L28.7995 7.46667ZM22.3995 1.06667L23.1547 0.311467L22.8411 0H22.3995V1.06667ZM5.33281 14.9333H7.46615V12.8H5.33281V14.9333ZM6.39948 23.4667V18.1333H4.26615V23.4667H6.39948ZM6.39948 18.1333V13.8667H4.26615V18.1333H6.39948ZM7.46615 17.0667H5.33281V19.2H7.46615V17.0667ZM8.53281 16C8.53281 16.2829 8.42043 16.5542 8.22039 16.7542C8.02035 16.9543 7.74904 17.0667 7.46615 17.0667V19.2C8.31484 19.2 9.12877 18.8629 9.72889 18.2627C10.329 17.6626 10.6661 16.8487 10.6661 16H8.53281ZM7.46615 14.9333C7.74904 14.9333 8.02035 15.0457 8.22039 15.2458C8.42043 15.4458 8.53281 15.7171 8.53281 16H10.6661C10.6661 15.1513 10.329 14.3374 9.72889 13.7373C9.12877 13.1371 8.31484 12.8 7.46615 12.8V14.9333ZM12.7995 13.8667V22.4H14.9328V13.8667H12.7995ZM13.8661 23.4667H15.9995V21.3333H13.8661V23.4667ZM19.1995 20.2667V16H17.0661V20.2667H19.1995ZM15.9995 12.8H13.8661V14.9333H15.9995V12.8ZM19.1995 16C19.1995 15.1513 18.8623 14.3374 18.2622 13.7373C17.6621 13.1371 16.8482 12.8 15.9995 12.8V14.9333C16.2824 14.9333 16.5537 15.0457 16.7537 15.2458C16.9538 15.4458 17.0661 15.7171 17.0661 16H19.1995ZM15.9995 23.4667C16.8482 23.4667 17.6621 23.1295 18.2622 22.5294C18.8623 21.9293 19.1995 21.1154 19.1995 20.2667H17.0661C17.0661 20.5496 16.9538 20.8209 16.7537 21.0209C16.5537 21.221 16.2824 21.3333 15.9995 21.3333V23.4667ZM21.3328 12.8V23.4667H23.4661V12.8H21.3328ZM22.3995 14.9333H27.7328V12.8H22.3995V14.9333ZM22.3995 19.2H25.5995V17.0667H22.3995V19.2ZM4.26615 10.6667V3.2H2.13281V10.6667H4.26615ZM27.7328 7.46667V10.6667H29.8661V7.46667H27.7328ZM5.33281 2.13333H22.3995V0H5.33281V2.13333ZM21.6443 1.82187L28.0443 8.22187L29.5547 6.71147L23.1547 0.311467L21.6443 1.82187ZM4.26615 3.2C4.26615 2.9171 4.37853 2.64579 4.57857 2.44575C4.7786 2.24571 5.04992 2.13333 5.33281 2.13333V0C4.48412 0 3.67019 0.337142 3.07007 0.937258C2.46995 1.53737 2.13281 2.35131 2.13281 3.2H4.26615ZM2.13281 25.6V28.8H4.26615V25.6H2.13281ZM5.33281 32H26.6661V29.8667H5.33281V32ZM29.8661 28.8V25.6H27.7328V28.8H29.8661ZM26.6661 32C27.5148 32 28.3288 31.6629 28.9289 31.0627C29.529 30.4626 29.8661 29.6487 29.8661 28.8H27.7328C27.7328 29.0829 27.6204 29.3542 27.4204 29.5542C27.2204 29.7543 26.949 29.8667 26.6661 29.8667V32ZM2.13281 28.8C2.13281 29.6487 2.46995 30.4626 3.07007 31.0627C3.67019 31.6629 4.48412 32 5.33281 32V29.8667C5.04992 29.8667 4.7786 29.7543 4.57857 29.5542C4.37853 29.3542 4.26615 29.0829 4.26615 28.8H2.13281Z" fill="black"/>
</g>
</svg>
