<svg width="14" height="14" viewBox="0 0 14 14" fill="none" xmlns="http://www.w3.org/2000/svg">
<path d="M12.3534 3.51816C12.0592 2.83985 11.6351 2.2257 11.1049 1.71035C10.573 1.19035 9.946 0.77763 9.25806 0.494727C8.54243 0.197852 7.78306 0.0478516 7.00024 0.0478516C6.21743 0.0478516 5.45806 0.197852 4.74243 0.493164C4.05024 0.779102 3.42993 1.18848 2.89556 1.70879C2.36575 2.22442 1.94167 2.83851 1.64712 3.5166C1.34243 4.21973 1.18774 4.9666 1.18774 5.73535C1.18774 6.83848 1.45181 7.93691 1.97056 8.99629C2.38774 9.84785 2.97056 10.6775 3.70493 11.4666C4.95962 12.8135 6.27524 13.6369 6.64868 13.8572C6.75468 13.9198 6.87558 13.9528 6.99868 13.9525C7.12056 13.9525 7.24087 13.9213 7.34868 13.8572C7.72212 13.6369 9.03774 12.8135 10.2924 11.4666C11.0268 10.6791 11.6096 9.84785 12.0268 8.99629C12.5487 7.93848 12.8127 6.8416 12.8127 5.73691C12.8127 4.96816 12.6581 4.22129 12.3534 3.51816ZM7.00024 12.7541C5.97056 12.0994 2.31274 9.50723 2.31274 5.73691C2.31274 4.51973 2.79868 3.37598 3.68149 2.51348C4.56743 1.64941 5.74556 1.17285 7.00024 1.17285C8.25493 1.17285 9.43306 1.64941 10.319 2.51504C11.2018 3.37598 11.6877 4.51973 11.6877 5.73691C11.6877 9.50723 8.02993 12.0994 7.00024 12.7541ZM7.00024 3.11035C5.48149 3.11035 4.25024 4.3416 4.25024 5.86035C4.25024 7.3791 5.48149 8.61035 7.00024 8.61035C8.51899 8.61035 9.75024 7.3791 9.75024 5.86035C9.75024 4.3416 8.51899 3.11035 7.00024 3.11035ZM8.23774 7.09785C8.07543 7.26063 7.88254 7.38971 7.67017 7.47766C7.45779 7.56561 7.23011 7.61071 7.00024 7.61035C6.53306 7.61035 6.09399 7.42754 5.76274 7.09785C5.59997 6.93554 5.47089 6.74265 5.38294 6.53027C5.29498 6.31789 5.24989 6.09022 5.25024 5.86035C5.25024 5.39316 5.43306 4.9541 5.76274 4.62285C6.09399 4.2916 6.53306 4.11035 7.00024 4.11035C7.46743 4.11035 7.90649 4.2916 8.23774 4.62285C8.56899 4.9541 8.75024 5.39316 8.75024 5.86035C8.75024 6.32754 8.56899 6.7666 8.23774 7.09785Z" fill="white"/>
</svg>
