<svg width="27" height="27" viewBox="0 0 27 27" fill="none" xmlns="http://www.w3.org/2000/svg">
<g clip-path="url(#clip0_2533_8923)">
<path d="M4.4998 11.7V10.8H3.5998V11.7H4.4998ZM18.8998 18.9H17.9998V19.8H18.8998V18.9ZM22.4998 18.9V19.8H23.3998V18.9H22.4998ZM24.2998 6.3H25.1998V5.9272L24.9363 5.66361L24.2998 6.3ZM18.8998 0.9L19.5363 0.263605L19.2726 0H18.8998V0.9ZM11.6998 11.7L12.5048 11.2975L10.7998 11.7H11.6998ZM10.7998 18.9V19.8H12.5998V18.9H10.7998ZM15.2998 18.9L14.4948 19.3025C14.6815 19.6758 15.1003 19.8718 15.5066 19.7759C15.9128 19.6799 16.1998 19.3174 16.1998 18.9H15.2998ZM16.1998 11.7V10.8H14.3998V11.7H16.1998ZM4.4998 12.6H6.2998V10.8H4.4998V12.6ZM5.3998 19.8V15.3H3.5998V19.8H5.3998ZM5.3998 15.3V11.7H3.5998V15.3H5.3998ZM6.2998 14.4H4.4998V16.2H6.2998V14.4ZM7.1998 13.5C7.1998 13.9971 6.79686 14.4 6.2998 14.4V16.2C7.79098 16.2 8.9998 14.9912 8.9998 13.5H7.1998ZM6.2998 12.6C6.79686 12.6 7.1998 13.0029 7.1998 13.5H8.9998C8.9998 12.0088 7.79098 10.8 6.2998 10.8V12.6ZM17.9998 10.8V18.9H19.7998V10.8H17.9998ZM18.8998 19.8H22.4998V18H18.8998V19.8ZM23.3998 18.9V15.3H21.5998V18.9H23.3998ZM18.8998 12.6H23.3998V10.8H18.8998V12.6ZM3.5998 9V2.7H1.7998V9H3.5998ZM23.3998 6.3V9H25.1998V6.3H23.3998ZM4.4998 1.8H18.8998V0H4.4998V1.8ZM18.2633 1.5364L23.6633 6.93639L24.9363 5.66361L19.5363 0.263605L18.2633 1.5364ZM3.5998 2.7C3.5998 2.20295 4.00275 1.8 4.4998 1.8V0C3.00863 0 1.7998 1.20883 1.7998 2.7H3.5998ZM1.7998 21.6V24.3H3.5998V21.6H1.7998ZM4.4998 27H22.4998V25.2H4.4998V27ZM25.1998 24.3V21.6H23.3998V24.3H25.1998ZM22.4998 27C23.9909 27 25.1998 25.7911 25.1998 24.3H23.3998C23.3998 24.797 22.9968 25.2 22.4998 25.2V27ZM1.7998 24.3C1.7998 25.7911 3.00863 27 4.4998 27V25.2C4.00275 25.2 3.5998 24.797 3.5998 24.3H1.7998ZM10.7998 11.7V18.9H12.5998V11.7H10.7998ZM10.8948 12.1025L14.4948 19.3025L16.1048 18.4975L12.5048 11.2975L10.8948 12.1025ZM14.3998 11.7V18.9H16.1998V11.7H14.3998Z" fill="#F97F27"/>
</g>
<defs>
<clipPath id="clip0_2533_8923">
<rect width="27" height="27" fill="white"/>
</clipPath>
</defs>
</svg>
