<svg width="14" height="14" viewBox="0 0 14 14" fill="none" xmlns="http://www.w3.org/2000/svg">
<g clip-path="url(#clip0_23_5717)">
<path d="M13.5924 2.48839C13.5916 2.48839 13.5907 2.48828 13.5898 2.48828H9.87109V2.07812C9.87109 1.39966 9.31909 0.847656 8.64062 0.847656H5.35938C4.68091 0.847656 4.12891 1.39966 4.12891 2.07812V2.48828H0.410156C0.181793 2.48828 0 2.67542 0 2.89844V11.9219C0 12.6003 0.552002 13.1523 1.23047 13.1523H12.7695C13.448 13.1523 14 12.6003 14 11.9219V2.90709C14 2.90656 14 2.90602 14 2.90549C13.9843 2.63611 13.8186 2.48988 13.5924 2.48839ZM4.94922 2.07812C4.94922 1.85201 5.13326 1.66797 5.35938 1.66797H8.64062C8.86674 1.66797 9.05078 1.85201 9.05078 2.07812V2.48828H4.94922V2.07812ZM13.0208 3.30859L11.747 7.12967C11.6912 7.29747 11.5348 7.41016 11.358 7.41016H9.05078V7C9.05078 6.77345 8.86717 6.58984 8.64062 6.58984H5.35938C5.13283 6.58984 4.94922 6.77345 4.94922 7V7.41016H2.64198C2.46521 7.41016 2.30884 7.29747 2.25298 7.12967L0.979248 3.30859H13.0208ZM8.23047 7.41016V8.23047H5.76953V7.41016H8.23047ZM13.1797 11.9219C13.1797 12.148 12.9957 12.332 12.7695 12.332H1.23047C1.00435 12.332 0.820312 12.148 0.820312 11.9219V5.42592L1.47475 7.38911C1.64244 7.89241 2.11156 8.23047 2.64198 8.23047H4.94922V8.64062C4.94922 8.86717 5.13283 9.05078 5.35938 9.05078H8.64062C8.86717 9.05078 9.05078 8.86717 9.05078 8.64062V8.23047H11.358C11.8884 8.23047 12.3576 7.89241 12.5253 7.38911L13.1797 5.42592V11.9219Z" fill="#F97F27"/>
</g>
<defs>
<clipPath id="clip0_23_5717">
<rect width="14" height="14" fill="#F97F27"/>
</clipPath>
</defs>
</svg>
