<svg width="40" height="37" viewBox="0 0 40 37" fill="none" xmlns="http://www.w3.org/2000/svg">
<path fill-rule="evenodd" clip-rule="evenodd" d="M20.2321 0.579955C34.216 0.573153 35.0253 0.579955 35.3926 0.695597C35.6103 0.763621 35.9367 0.913275 36.1272 1.02892C36.3108 1.14456 36.6101 1.38945 36.7801 1.57311C36.9502 1.74998 37.1678 2.03568 37.263 2.20574C37.3651 2.3758 37.4875 2.68191 37.5487 2.88598C37.6507 3.22611 37.6575 4.70904 37.6575 17.9874C37.6575 31.2658 37.6507 32.7487 37.5487 33.0888C37.4875 33.2929 37.3651 33.599 37.263 33.7691C37.1678 33.9391 36.9502 34.2248 36.7801 34.4017C36.6101 34.5854 36.3108 34.8302 36.1272 34.9459C35.9367 35.0615 35.6103 35.2112 35.3926 35.2792C35.0253 35.3949 34.2092 35.4017 20.2594 35.4017C6.96928 35.4017 5.48656 35.3949 5.14648 35.2928C4.94244 35.2316 4.63637 35.1091 4.46634 35.0071C4.2963 34.9119 4.01064 34.6942 3.8338 34.5241C3.65016 34.3541 3.40531 34.0548 3.28968 33.8711C3.17406 33.6806 3.02443 33.3541 2.95641 33.1364C2.84079 32.7691 2.83398 31.9528 2.83398 18.0078C2.83398 4.70904 2.84079 3.22611 2.94281 2.88598C3.00402 2.68191 3.12645 2.3758 3.22847 2.20574C3.32369 2.03568 3.54134 1.74998 3.71137 1.57311C3.88141 1.38945 4.17387 1.14456 4.36432 1.02892C4.54795 0.913275 4.87443 0.763621 5.07847 0.695597C5.42534 0.586758 6.43196 0.579955 20.2253 0.579955H20.2321ZM5.33693 3.07645C5.2349 3.17849 5.11928 3.36896 5.08527 3.4982C5.04446 3.64786 5.01726 8.45038 5.01726 16.1371V28.5312H35.4878L35.4538 3.43698C35.2294 3.14448 35.0798 2.99482 34.9845 2.92C34.8009 2.78395 34.6853 2.78395 20.3682 2.77034C11.6827 2.76354 5.85384 2.78395 5.73141 2.82476C5.61579 2.85877 5.43895 2.96761 5.33693 3.07645ZM5.02406 31.6195C5.05126 32.4222 5.07167 32.5582 5.19409 32.7283C5.27571 32.8303 5.42534 32.98 5.52057 33.0548C5.7042 33.1909 5.81303 33.1909 20.2526 33.1909C34.6921 33.1909 34.8009 33.1909 34.9845 33.0548C35.0798 32.98 35.2294 32.8303 35.311 32.7283C35.4402 32.5582 35.4538 32.429 35.4674 31.6195L35.4878 30.708H5.00365L5.02406 31.6195ZM20.3138 5.28044C22.9799 5.30085 23.0071 5.30085 23.2248 5.4505C23.3472 5.53894 23.4969 5.70219 23.5581 5.82464C23.6193 5.94708 23.6737 6.18517 23.6737 6.35523C23.6737 6.51849 23.6193 6.75657 23.5581 6.87902C23.4969 7.00146 23.3472 7.17152 23.2248 7.25315C23.0071 7.4028 22.9731 7.40961 20.4158 7.43001C18.9943 7.43682 17.736 7.43001 17.6136 7.40961C17.4912 7.3892 17.2871 7.27356 17.1647 7.15111C17.0287 7.02187 16.8994 6.81099 16.8586 6.64093C16.8042 6.45046 16.7997 6.26906 16.845 6.09674C16.879 5.96069 16.9674 5.76342 17.0355 5.67498C17.1103 5.57975 17.2735 5.4505 17.3959 5.38248C17.6068 5.27364 17.872 5.26684 20.3138 5.28044ZM11.0298 9.9061C13.6347 9.92651 13.7639 9.93331 13.934 10.0626C14.036 10.1374 14.1788 10.3006 14.2537 10.4367C14.3897 10.6612 14.3965 10.7836 14.3965 13.3277C14.3965 15.8378 14.3897 15.9943 14.2605 16.2188C14.1856 16.348 14.0156 16.5249 13.8728 16.6065C13.6211 16.7562 13.5803 16.7562 10.9617 16.7562C8.41799 16.7562 8.30237 16.7494 8.07112 16.6201C7.94189 16.5453 7.77185 16.3956 7.69704 16.3004C7.56781 16.1235 7.56101 16.0079 7.56101 13.3277C7.56101 10.5659 7.56781 10.5319 7.71064 10.3279C7.79226 10.2122 7.96229 10.0626 8.08472 10.0013C8.28876 9.9061 8.62884 9.8925 11.0298 9.9061ZM9.70347 14.5862H12.152V12.0693H9.70347V14.5862ZM20.3478 9.9061C22.9527 9.92651 23.082 9.93331 23.252 10.0626C23.354 10.1374 23.4969 10.3006 23.5717 10.4367C23.7077 10.6612 23.7145 10.7836 23.7145 13.3277C23.7145 15.8378 23.7077 15.9943 23.5785 16.2188C23.5037 16.348 23.3336 16.5249 23.1908 16.6065C22.9391 16.7562 22.8983 16.7562 20.2798 16.7562C17.736 16.7562 17.6204 16.7494 17.3891 16.6201C17.2599 16.5453 17.0899 16.3956 17.015 16.3004C16.8858 16.1235 16.879 16.0079 16.879 13.3277C16.879 10.5659 16.8858 10.5319 17.0287 10.3279C17.1103 10.2122 17.2803 10.0626 17.4027 10.0013C17.6068 9.9061 17.9469 9.8925 20.3478 9.9061ZM19.0215 14.5862H21.47V12.0693H19.0215V14.5862ZM29.6658 9.9061C32.2707 9.92651 32.4 9.93331 32.57 10.0626C32.672 10.1374 32.8149 10.3006 32.8897 10.4367C33.0257 10.6612 33.0325 10.7836 33.0325 13.3277C33.0325 15.8378 33.0257 15.9943 32.8965 16.2188C32.8217 16.348 32.6516 16.5249 32.5088 16.6065C32.2571 16.7562 32.2163 16.7562 29.5978 16.7562C27.054 16.7562 26.9384 16.7494 26.7071 16.6201C26.5779 16.5453 26.4079 16.3956 26.3331 16.3004C26.2038 16.1235 26.197 16.0079 26.197 13.3277C26.197 10.5659 26.2038 10.5319 26.3467 10.3279C26.4283 10.2122 26.5983 10.0626 26.7207 10.0013C26.9248 9.9061 27.2649 9.8925 29.6658 9.9061ZM28.3395 14.5862H30.788V12.0693H28.3395V14.5862ZM11.0298 19.2254C13.6347 19.2459 13.7639 19.2527 13.934 19.3819C14.036 19.4567 14.1788 19.62 14.2537 19.756C14.3897 19.9805 14.3965 20.103 14.3965 22.6471C14.3965 25.1572 14.3897 25.3136 14.2605 25.5381C14.1856 25.6674 14.0156 25.8442 13.8728 25.9259C13.6211 26.0755 13.5803 26.0755 10.9617 26.0755C8.41799 26.0755 8.30237 26.0687 8.07112 25.9395C7.94189 25.8646 7.77185 25.715 7.69704 25.6197C7.56781 25.4429 7.56101 25.3272 7.56101 22.6471C7.56101 19.8853 7.56781 19.8513 7.71064 19.6472C7.79226 19.5316 7.96229 19.3819 8.08472 19.3207C8.28876 19.2254 8.62884 19.2118 11.0298 19.2254ZM9.70347 23.9055H12.152V21.3886H9.70347V23.9055ZM20.3478 19.2254C22.9527 19.2459 23.082 19.2527 23.252 19.3819C23.354 19.4567 23.4969 19.62 23.5717 19.756C23.7077 19.9805 23.7145 20.103 23.7145 22.6471C23.7145 25.1572 23.7077 25.3136 23.5785 25.5381C23.5037 25.6674 23.3336 25.8442 23.1908 25.9259C22.9391 26.0755 22.8983 26.0755 20.2798 26.0755C17.736 26.0755 17.6204 26.0687 17.3891 25.9395C17.2599 25.8646 17.0899 25.715 17.015 25.6197C16.8858 25.4429 16.879 25.3272 16.879 22.6471C16.879 19.8853 16.8858 19.8513 17.0287 19.6472C17.1103 19.5316 17.2803 19.3819 17.4027 19.3207C17.6068 19.2254 17.9469 19.2118 20.3478 19.2254ZM19.0215 23.9055H21.47V21.3886H19.0215V23.9055ZM29.6658 19.2254C32.2707 19.2459 32.4 19.2527 32.57 19.3819C32.672 19.4567 32.8149 19.62 32.8897 19.756C33.0257 19.9805 33.0325 20.103 33.0325 22.6471C33.0325 25.1572 33.0257 25.3136 32.8965 25.5381C32.8217 25.6674 32.6516 25.8442 32.5088 25.9259C32.2571 26.0755 32.2163 26.0755 29.5978 26.0755C27.054 26.0755 26.9384 26.0687 26.7071 25.9395C26.5779 25.8646 26.4079 25.715 26.3331 25.6197C26.2038 25.4429 26.197 25.3272 26.197 22.6471C26.197 19.8853 26.2038 19.8513 26.3467 19.6472C26.4283 19.5316 26.5983 19.3819 26.7207 19.3207C26.9248 19.2254 27.2649 19.2118 29.6658 19.2254ZM28.3395 23.9055H30.788V21.3886H28.3395V23.9055Z" fill="black"/>
</svg>
