<svg width="70" height="50" viewBox="0 0 70 50" fill="none" xmlns="http://www.w3.org/2000/svg">
<g clip-path="url(#clip0_291_28780)">
<path d="M28.5833 13.3773H6.0819L11.7668 7.67653L9.52778 5.4375L0 14.9653L9.52778 24.4931L11.7668 22.254L6.0819 16.5532H28.5833V13.3773Z" fill="#403A46"/>
</g>
<g clip-path="url(#clip1_291_28780)">
<path d="M59.9761 26.5643L50.7069 21.9502C50.3598 21.8073 49.9923 21.7256 49.6044 21.7256H48.0527V9.47559C48.0527 7.781 46.6848 6.41309 44.9902 6.41309C43.2957 6.41309 41.9277 7.781 41.9277 9.47559V31.4031C34.5777 29.8514 34.7002 29.8718 34.4348 29.8718C33.8019 29.8718 33.2302 30.1373 32.8219 30.5456L31.209 32.1789L41.2948 42.2648C41.8461 42.816 42.6219 43.1631 43.459 43.1631H57.3219C58.8532 43.1631 60.0373 42.0402 60.2619 40.5498L61.7932 29.7902C61.8136 29.6473 61.834 29.5043 61.834 29.3818C61.834 28.116 61.0582 27.0135 59.9761 26.5643Z" stroke="#403A46" stroke-width="3.0625"/>
</g>
<defs>
<clipPath id="clip0_291_28780">
<rect width="49" height="49" fill="white" transform="translate(0 0.288086)"/>
</clipPath>
<clipPath id="clip1_291_28780">
<rect width="49" height="49" fill="white" transform="translate(21 0.288086)"/>
</clipPath>
</defs>
</svg>
