<svg width="14" height="66" viewBox="0 0 14 66" fill="none" xmlns="http://www.w3.org/2000/svg">
<path d="M0 0L14 8V58L0 66V0Z" fill="#F5F5F5"/>
<path d="M3.42879 33.3147L9.06379 37.716C9.07851 37.7275 9.09621 37.7348 9.11484 37.7367C9.13347 37.7387 9.15229 37.7354 9.16913 37.7272C9.18597 37.719 9.20015 37.7062 9.21004 37.6903C9.21993 37.6743 9.22512 37.6559 9.22504 37.6372V36.671C9.22504 36.6097 9.19629 36.551 9.14879 36.5135L4.64879 32.9997L9.14879 29.486C9.19754 29.4485 9.22504 29.3897 9.22504 29.3285V28.3622C9.22504 28.2785 9.12879 28.2322 9.06379 28.2835L3.42879 32.6847C3.38089 32.7221 3.34215 32.7699 3.3155 32.8244C3.28885 32.879 3.275 32.939 3.275 32.9997C3.275 33.0604 3.28885 33.1204 3.3155 33.175C3.34215 33.2296 3.38089 33.2773 3.42879 33.3147Z" fill="black" fill-opacity="0.45"/>
</svg>
