<svg width="1092" height="215" viewBox="0 0 1092 215" fill="none" xmlns="http://www.w3.org/2000/svg">
<path d="M1.70288 47.66C0.79235 68.8106 0.243228 137.175 0.0645295 162.889C0.0202159 169.265 2.48804 175.505 8.09692 178.538C10.6697 179.93 13.7985 181.283 17.3997 182.216C43.5957 189.002 76.5943 195.141 87.294 197.073C89.6562 197.5 91.9997 197.895 94.3685 198.284L133.715 204.732C139.611 205.698 145.482 206.745 151.371 207.756C163.663 209.864 186.298 213.424 202.751 214.132C203.25 214.153 203.761 214.173 204.282 214.191C222.947 214.831 241.586 212.803 260.073 210.152C278.516 207.507 296.769 203.756 314.883 199.397C331.034 195.511 351.442 190.88 367.488 188.161C384.809 185.225 406.736 182.874 425.475 181.184C452.246 178.77 479.144 178.988 506.016 179.634C517.442 179.908 529.169 180.014 538.032 179.68C553.978 179.08 581.373 179.825 597.169 177.56C601.412 176.952 615.245 174.949 630.573 172.166C658.834 167.034 692.933 151.567 720.793 144.578C731.628 141.86 734.719 141.839 745.862 141.051C753.186 140.533 761.562 140.161 768 140.5C777.5 141 782.5 142.578 789 144C804.101 147.303 830 154.424 847.441 161.129C864.882 167.834 906.754 167.49 906.754 167.49C906.754 167.49 952.89 168.025 961.5 166.5C969.748 165.702 983.567 164.232 994.693 163.032C1006.34 161.776 1017.89 159.747 1029.3 157.127C1037.7 155.2 1047.57 152.991 1055 151.5C1055 151.5 1104.58 138.338 1088.74 135.688C1076.3 133.608 1060.62 124.669 1054.44 120.921C1052.65 119.834 1050.8 118.865 1048.88 118.027C1045.14 116.393 1039.22 113.63 1040.16 112.897C1046.5 107.95 1051.78 101.236 1051.78 101.236C1056.5 97.5 1062.34 87.4557 1067.62 82.1554C1069.48 80.2861 1075.81 69.1876 1079.38 62.8094C1080.19 61.3484 1078.68 59.7087 1077.15 60.3833C1060.58 67.6783 1041.59 71.9512 1024.92 64.8923C1024.23 64.6012 1023.59 64.3036 1023 64C1006.63 55.5196 1001 52 987.631 44.968C978.725 39.1106 963.445 30.7236 953.692 25.4929C947.637 22.2457 941.633 18.9286 935.509 15.8144C923.492 9.704 902.193 0.00135049 888.097 0.00135049C871.191 0.00135049 856.717 -0.164572 840.049 3.18182C830.128 5.17375 822.274 5.94349 812.856 9.09475C798.394 13.9338 768.769 21.4398 768.769 21.4398C768.769 21.4398 739.101 30.1777 719.681 29.573C709.338 29.251 702.139 27.7268 693.422 26.0147C688.236 24.9963 679.154 23.3633 673.453 22.3486C670.029 21.7393 666.602 21.1705 663.167 20.6319L640 17L613.5 13L575.5 9.5L539.431 7.61769L539.138 7.60224C536.756 7.47503 504.48 5.7295 488.4 3.71179C477.92 2.39678 469.088 3.38705 456.72 3.71182C436.098 4.25335 408.813 7.28273 389.868 9.68149C374.94 11.5716 360.233 14.8032 345.768 18.9516L315.744 27.563L272.448 42.9338C272.448 42.9338 200.781 67.1891 161.357 67.1891C127.634 67.1891 89.2312 59.3646 58.6071 47.174C40.2541 37.9623 13.5833 31.55 4.93292 36.8531C1.55414 38.9245 1.87333 43.7005 1.70288 47.66Z" fill="#302B34" fill-opacity="0.6"/>
</svg>
