<svg width="80" height="80" viewBox="0 0 80 80" fill="none" xmlns="http://www.w3.org/2000/svg">
<path d="M71.6673 71.6667H8.33398L11.0407 61.1884C12.3607 52.8267 19.569 46.6667 28.0356 46.6667H51.964C60.4306 46.6667 67.639 52.8267 68.959 61.1884L71.6673 71.6667Z" fill="url(#paint0_linear_545_17799)"/>
<path d="M34.84 53.9267L30 46.6667H50L45.16 53.9267C42.705 57.6084 37.295 57.6084 34.84 53.9267Z" fill="url(#paint1_linear_545_17799)"/>
<path d="M39.9996 49.9999C31.4412 49.9999 24.2329 43.6049 23.2129 35.1066L22.3829 28.1899C21.1146 17.6283 29.3612 8.33325 39.9996 8.33325C50.6379 8.33325 58.8846 17.6283 57.6162 28.1916L56.7862 35.1083C55.7662 43.6049 48.5579 49.9999 39.9996 49.9999Z" fill="#D8E7FF"/>
<path d="M56.6667 36.6667H23.3333C21.4933 36.6667 20 35.1733 20 33.3333C20 31.4933 21.4933 30 23.3333 30H56.6667C58.5067 30 60 31.4933 60 33.3333C60 35.1733 58.5067 36.6667 56.6667 36.6667Z" fill="#D8E7FF"/>
<path d="M22.3828 28.1901L22.6095 30.0834C26.5245 27.3784 29.0945 22.8667 29.0945 17.7484C29.0945 16.0084 28.7828 14.3451 28.2362 12.7917C24.0545 16.5017 21.6562 22.1384 22.3828 28.1901Z" fill="url(#paint2_linear_545_17799)"/>
<path d="M51.7626 12.7917C51.2176 14.3451 50.9043 16.0084 50.9043 17.7484C50.9043 22.8684 53.4743 27.3784 57.3893 30.0834L57.616 28.1917C58.3426 22.1384 55.9443 16.5017 51.7626 12.7917Z" fill="url(#paint3_linear_545_17799)"/>
<path d="M56.651 19.9999C54.186 13.2566 47.7343 8.33325 39.9993 8.33325C32.2643 8.33325 25.8127 13.2566 23.3477 19.9999H56.651Z" fill="url(#paint4_linear_545_17799)"/>
<path d="M10.834 6.66675L8.95898 12.2917L3.33398 14.1667L8.95898 16.0417L10.834 21.6667L12.709 16.0417L18.334 14.1667L12.709 12.2917L10.834 6.66675Z" fill="#F5BC00"/>
<path d="M69.166 36.6667L67.291 42.2917L61.666 44.1667L67.291 46.0417L69.166 51.6667L71.041 46.0417L76.666 44.1667L71.041 42.2917L69.166 36.6667Z" fill="#F5BC00"/>
<path d="M56.666 25H61.666C63.5077 25 64.9993 26.4917 64.9993 28.3333V33.3333C64.9993 35.175 63.5077 36.6667 61.666 36.6667H56.666V25Z" fill="url(#paint5_linear_545_17799)"/>
<path d="M23.3333 36.6667H18.3333C16.4917 36.6667 15 35.175 15 33.3333V28.3333C15 26.4917 16.4917 25 18.3333 25H23.3333V36.6667Z" fill="url(#paint6_linear_545_17799)"/>
<path d="M60 28.3334H56.6667V25.0001C55.89 16.5134 48.7217 10.0001 40 10.0001C31.2783 10.0001 24.11 16.5134 23.3267 25.1501L23.3333 28.3334H20V25.0001C20.945 14.4834 29.5417 6.66675 40 6.66675C50.4583 6.66675 59.055 14.4834 59.9933 24.8501L60 28.3334Z" fill="url(#paint7_linear_545_17799)"/>
<path d="M59.9993 25H56.666V36.6667H59.9993V25Z" fill="#00B3D7"/>
<path d="M20.0007 36.6667H23.334V25.0001H20.0007V36.6667Z" fill="#00B3D7"/>
<defs>
<linearGradient id="paint0_linear_545_17799" x1="10.8314" y1="47.2161" x2="18.0154" y2="80.7968" gradientUnits="userSpaceOnUse">
<stop stop-color="#5EC9CA"/>
<stop offset="1" stop-color="#5AB1B1"/>
</linearGradient>
<linearGradient id="paint1_linear_545_17799" x1="34.5987" y1="51.6786" x2="57.4948" y2="51.6786" gradientUnits="userSpaceOnUse">
<stop stop-color="#1A3051"/>
<stop offset="1" stop-color="#173D7A"/>
</linearGradient>
<linearGradient id="paint2_linear_545_17799" x1="23.8268" y1="21.4396" x2="31.658" y2="21.4396" gradientUnits="userSpaceOnUse">
<stop stop-color="#1A3051"/>
<stop offset="1" stop-color="#173D7A"/>
</linearGradient>
<linearGradient id="paint3_linear_545_17799" x1="52.4772" y1="21.4396" x2="60.3083" y2="21.4396" gradientUnits="userSpaceOnUse">
<stop stop-color="#1A3051"/>
<stop offset="1" stop-color="#173D7A"/>
</linearGradient>
<linearGradient id="paint4_linear_545_17799" x1="31.0053" y1="14.168" x2="69.1311" y2="14.168" gradientUnits="userSpaceOnUse">
<stop stop-color="#1A3051"/>
<stop offset="1" stop-color="#173D7A"/>
</linearGradient>
<linearGradient id="paint5_linear_545_17799" x1="56.9946" y1="25.2564" x2="64.8861" y2="35.657" gradientUnits="userSpaceOnUse">
<stop stop-color="#5EC9CA"/>
<stop offset="1" stop-color="#5AB1B1"/>
</linearGradient>
<linearGradient id="paint6_linear_545_17799" x1="15.3286" y1="25.2564" x2="23.22" y2="35.657" gradientUnits="userSpaceOnUse">
<stop stop-color="#5EC9CA"/>
<stop offset="1" stop-color="#5AB1B1"/>
</linearGradient>
<linearGradient id="paint7_linear_545_17799" x1="21.5773" y1="7.14287" x2="29.8031" y2="35.1633" gradientUnits="userSpaceOnUse">
<stop stop-color="#5EC9CA"/>
<stop offset="1" stop-color="#5AB1B1"/>
</linearGradient>
</defs>
</svg>
