<svg width="100" height="100" viewBox="0 0 100 100" fill="none" xmlns="http://www.w3.org/2000/svg">
<circle cx="50" cy="50" r="50" fill="#5EC9CA"/>
<path d="M72.166 48.8335H78.666C81.0602 48.8335 82.9993 50.7727 82.9993 53.1668V59.6668C82.9993 62.061 81.0602 64.0002 78.666 64.0002H72.166V48.8335Z" fill="url(#paint0_linear_703_5568)"/>
<path d="M28.8333 64.0002H22.3333C19.9392 64.0002 18 62.061 18 59.6668V53.1668C18 50.7727 19.9392 48.8335 22.3333 48.8335H28.8333V64.0002Z" fill="url(#paint1_linear_703_5568)"/>
<path d="M76.5 53.1667H72.1667V48.8333C71.157 37.8007 61.8382 29.3333 50.5 29.3333C39.1618 29.3333 29.843 37.8007 28.8247 49.0283L28.8333 53.1667H24.5V48.8333C25.7285 35.1617 36.9042 25 50.5 25C64.0958 25 75.2715 35.1617 76.4913 48.6383L76.5 53.1667Z" fill="url(#paint2_linear_703_5568)"/>
<path d="M76.4993 48.8335H72.166V64.0002H76.4993V48.8335Z" fill="white"/>
<path d="M24.5007 64H28.834L28.834 48.8333H24.5007V64Z" fill="white"/>
<defs>
<linearGradient id="paint0_linear_703_5568" x1="72.5932" y1="49.1668" x2="82.8521" y2="62.6875" gradientUnits="userSpaceOnUse">
<stop stop-color="white"/>
<stop offset="0.0001" stop-color="white"/>
<stop offset="1" stop-color="white"/>
</linearGradient>
<linearGradient id="paint1_linear_703_5568" x1="18.4272" y1="49.1668" x2="28.6861" y2="62.6875" gradientUnits="userSpaceOnUse">
<stop stop-color="white"/>
<stop offset="0.0001" stop-color="white"/>
<stop offset="1" stop-color="white"/>
</linearGradient>
<linearGradient id="paint2_linear_703_5568" x1="26.5505" y1="25.619" x2="37.244" y2="62.0455" gradientUnits="userSpaceOnUse">
<stop stop-color="white"/>
<stop offset="0.0001" stop-color="white"/>
<stop offset="1" stop-color="white"/>
</linearGradient>
</defs>
</svg>
