<svg width="24" height="24" viewBox="0 0 24 24" fill="none" xmlns="http://www.w3.org/2000/svg">
<rect width="24" height="24" rx="4" fill="#CE2626" fill-opacity="0.2"/>
<g clip-path="url(#clip0_9_1737)">
<path d="M16.9496 7.05026C16.3008 6.395 15.5289 5.8744 14.6782 5.51836C13.8276 5.16233 12.915 4.97788 11.9928 4.97561C11.0707 4.97334 10.1572 5.15329 9.30476 5.50514C8.45237 5.85698 7.6779 6.37378 7.02584 7.02584C6.37378 7.6779 5.85698 8.45237 5.50514 9.30476C5.15329 10.1572 4.97334 11.0707 4.97561 11.9928C4.97788 12.915 5.16233 13.8276 5.51836 14.6782C5.8744 15.5289 6.395 16.3008 7.05026 16.9496C7.69911 17.6049 8.47103 18.1255 9.32167 18.4815C10.1723 18.8376 11.0849 19.022 12.0071 19.0243C12.9292 19.0266 13.8427 18.8466 14.6951 18.4948C15.5475 18.1429 16.322 17.6261 16.9741 16.9741C17.6261 16.322 18.1429 15.5475 18.4948 14.6951C18.8466 13.8427 19.0266 12.9292 19.0243 12.0071C19.022 11.0849 18.8376 10.1723 18.4815 9.32167C18.1255 8.47103 17.6049 7.69911 16.9496 7.05026ZM17.5 12C17.5011 13.1995 17.108 14.3663 16.3812 15.3206L8.67933 7.6187C9.63364 6.89186 10.8004 6.49878 12 6.49995C15.0328 6.49995 17.5 8.9687 17.5 12ZM6.49995 12C6.49878 10.8004 6.89186 9.63364 7.6187 8.67933L15.3206 16.3812C14.3663 17.108 13.1995 17.5011 12 17.5C8.9687 17.5 6.49995 15.0328 6.49995 12Z" fill="#FF0000"/>
</g>
<defs>
<clipPath id="clip0_9_1737">
<rect width="16" height="16" fill="white" transform="translate(4 4)"/>
</clipPath>
</defs>
</svg>
