<svg width="772" height="802" viewBox="0 0 772 802" fill="none" xmlns="http://www.w3.org/2000/svg">
<rect x="0.5625" y="266.818" width="533.575" height="616.984" transform="rotate(-30 0.5625 266.818)" fill="#5EC9CA"/>
<g clip-path="url(#clip0_409_11573)">
<path d="M549.644 159.682C549.96 159.995 550.202 160.372 550.352 160.787C550.503 161.203 550.559 161.646 550.517 162.085C550.303 164.118 549.898 166.126 549.306 168.085C553.549 167.116 556.14 165.994 557.317 165.406C557.984 165.072 558.753 164.993 559.476 165.184C561.548 165.729 563.684 166.003 565.829 166C577.981 166 587.116 157.579 587.116 148C587.116 138.424 577.981 130 565.829 130C553.677 130 544.541 138.424 544.541 148C544.541 152.404 546.417 156.49 549.644 159.682ZM548.145 171.397C547.424 171.538 546.701 171.667 545.976 171.784C545.976 171.763 545.117 170.698 545.146 170.698C545.416 170.07 545.664 169.432 545.888 168.787L545.897 168.757C546.652 166.597 547.266 164.113 547.491 161.8C543.76 158.11 541.5 153.28 541.5 148C541.5 136.402 552.393 127 565.829 127C579.264 127 590.158 136.402 590.158 148C590.158 159.598 579.264 169 565.829 169C563.419 169.003 561.02 168.695 558.691 168.082C557.11 168.871 553.707 170.308 548.145 171.397Z" fill="white"/>
<path d="M562.988 144.28C562.396 143.37 561.52 142.674 560.492 142.297C559.465 141.92 558.341 141.882 557.29 142.19C556.238 142.497 555.317 143.132 554.663 144C554.009 144.868 553.659 145.922 553.664 147.004C553.665 147.9 553.909 148.779 554.372 149.549C554.834 150.32 555.498 150.954 556.294 151.385C557.09 151.816 557.988 152.028 558.896 151.999C559.803 151.971 560.686 151.702 561.452 151.222C561.054 152.389 560.312 153.634 559.089 154.882C559.089 154.882 560.759 156.562 560.914 156.622C565.433 152.002 564.846 146.98 562.988 144.286V144.28ZM575.153 144.28C574.56 143.37 573.684 142.674 572.657 142.297C571.629 141.92 570.505 141.882 569.454 142.19C568.403 142.497 567.481 143.132 566.827 144C566.173 144.868 565.823 145.922 565.829 147.004C565.829 147.9 566.073 148.779 566.536 149.549C566.999 150.32 567.662 150.954 568.458 151.385C569.254 151.816 570.153 152.028 571.06 151.999C571.968 151.971 572.85 151.702 573.617 151.222C573.218 152.389 572.476 153.634 571.254 154.882C571.315 154.729 571.138 155 571.254 154.882C571.251 154.718 571.193 155.035 571.254 154.882C571.187 154.731 571.257 155.046 571.254 154.882C571.134 154.768 571.32 155.033 571.254 154.882C571.374 154.996 573.078 156.622 573.078 156.622C577.598 152.002 577.011 146.98 575.153 144.286V144.28Z" fill="white"/>
</g>
<defs>
<clipPath id="clip0_409_11573">
<rect width="48.6575" height="48" fill="white" transform="translate(541.5 124)"/>
</clipPath>
</defs>
</svg>
