<svg width="156" height="155" viewBox="0 0 156 155" fill="none" xmlns="http://www.w3.org/2000/svg">
<path d="M153.386 142.671L143.522 142.671C143.328 142.671 143.17 142.828 143.17 143.023L143.17 152.886C143.17 153.081 143.328 153.239 143.522 153.239L153.386 153.239C153.581 153.239 153.738 153.081 153.738 152.886L153.738 143.023C153.738 142.828 153.581 142.671 153.386 142.671Z" stroke="white" stroke-width="1.32102" stroke-linecap="round" stroke-linejoin="round"/>
<path d="M153.386 114.488L143.522 114.488C143.328 114.488 143.17 114.646 143.17 114.841L143.17 124.704C143.17 124.899 143.328 125.057 143.522 125.057L153.386 125.057C153.581 125.057 153.738 124.899 153.738 124.704L153.738 114.841C153.738 114.646 153.581 114.488 153.386 114.488Z" stroke="white" stroke-width="1.32102" stroke-linecap="round" stroke-linejoin="round"/>
<path d="M153.386 86.3068L143.522 86.3068C143.328 86.3068 143.17 86.4645 143.17 86.6591L143.17 96.5227C143.17 96.7173 143.328 96.875 143.522 96.875L153.386 96.875C153.581 96.875 153.738 96.7173 153.738 96.5227L153.738 86.6591C153.738 86.4645 153.581 86.3068 153.386 86.3068Z" stroke="white" stroke-width="1.32102" stroke-linecap="round" stroke-linejoin="round"/>
<path d="M153.386 58.1252L143.522 58.1252C143.328 58.1252 143.17 58.2829 143.17 58.4775L143.17 68.3411C143.17 68.5356 143.328 68.6934 143.522 68.6934L153.386 68.6934C153.581 68.6934 153.738 68.5356 153.738 68.3411L153.738 58.4774C153.738 58.2829 153.581 58.1252 153.386 58.1252Z" stroke="white" stroke-width="1.32102" stroke-linecap="round" stroke-linejoin="round"/>
<path d="M153.386 29.943L143.522 29.943C143.328 29.943 143.17 30.1007 143.17 30.2953L143.17 40.159C143.17 40.3535 143.328 40.5112 143.522 40.5112L153.386 40.5112C153.581 40.5112 153.738 40.3535 153.738 40.159L153.738 30.2953C153.738 30.1007 153.581 29.943 153.386 29.943Z" stroke="white" stroke-width="1.32102" stroke-linecap="round" stroke-linejoin="round"/>
<path d="M153.386 1.76141L143.522 1.76141C143.328 1.76141 143.17 1.91911 143.17 2.11368L143.17 11.9773C143.17 12.1719 143.328 12.3296 143.522 12.3296L153.386 12.3296C153.581 12.3296 153.738 12.1719 153.738 11.9773L153.738 2.11368C153.738 1.91911 153.581 1.76141 153.386 1.76141Z" stroke="white" stroke-width="1.32102" stroke-linecap="round" stroke-linejoin="round"/>
<path d="M125.204 142.671L115.341 142.671C115.146 142.671 114.988 142.828 114.988 143.023L114.988 152.886C114.988 153.081 115.146 153.239 115.341 153.239L125.204 153.239C125.399 153.239 125.557 153.081 125.557 152.886L125.557 143.023C125.557 142.828 125.399 142.671 125.204 142.671Z" stroke="white" stroke-width="1.32102" stroke-linecap="round" stroke-linejoin="round"/>
<path d="M125.204 114.488L115.341 114.488C115.146 114.488 114.988 114.646 114.988 114.841L114.988 124.704C114.988 124.899 115.146 125.057 115.341 125.057L125.204 125.057C125.399 125.057 125.557 124.899 125.557 124.704L125.557 114.841C125.557 114.646 125.399 114.488 125.204 114.488Z" stroke="white" stroke-width="1.32102" stroke-linecap="round" stroke-linejoin="round"/>
<path d="M125.204 86.3068L115.341 86.3068C115.146 86.3068 114.988 86.4645 114.988 86.6591L114.988 96.5227C114.988 96.7173 115.146 96.875 115.341 96.875L125.204 96.875C125.399 96.875 125.557 96.7173 125.557 96.5227L125.557 86.6591C125.557 86.4645 125.399 86.3068 125.204 86.3068Z" stroke="white" stroke-width="1.32102" stroke-linecap="round" stroke-linejoin="round"/>
<path d="M125.204 58.1252L115.341 58.1252C115.146 58.1252 114.988 58.2829 114.988 58.4775L114.988 68.3411C114.988 68.5356 115.146 68.6934 115.341 68.6934L125.204 68.6934C125.399 68.6934 125.557 68.5356 125.557 68.3411L125.557 58.4774C125.557 58.2829 125.399 58.1252 125.204 58.1252Z" stroke="white" stroke-width="1.32102" stroke-linecap="round" stroke-linejoin="round"/>
<path d="M125.204 29.943L115.341 29.943C115.146 29.943 114.988 30.1007 114.988 30.2953L114.988 40.159C114.988 40.3535 115.146 40.5112 115.341 40.5112L125.204 40.5112C125.399 40.5112 125.557 40.3535 125.557 40.159L125.557 30.2953C125.557 30.1007 125.399 29.943 125.204 29.943Z" stroke="white" stroke-width="1.32102" stroke-linecap="round" stroke-linejoin="round"/>
<path d="M125.204 1.76141L115.341 1.76141C115.146 1.76141 114.988 1.91911 114.988 2.11368L114.988 11.9773C114.988 12.1719 115.146 12.3296 115.341 12.3296L125.204 12.3296C125.399 12.3296 125.557 12.1719 125.557 11.9773L125.557 2.11368C125.557 1.91911 125.399 1.76141 125.204 1.76141Z" stroke="white" stroke-width="1.32102" stroke-linecap="round" stroke-linejoin="round"/>
<path d="M97.0227 142.671L87.1591 142.671C86.9645 142.671 86.8068 142.828 86.8068 143.023L86.8068 152.886C86.8068 153.081 86.9645 153.239 87.1591 153.239L97.0227 153.239C97.2173 153.239 97.375 153.081 97.375 152.886L97.375 143.023C97.375 142.828 97.2173 142.671 97.0227 142.671Z" stroke="white" stroke-width="1.32102" stroke-linecap="round" stroke-linejoin="round"/>
<path d="M97.0227 114.488L87.1591 114.488C86.9645 114.488 86.8068 114.646 86.8068 114.841L86.8068 124.704C86.8068 124.899 86.9645 125.057 87.1591 125.057L97.0227 125.057C97.2173 125.057 97.375 124.899 97.375 124.704L97.375 114.841C97.375 114.646 97.2173 114.488 97.0227 114.488Z" stroke="white" stroke-width="1.32102" stroke-linecap="round" stroke-linejoin="round"/>
<path d="M97.0227 86.3068L87.1591 86.3068C86.9645 86.3068 86.8068 86.4645 86.8068 86.6591L86.8068 96.5227C86.8068 96.7173 86.9645 96.875 87.1591 96.875L97.0227 96.875C97.2173 96.875 97.375 96.7173 97.375 96.5227L97.375 86.6591C97.375 86.4645 97.2173 86.3068 97.0227 86.3068Z" stroke="white" stroke-width="1.32102" stroke-linecap="round" stroke-linejoin="round"/>
<path d="M97.0227 58.1252L87.1591 58.1252C86.9645 58.1252 86.8068 58.2829 86.8068 58.4775L86.8068 68.3411C86.8068 68.5356 86.9645 68.6934 87.1591 68.6934L97.0227 68.6934C97.2173 68.6934 97.375 68.5356 97.375 68.3411L97.375 58.4774C97.375 58.2829 97.2173 58.1252 97.0227 58.1252Z" stroke="white" stroke-width="1.32102" stroke-linecap="round" stroke-linejoin="round"/>
<path d="M97.0227 29.943L87.1591 29.943C86.9645 29.943 86.8068 30.1007 86.8068 30.2953L86.8068 40.159C86.8068 40.3535 86.9645 40.5112 87.1591 40.5112L97.0227 40.5112C97.2173 40.5112 97.375 40.3535 97.375 40.159L97.375 30.2953C97.375 30.1007 97.2173 29.943 97.0227 29.943Z" stroke="white" stroke-width="1.32102" stroke-linecap="round" stroke-linejoin="round"/>
<path d="M97.0227 1.76141L87.1591 1.76141C86.9645 1.76141 86.8068 1.91911 86.8068 2.11368L86.8068 11.9773C86.8068 12.1719 86.9645 12.3296 87.1591 12.3296L97.0227 12.3296C97.2173 12.3296 97.375 12.1719 97.375 11.9773L97.375 2.11368C97.375 1.91911 97.2173 1.76141 97.0227 1.76141Z" stroke="white" stroke-width="1.32102" stroke-linecap="round" stroke-linejoin="round"/>
<path d="M68.8411 142.671L58.9774 142.671C58.7829 142.671 58.6252 142.828 58.6252 143.023L58.6252 152.886C58.6252 153.081 58.7829 153.239 58.9774 153.239L68.8411 153.239C69.0356 153.239 69.1934 153.081 69.1934 152.886L69.1934 143.023C69.1934 142.828 69.0356 142.671 68.8411 142.671Z" stroke="white" stroke-width="1.32102" stroke-linecap="round" stroke-linejoin="round"/>
<path d="M68.8411 114.488L58.9774 114.488C58.7829 114.488 58.6252 114.646 58.6252 114.841L58.6252 124.704C58.6252 124.899 58.7829 125.057 58.9774 125.057L68.8411 125.057C69.0356 125.057 69.1934 124.899 69.1934 124.704L69.1934 114.841C69.1934 114.646 69.0356 114.488 68.8411 114.488Z" stroke="white" stroke-width="1.32102" stroke-linecap="round" stroke-linejoin="round"/>
<path d="M68.8411 86.3068L58.9774 86.3068C58.7829 86.3068 58.6252 86.4645 58.6252 86.6591L58.6252 96.5227C58.6252 96.7173 58.7829 96.875 58.9774 96.875L68.8411 96.875C69.0356 96.875 69.1934 96.7173 69.1934 96.5227L69.1934 86.6591C69.1934 86.4645 69.0356 86.3068 68.8411 86.3068Z" stroke="white" stroke-width="1.32102" stroke-linecap="round" stroke-linejoin="round"/>
<path d="M68.8411 58.1252L58.9774 58.1252C58.7829 58.1252 58.6252 58.2829 58.6252 58.4775L58.6252 68.3411C58.6252 68.5356 58.7829 68.6934 58.9774 68.6934L68.8411 68.6934C69.0356 68.6934 69.1934 68.5356 69.1934 68.3411L69.1934 58.4774C69.1934 58.2829 69.0356 58.1252 68.8411 58.1252Z" stroke="white" stroke-width="1.32102" stroke-linecap="round" stroke-linejoin="round"/>
<path d="M68.8411 29.943L58.9774 29.943C58.7829 29.943 58.6252 30.1007 58.6252 30.2953L58.6252 40.159C58.6252 40.3535 58.7829 40.5112 58.9774 40.5112L68.8411 40.5112C69.0356 40.5112 69.1934 40.3535 69.1934 40.159L69.1934 30.2953C69.1934 30.1007 69.0356 29.943 68.8411 29.943Z" stroke="white" stroke-width="1.32102" stroke-linecap="round" stroke-linejoin="round"/>
<path d="M68.8411 1.76141L58.9774 1.76141C58.7829 1.76141 58.6252 1.91911 58.6252 2.11368L58.6252 11.9773C58.6252 12.1719 58.7829 12.3296 58.9774 12.3296L68.8411 12.3296C69.0356 12.3296 69.1934 12.1719 69.1934 11.9773L69.1934 2.11368C69.1934 1.91911 69.0356 1.76141 68.8411 1.76141Z" stroke="white" stroke-width="1.32102" stroke-linecap="round" stroke-linejoin="round"/>
<path d="M40.6594 142.671L30.7958 142.671C30.6012 142.671 30.4435 142.828 30.4435 143.023L30.4435 152.886C30.4435 153.081 30.6012 153.239 30.7958 153.239L40.6594 153.239C40.854 153.239 41.0117 153.081 41.0117 152.886L41.0117 143.023C41.0117 142.828 40.854 142.671 40.6594 142.671Z" stroke="white" stroke-width="1.32102" stroke-linecap="round" stroke-linejoin="round"/>
<path d="M40.6594 114.488L30.7958 114.488C30.6012 114.488 30.4435 114.646 30.4435 114.841L30.4435 124.704C30.4435 124.899 30.6012 125.057 30.7958 125.057L40.6594 125.057C40.854 125.057 41.0117 124.899 41.0117 124.704L41.0117 114.841C41.0117 114.646 40.854 114.488 40.6594 114.488Z" stroke="white" stroke-width="1.32102" stroke-linecap="round" stroke-linejoin="round"/>
<path d="M40.6594 86.3068L30.7958 86.3068C30.6012 86.3068 30.4435 86.4645 30.4435 86.6591L30.4435 96.5227C30.4435 96.7173 30.6012 96.875 30.7958 96.875L40.6594 96.875C40.854 96.875 41.0117 96.7173 41.0117 96.5227L41.0117 86.6591C41.0117 86.4645 40.854 86.3068 40.6594 86.3068Z" stroke="white" stroke-width="1.32102" stroke-linecap="round" stroke-linejoin="round"/>
<path d="M40.6594 58.1252L30.7958 58.1252C30.6012 58.1252 30.4435 58.2829 30.4435 58.4775L30.4435 68.3411C30.4435 68.5356 30.6012 68.6934 30.7958 68.6934L40.6594 68.6934C40.854 68.6934 41.0117 68.5356 41.0117 68.3411L41.0117 58.4774C41.0117 58.2829 40.854 58.1252 40.6594 58.1252Z" stroke="white" stroke-width="1.32102" stroke-linecap="round" stroke-linejoin="round"/>
<path d="M40.6594 29.943L30.7958 29.943C30.6012 29.943 30.4435 30.1007 30.4435 30.2953L30.4435 40.159C30.4435 40.3535 30.6012 40.5112 30.7958 40.5112L40.6594 40.5112C40.854 40.5112 41.0117 40.3535 41.0117 40.159L41.0117 30.2953C41.0117 30.1007 40.854 29.943 40.6594 29.943Z" stroke="white" stroke-width="1.32102" stroke-linecap="round" stroke-linejoin="round"/>
<path d="M40.6594 1.76141L30.7958 1.76141C30.6012 1.76141 30.4435 1.91911 30.4435 2.11368L30.4435 11.9773C30.4435 12.1719 30.6012 12.3296 30.7958 12.3296L40.6594 12.3296C40.854 12.3296 41.0117 12.1719 41.0117 11.9773L41.0117 2.11368C41.0117 1.91911 40.854 1.76141 40.6594 1.76141Z" stroke="white" stroke-width="1.32102" stroke-linecap="round" stroke-linejoin="round"/>
<path d="M12.4768 142.671L2.61319 142.671C2.41862 142.671 2.26092 142.828 2.26092 143.023L2.26092 152.886C2.26092 153.081 2.41862 153.239 2.61319 153.239L12.4768 153.239C12.6714 153.239 12.8291 153.081 12.8291 152.886L12.8291 143.023C12.8291 142.828 12.6714 142.671 12.4768 142.671Z" stroke="white" stroke-width="1.32102" stroke-linecap="round" stroke-linejoin="round"/>
<path d="M12.4768 114.488L2.61319 114.488C2.41862 114.488 2.26092 114.646 2.26092 114.841L2.26092 124.704C2.26092 124.899 2.41862 125.057 2.61319 125.057L12.4768 125.057C12.6714 125.057 12.8291 124.899 12.8291 124.704L12.8291 114.841C12.8291 114.646 12.6714 114.488 12.4768 114.488Z" stroke="white" stroke-width="1.32102" stroke-linecap="round" stroke-linejoin="round"/>
<path d="M12.4768 86.3068L2.61319 86.3068C2.41862 86.3068 2.26092 86.4645 2.26092 86.6591L2.26092 96.5227C2.26092 96.7173 2.41862 96.875 2.61319 96.875L12.4768 96.875C12.6714 96.875 12.8291 96.7173 12.8291 96.5227L12.8291 86.6591C12.8291 86.4645 12.6714 86.3068 12.4768 86.3068Z" stroke="white" stroke-width="1.32102" stroke-linecap="round" stroke-linejoin="round"/>
<path d="M12.4768 58.1252L2.61319 58.1252C2.41862 58.1252 2.26092 58.2829 2.26092 58.4775L2.26092 68.3411C2.26092 68.5356 2.41862 68.6934 2.61319 68.6934L12.4768 68.6934C12.6714 68.6934 12.8291 68.5356 12.8291 68.3411L12.8291 58.4774C12.8291 58.2829 12.6714 58.1252 12.4768 58.1252Z" stroke="white" stroke-width="1.32102" stroke-linecap="round" stroke-linejoin="round"/>
<path d="M12.4768 29.943L2.61319 29.943C2.41862 29.943 2.26092 30.1007 2.26092 30.2953L2.26092 40.159C2.26092 40.3535 2.41862 40.5112 2.61319 40.5112L12.4768 40.5112C12.6714 40.5112 12.8291 40.3535 12.8291 40.159L12.8291 30.2953C12.8291 30.1007 12.6714 29.943 12.4768 29.943Z" stroke="white" stroke-width="1.32102" stroke-linecap="round" stroke-linejoin="round"/>
<path d="M12.4768 1.76141L2.61319 1.76141C2.41862 1.76141 2.26092 1.91911 2.26092 2.11368L2.26092 11.9773C2.26092 12.1719 2.41862 12.3296 2.61319 12.3296L12.4768 12.3296C12.6714 12.3296 12.8291 12.1719 12.8291 11.9773L12.8291 2.11368C12.8291 1.91911 12.6714 1.76141 12.4768 1.76141Z" stroke="white" stroke-width="1.32102" stroke-linecap="round" stroke-linejoin="round"/>
</svg>
