<svg width="24" height="18" viewBox="0 0 24 18" fill="none" xmlns="http://www.w3.org/2000/svg">
<path d="M8.83508 1.05496C9.05814 1.16344 9.30091 1.32953 9.48515 1.58494L8.83508 1.05496ZM8.83508 1.05496C9.05564 0.961753 9.38378 0.896791 9.83327 0.861425C10.3202 0.823114 10.8954 0.822641 11.5404 0.829663L11.5423 0.829677C12.509 0.836449 12.7563 0.895891 13.1021 0.98276L13.1034 0.98309C13.316 1.03588 13.3914 1.10648 13.4327 1.16711C13.487 1.24679 13.5386 1.39308 13.56 1.69045C13.5811 1.9853 13.5694 2.35933 13.5498 2.85732C13.5483 2.89476 13.5468 2.93278 13.5452 2.97138C13.5267 3.43689 13.5048 3.98754 13.5048 4.6242C13.5048 4.73632 13.5014 4.86794 13.4977 5.01042C13.489 5.34435 13.4789 5.73792 13.5073 6.07992C13.5468 6.55451 13.6712 7.18326 14.1854 7.52667C14.3766 7.65493 14.6166 7.69685 14.8722 7.62728C15.1041 7.56414 15.3297 7.41545 15.5563 7.20626C16.0098 6.78758 16.6038 5.99728 17.4109 4.59315L17.411 4.59294C17.8045 3.90775 18.1469 3.16867 18.3895 2.60563C18.5113 2.32305 18.6089 2.0825 18.6763 1.91213C18.71 1.82691 18.7361 1.75913 18.754 1.71231L18.7742 1.65906C18.7756 1.65616 18.7773 1.65269 18.7794 1.64873C18.7884 1.63136 18.8019 1.60691 18.8188 1.58065C18.8361 1.55384 18.8539 1.53001 18.8705 1.5115C18.8794 1.50147 18.8859 1.49541 18.8896 1.49224C18.8932 1.4908 18.8991 1.48872 18.9079 1.4865C18.925 1.48215 18.946 1.47901 18.9689 1.47748C18.9914 1.47597 19.011 1.47632 19.0238 1.47697C19.0286 1.47721 19.032 1.47748 19.0339 1.47763L19.0627 1.48141L19.0968 1.48121L22.7065 1.4602L22.7356 1.46003L22.7635 1.45659L22.7639 1.45655L22.7639 1.45655L22.7642 1.45651L22.7644 1.45649L22.7646 1.45646L22.769 1.45599L22.7948 1.45348C22.8185 1.45137 22.8541 1.44865 22.898 1.44667C22.9873 1.44263 23.1028 1.44205 23.2178 1.45341C23.3378 1.46525 23.4289 1.48747 23.485 1.51296C23.4891 1.51484 23.4928 1.5166 23.496 1.51821C23.4966 1.52663 23.4969 1.53702 23.4968 1.54959C23.4961 1.59346 23.489 1.65598 23.4691 1.74041C23.4287 1.91135 23.3436 2.13991 23.1987 2.43339C22.9093 3.01961 22.4135 3.80163 21.6842 4.79751C21.39 5.19779 21.1171 5.55862 20.8767 5.87653C20.6388 6.19108 20.4327 6.46361 20.2692 6.69077C19.9403 7.14775 19.6774 7.55867 19.5939 7.964C19.4962 8.43816 19.6519 8.8259 19.9259 9.18753C20.1634 9.50089 20.5333 9.85061 20.9837 10.2765C21.0105 10.3019 21.0376 10.3275 21.0651 10.3535C22.0071 11.2482 22.5661 11.9051 22.8932 12.342C23.1626 12.702 23.2724 12.9075 23.327 13.0097C23.3382 13.0306 23.347 13.0472 23.3545 13.0599L23.3547 13.0602C23.5168 13.3362 23.5032 13.464 23.4961 13.4953C23.4904 13.5209 23.4715 13.5626 23.384 13.6163C23.2926 13.6723 23.17 13.7125 23.0528 13.7377C22.9974 13.7496 22.9499 13.7567 22.9173 13.7608C22.9031 13.7625 22.892 13.7637 22.8848 13.7644L19.6958 13.8132L19.6496 13.8139L19.612 13.8215C19.6115 13.8216 19.6108 13.8216 19.61 13.8217C19.6025 13.8227 19.5859 13.8244 19.5611 13.8254C19.5116 13.8274 19.4293 13.8263 19.3207 13.8094C19.1058 13.776 18.7775 13.6791 18.3874 13.4061C18.1349 13.2289 17.8703 12.9685 17.5896 12.6575C17.4219 12.4717 17.2684 12.2911 17.1123 12.1075C16.997 11.9718 16.8803 11.8345 16.7556 11.6924C16.4839 11.3829 16.1909 11.0711 15.8923 10.8563C15.6027 10.6479 15.1946 10.45 14.744 10.5929L14.744 10.5928L14.7383 10.5947C14.3491 10.7233 14.1009 11.022 13.9453 11.3086C13.7888 11.5968 13.6963 11.9253 13.6392 12.2144C13.5813 12.5078 13.5549 12.7868 13.5427 12.9902C13.5365 13.0926 13.5339 13.1777 13.5328 13.238C13.5322 13.2683 13.5321 13.2924 13.5321 13.3095L13.5321 13.33L13.5322 13.336L13.5322 13.3371L13.5321 13.3418C13.532 13.3475 13.5317 13.3578 13.5309 13.3716C13.5292 13.3998 13.5255 13.4391 13.5178 13.4819C13.51 13.5255 13.4993 13.5649 13.4867 13.5965C13.4747 13.6267 13.4655 13.6382 13.4649 13.639C13.4439 13.6612 13.3824 13.6997 13.2776 13.7323C13.2321 13.7464 13.1903 13.7558 13.1605 13.7614C13.1552 13.7624 13.1503 13.7633 13.146 13.7641H11.7444H11.729L11.7151 13.7649L11.7149 13.7649L11.7148 13.7649L11.7143 13.765L11.7139 13.765L11.7122 13.7651L11.6933 13.7658C11.675 13.7663 11.6454 13.7669 11.6054 13.7667C11.5253 13.7663 11.4038 13.7629 11.2475 13.75C10.9346 13.7242 10.4843 13.6609 9.94981 13.5097C8.88318 13.2081 7.47905 12.5565 6.15685 11.1476L6.15665 11.1474C4.68514 9.58133 3.2793 7.21706 2.23184 5.21393C1.71105 4.21799 1.28422 3.32186 0.987702 2.67494C0.839501 2.35161 0.724004 2.09086 0.645757 1.91142C0.606637 1.82171 0.576838 1.75234 0.556929 1.70567L0.534559 1.65298L0.532545 1.6482C0.530713 1.64272 0.527917 1.634 0.524696 1.6228C0.517126 1.59649 0.508874 1.56226 0.50402 1.52727C0.503486 1.52341 0.503015 1.51971 0.502604 1.51617C0.531064 1.50581 0.565946 1.49584 0.605738 1.4871C0.659079 1.47539 0.710277 1.46825 0.748614 1.46414C0.767371 1.46213 0.782032 1.46095 0.791087 1.46031L0.794188 1.46012L4.15826 1.43952C4.18047 1.44498 4.21042 1.4531 4.24445 1.46425C4.32863 1.49183 4.4096 1.52882 4.46432 1.56998L4.46429 1.57002L4.46989 1.57411C4.48672 1.5864 4.51896 1.62186 4.55352 1.68038C4.56842 1.7056 4.57977 1.72832 4.58698 1.74381C4.5905 1.75138 4.5928 1.75674 4.59385 1.75921C4.59399 1.75956 4.59411 1.75985 4.59421 1.76007C4.59444 1.76063 4.5945 1.76079 4.5944 1.76053L4.59498 1.76207L4.60019 1.77542L4.61993 1.82547C4.63714 1.86882 4.66234 1.93166 4.6948 2.01093C4.75968 2.16939 4.8537 2.39383 4.97095 2.65953C5.20477 3.18942 5.53396 3.8902 5.91127 4.56105L5.91127 4.56106L5.91245 4.56313C6.63284 5.82977 7.18485 6.6494 7.6393 7.11912C7.86617 7.3536 8.10487 7.53965 8.36526 7.62973C8.65373 7.72952 8.93507 7.69936 9.18107 7.56115L9.18246 7.56037C9.39475 7.44021 9.52564 7.24576 9.6084 7.07838C9.69439 6.90448 9.75496 6.70556 9.79966 6.50745C9.88924 6.11039 9.93135 5.64109 9.95025 5.20729C9.96934 4.76914 9.9655 4.34655 9.95707 4.03499C9.95284 3.87876 9.94743 3.74939 9.94304 3.65863C9.94084 3.61323 9.93891 3.57743 9.9375 3.55269L9.93623 3.53122C9.93624 3.52089 9.9362 3.50679 9.93601 3.48932C9.93562 3.45259 9.93461 3.40076 9.93216 3.33741C9.92729 3.2113 9.91661 3.03666 9.89315 2.84321C9.84993 2.4869 9.75199 1.95395 9.4852 1.58501C9.48536 1.58524 9.48553 1.58546 9.48569 1.58569L8.83508 1.05496ZM4.59298 1.75693C4.59298 1.75692 4.59297 1.7569 4.59475 1.75619L5.05937 1.57671L4.593 1.75696L4.59298 1.75693ZM0.8008 1.4597L0.800674 1.45971L0.8008 1.4597ZM23.5161 1.53025C23.5161 1.53026 23.5156 1.52988 23.5147 1.52907C23.5157 1.52984 23.5162 1.53024 23.5161 1.53025ZM8.43285 1.3796C8.43235 1.38067 8.43206 1.38121 8.43204 1.38121L8.43285 1.3796ZM14.0318 13.3323L13.5322 13.3393L13.5322 13.339C13.5322 13.3391 13.5322 13.3393 14.0318 13.3323Z" stroke="#9D78FF"/>
</svg>
