<svg width="14" height="14" viewBox="0 0 14 14" fill="none" xmlns="http://www.w3.org/2000/svg">
<g clip-path="url(#clip0_410_13756)">
<path d="M11.8784 9.93814C11.4873 9.54673 11.0303 9.22726 10.5284 8.99439C11.2362 8.42095 11.6878 7.54595 11.6878 6.5647C11.6878 4.83345 10.244 3.41314 8.51278 3.4397C6.8081 3.46626 5.43466 4.85532 5.43466 6.5647C5.43466 7.54595 5.88778 8.42095 6.59403 8.99439C6.09201 9.22709 5.635 9.54657 5.24403 9.93814C4.39091 10.7928 3.90653 11.9209 3.87528 13.1241C3.87487 13.1407 3.87779 13.1573 3.88389 13.1729C3.88998 13.1884 3.89912 13.2025 3.91077 13.2145C3.92242 13.2264 3.93634 13.2359 3.95171 13.2424C3.96709 13.2489 3.9836 13.2522 4.00028 13.2522H4.87528C4.94247 13.2522 4.99872 13.1991 5.00028 13.1319C5.02997 12.2256 5.39716 11.3772 6.04247 10.7334C6.37269 10.4015 6.76547 10.1383 7.19808 9.95913C7.63069 9.77997 8.09454 9.68839 8.56278 9.6897C9.51435 9.6897 10.4097 10.06 11.0831 10.7334C11.7268 11.3772 12.094 12.2256 12.1253 13.1319C12.1268 13.1991 12.1831 13.2522 12.2503 13.2522H13.1253C13.142 13.2522 13.1585 13.2489 13.1739 13.2424C13.1892 13.2359 13.2031 13.2264 13.2148 13.2145C13.2264 13.2025 13.2356 13.1884 13.2417 13.1729C13.2478 13.1573 13.2507 13.1407 13.2503 13.1241C13.219 11.9209 12.7347 10.7928 11.8784 9.93814ZM8.56278 8.5647C8.02841 8.5647 7.52528 8.35689 7.14872 7.97876C6.95974 7.79127 6.81046 7.56764 6.70979 7.3212C6.60913 7.07476 6.55913 6.81057 6.56278 6.54439C6.56747 6.03189 6.77216 5.53657 7.12997 5.16939C7.50497 4.78501 8.00653 4.57095 8.54247 4.5647C9.07216 4.56001 9.58622 4.76626 9.96435 5.13657C10.3518 5.51626 10.5643 6.02407 10.5643 6.5647C10.5643 7.09907 10.3565 7.60064 9.97841 7.97876C9.7929 8.16516 9.57226 8.31292 9.32927 8.4135C9.08628 8.51407 8.82576 8.56546 8.56278 8.5647ZM4.64872 6.9772C4.63466 6.84126 4.62685 6.70376 4.62685 6.5647C4.62685 6.31626 4.65028 6.07407 4.69403 5.83814C4.70497 5.78189 4.67528 5.72407 4.62372 5.70064C4.41122 5.60532 4.21591 5.47407 4.04716 5.30845C3.84831 5.11565 3.69184 4.88351 3.58773 4.62686C3.48361 4.3702 3.43414 4.09467 3.44247 3.81782C3.45653 3.31626 3.6581 2.8397 4.00966 2.48032C4.3956 2.08501 4.91435 1.86939 5.46591 1.87564C5.96435 1.88032 6.4456 2.07251 6.80966 2.41314C6.9331 2.52876 7.03935 2.65689 7.12841 2.79439C7.15966 2.84282 7.2206 2.86314 7.27372 2.84439C7.54872 2.74907 7.83935 2.68189 8.13778 2.65064C8.22528 2.64126 8.27528 2.54751 8.23622 2.46939C7.72841 1.4647 6.69091 0.770948 5.49091 0.752198C3.7581 0.725635 2.31435 2.14595 2.31435 3.87564C2.31435 4.85689 2.76591 5.73189 3.47372 6.30532C2.97685 6.53501 2.51903 6.8522 2.12216 7.24907C1.26591 8.10376 0.781533 9.23189 0.750283 10.4366C0.749866 10.4532 0.752791 10.4698 0.758886 10.4854C0.764981 10.5009 0.774122 10.515 0.785771 10.527C0.79742 10.5389 0.811342 10.5484 0.826715 10.5549C0.842088 10.5614 0.858602 10.5647 0.875283 10.5647H1.75185C1.81903 10.5647 1.87528 10.5116 1.87685 10.4444C1.90653 9.53814 2.27372 8.6897 2.91903 8.04595C3.37841 7.58657 3.94091 7.26782 4.55497 7.11314C4.61591 7.09751 4.65653 7.0397 4.64872 6.9772V6.9772Z" fill="white"/>
</g>
<defs>
<clipPath id="clip0_410_13756">
<rect width="14" height="14" fill="white"/>
</clipPath>
</defs>
</svg>
